<?xml version="1.0" encoding="utf-8"?>
<!-- Generator: Adobe Illustrator 22.0.1, SVG Export Plug-In . SVG Version: 6.00 Build 0)  -->
<svg version="1.1" id="Capa_1" xmlns="http://www.w3.org/2000/svg" xmlns:xlink="http://www.w3.org/1999/xlink" x="0px" y="0px"
	 viewBox="0 0 38.6 48.8" style="enable-background:new 0 0 38.6 48.8;" xml:space="preserve">
<style type="text/css">
	.st0{fill:#D6D6D4;}
	.st1{fill:#666571;}
	.st2{fill:#FFF4E2;}
</style>
<g>
	<path class="st0" d="M32,17.6C30.1,28.6,27,31,20.8,31s-9.9-3-11.3-13.4c-1-7.3,5.1-13.4,11.3-13.4S33.3,10.3,32,17.6z"/>
	<path class="st0" d="M20.6,45.3H20c-1.3,0-2.3-1-2.3-2.3v-0.3h5.1V43C22.9,44.3,21.9,45.3,20.6,45.3z"/>
	<g>
		<path class="st1" d="M19.6,33.6c-7.7,0-11.4-4.3-12.8-14.9C6.3,14.9,7.4,11.2,10,8.3c2.5-2.9,6.1-4.6,9.6-4.6
			c3.7,0,7.4,1.8,10,4.9c2.5,2.9,3.5,6.5,2.8,10.2l0,0C30.2,31.3,26.4,33.6,19.6,33.6z M19.6,4.7c-3.2,0-6.5,1.6-8.8,4.2
			c-2.4,2.7-3.4,6.1-3,9.6c1.6,11.6,5.8,14,11.8,14c6.3,0,9.7-2.1,11.8-14c0.6-3.3-0.4-6.6-2.6-9.3C26.4,6.4,23,4.7,19.6,4.7z
			 M31.9,18.6L31.9,18.6L31.9,18.6z"/>
	</g>
	<g>
		<path class="st2" d="M24.1,38.7h-8.4c-1.4,0-2.5-1.1-2.5-2.5v-0.6c0-1.4,1.1-2.5,2.5-2.5h8.4c1.4,0,2.5,1.1,2.5,2.5v0.6
			C26.6,37.6,25.5,38.7,24.1,38.7z"/>
		<path class="st1" d="M24.1,39.2h-8.4c-1.7,0-3-1.4-3-3v-0.6c0-1.7,1.4-3,3-3h8.4c1.7,0,3,1.4,3,3v0.6
			C27.1,37.8,25.8,39.2,24.1,39.2z M15.7,33.6c-1.1,0-2,0.9-2,2v0.6c0,1.1,0.9,2,2,2h8.4c1.1,0,2-0.9,2-2v-0.6c0-1.1-0.9-2-2-2H15.7
			z"/>
	</g>
	<g>
		<path class="st2" d="M23.1,42.7h-6.3c-1,0-1.8-0.7-1.8-1.7v-0.6c0-0.9,0.8-1.7,1.7-1.7H23c0.9,0,1.7,0.8,1.7,1.7V41
			C24.8,42,24,42.7,23.1,42.7z"/>
		<path class="st1" d="M23.1,43.3h-6.3c-1.2,0-2.2-1-2.2-2.2v-0.6c0-1.2,1-2.2,2.2-2.2h6.3c1.2,0,2.2,1,2.2,2.2V41
			C25.3,42.3,24.3,43.3,23.1,43.3z M16.7,39.2c-0.6,0-1.2,0.5-1.2,1.2V41c0,0.6,0.5,1.2,1.2,1.2H23c0.6,0,1.2-0.5,1.2-1.2v-0.6
			c0-0.6-0.5-1.2-1.2-1.2H16.7z"/>
	</g>
	<g>
		<path class="st1" d="M20.8,45.8h-1.7c-1.5,0-2.8-1.2-2.8-2.8v-0.7h7.2V43C23.5,44.5,22.3,45.8,20.8,45.8z M17.2,43.2
			c0.1,0.9,0.9,1.6,1.8,1.6h1.7c0.9,0,1.7-0.7,1.8-1.6H17.2z"/>
	</g>
	<g>
		<path class="st1" d="M19.8,32.7h-1V24l-3.2-2.5l2.4-3.6l1.5,1c0.2,0.2,0.3,0.5,0.1,0.7c-0.2,0.2-0.5,0.3-0.7,0.1l-0.7-0.5l-1.3,2
			l2.8,2.2v9.3H19.8z"/>
	</g>
	<g>
		<path class="st1" d="M20.8,33.2c-0.3,0-0.5-0.2-0.5-0.5v-9.2l2.8-2.2l-1.3-2l-0.7,0.5c-0.2,0.2-0.5,0.1-0.7-0.1
			c-0.2-0.2-0.1-0.5,0.1-0.7l1.5-1l2.4,3.6L21.3,24v8.7C21.3,33,21.1,33.2,20.8,33.2z"/>
	</g>
	<g>
		<g>
			<path class="st1" d="M29,21.5C28.9,21.5,28.9,21.5,29,21.5c-0.2,0-0.3-0.2-0.3-0.3c0.4-2.5,0.2-5.2-0.7-7.8c0-0.1,0-0.3,0.2-0.4
				c0.2,0,0.3,0,0.4,0.2c0.9,2.7,1.1,5.5,0.7,8.1C29.2,21.4,29.1,21.5,29,21.5z"/>
		</g>
		<g>
			<path class="st1" d="M27.3,26.3h-0.1C27,26.2,27,26,27.1,25.8c0.3-0.5,0.5-0.9,0.6-1.3c0.2-0.4,0.4-0.9,0.5-1.4
				c0-0.1,0.2-0.2,0.3-0.2s0.2,0.2,0.2,0.3c-0.2,0.6-0.3,1-0.5,1.4s-0.4,0.9-0.7,1.4C27.5,26.2,27.4,26.3,27.3,26.3z"/>
		</g>
	</g>
	<g>
		<path class="st1" d="M23.1,37.3h-2.7c-0.2,0-0.3-0.1-0.3-0.3s0.1-0.3,0.3-0.3h2.7c0.2,0,0.3,0.1,0.3,0.3S23.2,37.3,23.1,37.3z"/>
	</g>
</g>
</svg>
