<?xml version="1.0" encoding="utf-8"?>
<!-- Generator: Adobe Illustrator 22.0.1, SVG Export Plug-In . SVG Version: 6.00 Build 0)  -->
<svg version="1.1" id="Capa_1" xmlns="http://www.w3.org/2000/svg" xmlns:xlink="http://www.w3.org/1999/xlink" x="0px" y="0px"
	 viewBox="0 0 55.3 53.7" style="enable-background:new 0 0 55.3 53.7;" xml:space="preserve">
<style type="text/css">
	.st0{fill:#FFF4E2;}
	.st1{fill:none;stroke:#666571;stroke-width:1.0616;stroke-linecap:round;stroke-linejoin:round;stroke-miterlimit:10;}
	.st2{fill:none;stroke:#666571;stroke-width:1.0885;stroke-linecap:round;stroke-linejoin:round;stroke-miterlimit:10;}
	.st3{fill:#D6D6D4;stroke:#666571;stroke-width:0.7505;stroke-linecap:round;stroke-linejoin:round;stroke-miterlimit:10;}
	.st4{fill:#FFF4E2;stroke:#666571;stroke-width:0.5004;stroke-linecap:round;stroke-linejoin:round;stroke-miterlimit:10;}
	.st5{fill:none;stroke:#666571;stroke-width:0.7505;stroke-linecap:round;stroke-linejoin:round;stroke-miterlimit:10;}
	.st6{fill:#FFF4E2;stroke:#666571;stroke-width:0.2502;stroke-linecap:round;stroke-linejoin:round;stroke-miterlimit:10;}
	.st7{fill:#3D3D3D;}
</style>
<g>
	<polyline class="st0" points="33.6,23.2 33.6,44.7 2.3,44.7 2.3,2.6 33.6,2.6 33.6,18.9 	"/>
	<polyline class="st1" points="41.2,27.5 41.2,50.7 2.7,50.7 2.7,2.6 41.2,2.6 41.2,22.3 	"/>
	<line class="st2" x1="10" y1="11.2" x2="33.6" y2="11.2"/>
	<line class="st2" x1="10" y1="14.6" x2="30.6" y2="14.6"/>
	<line class="st2" x1="10" y1="18" x2="32.6" y2="18"/>
	<line class="st2" x1="10" y1="21.3" x2="33.6" y2="21.3"/>
	<line class="st2" x1="10" y1="24.7" x2="31.6" y2="24.7"/>
	<line class="st2" x1="10" y1="28.1" x2="32.6" y2="28.1"/>
	<line class="st2" x1="10" y1="31.5" x2="33.6" y2="31.5"/>
	<line class="st2" x1="10" y1="34.8" x2="33.6" y2="34.8"/>
	<line class="st2" x1="10" y1="38.2" x2="30.6" y2="38.2"/>
	<line class="st2" x1="10" y1="41.6" x2="28.6" y2="41.6"/>
	<line class="st2" x1="10" y1="45" x2="31.6" y2="45"/>
	<rect x="35.5" y="20.1" transform="matrix(0.8132 -0.582 0.582 0.8132 -4.2621 30.3512)" class="st3" width="19.3" height="3.5"/>
	<line class="st4" x1="39.4" y1="26" x2="48" y2="19.8"/>
	<polyline class="st5" points="36.3,26 33.6,30.1 38.3,28.8 	"/>
	<line class="st6" x1="35" y1="28.1" x2="35.8" y2="29.3"/>
	<line class="st7" x1="38" y1="5.4" x2="38" y2="9.9"/>
</g>
</svg>
