<?xml version="1.0" encoding="utf-8"?>
<!-- Generator: Adobe Illustrator 19.2.1, SVG Export Plug-In . SVG Version: 6.00 Build 0)  -->
<svg version="1.1" id="Layer_1" xmlns="http://www.w3.org/2000/svg" xmlns:xlink="http://www.w3.org/1999/xlink" x="0px" y="0px"
	 viewBox="0 0 137 130.6" style="enable-background:new 0 0 137 130.6;" xml:space="preserve">
<style type="text/css">
	.st0{fill:#FFFFFF;}
</style>
<title>logo_arq</title>
<polygon class="st0" points="37.8,9.3 0,9.3 0,20.8 34.2,20.8 "/>
<polygon class="st0" points="32.8,25.4 0,25.4 0,77.4 16.5,77.4 17.2,75.2 17.2,36.7 29.2,36.7 "/>
<polygon class="st0" points="15.6,80.4 13.4,87.4 0,87.4 0,80.4 "/>
<path class="st0" d="M78.4,121.2c0.3,0,0.6-0.1,0.8-0.2c0.3-0.2,0.6-0.4,0.7-0.7c0.3-0.5,0.5-1,0.6-1.5c0.2-0.5,0.3-1.1,0.3-1.6
	c0-0.4-0.1-0.7-0.3-1c-0.2-0.3-0.4-0.5-0.7-0.6c-0.4-0.2-0.9-0.4-1.4-0.5l-0.8-0.2c-0.6,1.9-1.1,3.8-1.7,5.8l1.3,0.4
	C77.7,121.1,78,121.1,78.4,121.2z"/>
<path class="st0" d="M126.8,37.7c-0.3-0.1-0.6-0.1-0.8,0c-0.2,0.1-0.4,0.3-0.6,0.6c-0.2,0.4-0.4,0.9-0.5,1.4c-0.1,0.5-0.3,1-0.4,1.4
	l2.4,0.7c0.1-0.5,0.3-0.9,0.4-1.4c0.2-0.6,0.3-1.1,0.4-1.7c0-0.2-0.1-0.5-0.2-0.6C127.3,37.9,127,37.8,126.8,37.7z"/>
<path class="st0" d="M103.6,112.7c-0.3-0.1-0.6-0.1-0.8,0c-0.2,0.1-0.4,0.3-0.6,0.6c-0.2,0.4-0.4,0.9-0.5,1.4
	c-0.1,0.5-0.3,1-0.4,1.4l2.4,0.7l0.4-1.4c0.2-0.6,0.3-1.1,0.4-1.7c0-0.2-0.1-0.5-0.2-0.6C104.1,112.9,103.9,112.8,103.6,112.7z"/>
<path class="st0" d="M113,105.6l0.3-1l-0.3,0.3C113,105.1,113,105.3,113,105.6z"/>
<path class="st0" d="M109.4,106c0.4-0.5,0.9-1,1.4-1.4c-0.2-0.4-0.5-0.7-0.9-0.9c-0.4-0.3-0.9-0.5-1.3-0.6c-0.8-0.3-1.7-0.3-2.6,0
	c-0.7,0.3-1.2,0.9-1.4,1.6c-0.2,0.7-0.1,1.5,0.2,2.1c0.5,0.7,1.3,1.2,2.1,1.4c0.8,0.3,1.8,0.4,2.6,0.1c0.7-0.3,1.2-0.8,1.4-1.5
	c0.1-0.3,0.1-0.5,0.1-0.8c-0.3,0.3-0.6,0.6-0.9,1L109.4,106z"/>
<polygon class="st0" points="102.6,126.1 103.4,123.7 99.6,123.8 "/>
<path class="st0" d="M129.4,40.6c-0.2,0.1-0.4,0.2-0.6,0.4c-0.2,0.3-0.3,0.6-0.4,0.9l-0.1,0.4l3.8,1.2l1.3-4.1L131,40
	C130.5,40.2,129.9,40.3,129.4,40.6z"/>
<polygon class="st0" points="131.6,32.5 132.3,30.1 128.5,30.3 "/>
<polygon class="st0" points="26.6,105.7 25.3,107.5 24,107.1 30.1,108.8 29.9,106.6 "/>
<polygon class="st0" points="68.4,116.2 70.6,116.8 70.4,113.3 "/>
<polygon class="st0" points="134,30 132.9,33.6 134.8,35 136.4,29.9 "/>
<path class="st0" d="M126.7,28.6l10.3-0.7L76.7,10.4l0,0v10.4H34.1l3.6-11.5h35.1L40.6,0L15.6,80.4h63.2l19.7,21H80.3l-6.6-13.9
	H13.4l1.6-5.2l-6.4,20.4l14.8,4.3l5.7-7.7l2,0.6l0.8,9.6l-1.9-0.5l5.4,1.6c-0.6-0.4-1.1-0.9-1.4-1.5c-0.5-1.1-0.6-2.4-0.2-3.6
	c0.3-1.3,1-2.3,2.1-3.1c1.9-1,4.3-0.5,5.6,1.3c0.3,0.6,0.4,1.2,0.4,1.9h-1.8c0-0.4-0.1-0.9-0.3-1.3c-0.3-0.3-0.7-0.6-1.1-0.7
	c-0.6-0.2-1.3-0.1-1.8,0.2c-0.6,0.5-1.1,1.3-1.2,2.1c-0.3,0.8-0.3,1.7-0.1,2.5c0.3,0.6,0.8,1,1.4,1.1c0.4,0.1,0.9,0.1,1.4-0.1
	c0.5-0.3,0.9-0.7,1.2-1.2l1.5,1c-0.4,0.8-1.1,1.4-1.9,1.7c-0.4,0.2-0.8,0.2-1.2,0.2l5.8,1.7l-0.3-0.3c-0.3-0.3-0.6-0.6-0.8-1.1
	c-0.1-0.4-0.2-0.7-0.2-1.1c0.1-0.8,0.2-1.5,0.5-2.2l1.3-4.6l1.8,0.5l-1.4,4.7c-0.2,0.5-0.3,1-0.4,1.5c0,0.4,0.1,0.7,0.3,1
	c0.3,0.3,0.6,0.6,1,0.6c0.4,0.2,0.8,0.2,1.2,0c0.3-0.1,0.6-0.3,0.7-0.6c0.2-0.5,0.3-0.9,0.5-1.4l1.4-4.8l1.8,0.5
	c-0.4,1.5-0.9,3-1.3,4.6c-0.2,0.7-0.5,1.5-0.8,2.2c-0.2,0.4-0.5,0.7-0.8,0.9c-0.4,0.2-0.8,0.4-1.2,0.4h-0.4l13.1,3.8l2.1-7.2
	l-2.5-0.7l0.4-1.4l6.8,2l-0.4,1.4l-2.5-0.7l-2.1,7.2l9.6,2.8h-0.2l-0.2-2.2l-3.3-1l-1.3,1.7l-1.9-0.5l5.7-7.7l2,0.6l0.8,9.6l1,0.3
	l2.5-8.6l3.2,0.9c0.6,0.1,1.1,0.4,1.6,0.6c0.5,0.3,0.8,0.7,1.1,1.2c0.3,0.5,0.4,1.1,0.5,1.6c0,0.7-0.1,1.4-0.3,2.1
	c-0.2,0.6-0.4,1.2-0.8,1.8c-0.4,0.5-0.8,1-1.4,1.3c-0.5,0.2-0.9,0.3-1.4,0.3c-0.5,0-1.1-0.1-1.6-0.3l-1.7-0.5l29.9,8.6l-8.2-6.2
	l0.7-2.2l10.3-0.7l-0.6,2l-2.3,0.1l-1.1,3.6l1.9,1.4l-0.6,2l3.3-10.7l-0.2,0.5l-9.2-2.9c0.4-1.3,0.8-2.6,1.2-3.9
	c0.2-0.7,0.5-1.4,0.9-2.1c0.3-0.4,0.8-0.7,1.2-0.8c1.2-0.3,2.4,0.2,3.1,1.1c0.3,0.6,0.5,1.4,0.3,2.1c0.3-0.3,0.7-0.6,1.1-0.7
	c0.6-0.3,1.2-0.5,1.8-0.6l2.1-0.5c-0.2,0.8-0.4,1.5-0.7,2.2l-2.4,0.7c-0.6,0.1-1.1,0.3-1.6,0.6c-0.2,0.1-0.4,0.2-0.6,0.4
	c-0.2,0.3-0.3,0.6-0.4,0.9c0,0.1-0.1,0.3-0.1,0.4l3.8,1.2l3.1-10.1c-0.4,0.7-1,1.2-1.7,1.6c-1.2,0.6-2.6,0.6-3.9,0.1
	c-1.3-0.3-2.5-1.2-3.2-2.3c-0.6-1.1-0.7-2.4-0.3-3.6c0.3-1.2,1.1-2.3,2.3-2.8c1.2-0.6,2.6-0.6,3.9-0.1c0.7,0.2,1.4,0.5,2,1
	c0.5,0.3,0.8,0.8,1.1,1.2c0.4-0.4,0.9-0.8,1.2-1.3l0.4,0.4l1.1-3.5c-0.1,0.1-0.1,0.2-0.2,0.3c-0.3,0.4-0.7,0.7-1.1,0.8
	c-0.4,0.1-0.8,0.2-1.2,0.2c-0.8-0.1-1.6-0.3-2.4-0.6l-5-1.5l0.6-1.9l5,1.6c0.5,0.2,1,0.3,1.6,0.4c0.4,0,0.8-0.1,1.1-0.3
	c0.4-0.3,0.6-0.7,0.7-1.1c0.2-0.4,0.2-0.9,0-1.3c-0.1-0.3-0.3-0.6-0.6-0.8c-0.5-0.2-1-0.4-1.5-0.5l-5.2-1.6c0.2-0.6,0.4-1.3,0.6-1.9
	l4.9,1.5c0.8,0.2,1.6,0.5,2.3,0.9c0.4,0.2,0.8,0.5,1,0.9c0.3,0.4,0.4,0.9,0.4,1.3c0,0.1,0,0.3,0,0.4l1.2-4L108,89l0.6-1.9l9.2,2.8
	l-0.3,0.9l1.4-4.6l-7.7-2.4l-0.8,2.7l-1.6-0.5l2.3-7.3l1.6,0.5l-0.8,2.7l7.7,2.4l1.2-3.9l-9.2-2.8l2.1-6.8l1.5,0.5l-1.5,4.9l2.1,0.6
	l1.4-4.6l1.6,0.5l-1.4,4.6l2.5,0.8l1.6-5.1l1.6,0.5l1.3-4.2c-0.4,0.6-1,1.2-1.6,1.5c-1.2,0.5-2.6,0.6-3.8,0.1
	c-1.3-0.3-2.5-1.2-3.2-2.3c-1.1-2.1-0.4-4.7,1.5-6c0.6-0.3,1.3-0.4,2-0.4c0,0.6-0.1,1.3-0.1,1.9c-0.5,0-1,0.1-1.4,0.3
	c-0.4,0.3-0.7,0.7-0.8,1.2c-0.2,0.7-0.2,1.4,0.2,2c0.6,0.7,1.3,1.2,2.2,1.4c0.8,0.3,1.8,0.4,2.7,0.1c0.6-0.3,1.1-0.8,1.2-1.5
	c0.2-0.5,0.2-1,0-1.5c-0.3-0.5-0.7-1-1.2-1.3l1.1-1.6c0.8,0.5,1.5,1.2,1.8,2.1c0.2,0.4,0.2,0.8,0.2,1.2l1.9-6.1l-7.7-2.4l-0.8,2.7
	l-1.6-0.5l2.3-7.3l1.6,0.5l-0.8,2.7l7.7,2.4l1.9-6c-0.1,0.1-0.1,0.2-0.2,0.3c-0.3,0.4-0.7,0.6-1.1,0.8c-0.4,0.1-0.8,0.2-1.2,0.2
	c-0.8-0.1-1.6-0.3-2.4-0.6l-4.9-1.5l0.6-1.9l5,1.6c0.5,0.2,1,0.3,1.6,0.4c0.4,0,0.8-0.1,1.1-0.3c0.4-0.3,0.6-0.7,0.7-1.1
	c0.2-0.4,0.2-0.9,0-1.3c-0.1-0.3-0.3-0.6-0.6-0.8c-0.5-0.2-1-0.4-1.5-0.5l-5.1-1.6c0.2-0.6,0.4-1.3,0.6-1.9l4.9,1.5
	c0.8,0.2,1.6,0.5,2.3,0.9c0.4,0.2,0.8,0.5,1,0.9c0.3,0.4,0.4,0.9,0.4,1.3c0,0.1,0,0.2,0,0.4l1.3-4.1l-9.2-2.8l1.2-3.9
	c0.2-0.7,0.5-1.4,0.9-2c0.3-0.4,0.8-0.7,1.3-0.8c1.2-0.3,2.4,0.2,3.1,1.2c0.3,0.6,0.5,1.4,0.3,2.1c0.3-0.3,0.7-0.6,1.1-0.7
	c0.6-0.3,1.2-0.5,1.8-0.6l2.1-0.5V37l-8.2-6.2L126.7,28.6z M54.5,36.7H29.2l3.5-11.3h21.8V36.7z M24.9,99.6l-4.1-1.2l-0.6,2.1l3.6,1
	l-0.4,1.5l-3.6-1l-1.1,3.7l-1.8-0.5l2.5-8.7l5.9,1.7L24.9,99.6z M56.5,116.5l-6.1-1.8l2.5-8.6l1.8,0.5l-2,7.1l4.4,1.3L56.5,116.5z"
	/>
<polygon class="st0" points="27.5,104.4 29.8,105 29.6,101.5 "/>
</svg>
