<svg id="Capa_1" data-name="Capa 1" xmlns="http://www.w3.org/2000/svg" viewBox="0 0 105.26 97.61"><defs><style>.cls-1{fill:#fff;}</style></defs><title>logo_cuaed</title><circle class="cls-1" cx="53.6" cy="15.35" r="0.84"/><path class="cls-1" d="M51.91,45.74A14.38,14.38,0,0,1,37.73,33.62l-3.78-.08a18.1,18.1,0,0,0,18,15.94V45.74Zm0-32.45A18.1,18.1,0,0,0,34,28.89h3.78A14.38,14.38,0,0,1,51.91,17V13.29Z"/><circle class="cls-1" cx="36.1" cy="31.51" r="0.84"/><circle class="cls-1" cx="53.6" cy="48.31" r="0.84"/><path class="cls-1" d="M51.91,19.92A11.44,11.44,0,0,1,63.2,29.57l3,0.06A14.39,14.39,0,0,0,51.91,17v3Zm0,25.81A14.39,14.39,0,0,0,66.17,33.33h-3a11.44,11.44,0,0,1-11.25,9.43v3Z"/><circle class="cls-1" cx="64.84" cy="31.51" r="0.96"/><path class="cls-1" d="M57.56,32.76l-1.06-.61a6.31,6.31,0,1,1,0-1.51L57.56,30,59.41,29a9.5,9.5,0,1,0,0,4.88Z"/><rect class="cls-1" x="50.08" y="31.37" width="14.63" height="0.27" transform="translate(-0.24 0.45) rotate(-0.45)"/><circle class="cls-1" cx="50.08" cy="31.39" r="2.16"/><path class="cls-1" d="M29.79,64.45a7.56,7.56,0,0,1-1.26,1.7,8.36,8.36,0,0,1-1.66,1.3,8.09,8.09,0,0,1-4.16,1.14A7.8,7.8,0,0,1,19.57,68a8.2,8.2,0,0,1-4.32-4.32,8,8,0,0,1,0-6.28A8.2,8.2,0,0,1,19.57,53a7.79,7.79,0,0,1,3.14-.64,8.09,8.09,0,0,1,4.16,1.14,8.36,8.36,0,0,1,1.66,1.3,7.79,7.79,0,0,1,1.26,1.68L27,57.65a6,6,0,0,0-.8-1,5.81,5.81,0,0,0-1-.79A5.17,5.17,0,0,0,24,55.36a4.31,4.31,0,0,0-1.28-.19,4.63,4.63,0,0,0-2,.44,5.3,5.3,0,0,0-1.61,1.16A5.6,5.6,0,0,0,18,58.47a5.25,5.25,0,0,0,0,4.05,5.63,5.63,0,0,0,1.09,1.69,5.28,5.28,0,0,0,1.61,1.17,4.63,4.63,0,0,0,2,.44A4.31,4.31,0,0,0,24,65.62a5.16,5.16,0,0,0,1.18-.53,5.53,5.53,0,0,0,1-.8,6.37,6.37,0,0,0,.8-1Z"/><path class="cls-1" d="M37.32,68.57a7.72,7.72,0,0,1-2.76-.47,6.06,6.06,0,0,1-2.12-1.33,5.85,5.85,0,0,1-1.36-2.07A7.33,7.33,0,0,1,30.6,62V52.67h3V62A4.32,4.32,0,0,0,34,63.91a3.53,3.53,0,0,0,1,1.22,3.29,3.29,0,0,0,1.22.62,4.06,4.06,0,0,0,2.33,0,3.3,3.3,0,0,0,1.22-.62,3.53,3.53,0,0,0,1-1.22A4.32,4.32,0,0,0,41,62v-9.3h3V62a7.48,7.48,0,0,1-.47,2.71,5.74,5.74,0,0,1-1.35,2.07,6.07,6.07,0,0,1-2.12,1.33A7.79,7.79,0,0,1,37.32,68.57Z"/><path class="cls-1" d="M42.87,68.29l8-15.62h0.3l8,15.62H55.91l-1.22-2.46H47.31l-1.2,2.46H42.87Zm5.9-5.07h4.47L51,58.5Z"/><path class="cls-1" d="M62.5,55.3v3.91h7.57v2.71H62.5V65.6H71v2.69H59.5V52.65H71V55.3H62.5Z"/><path class="cls-1" d="M77.78,68.29H71.61V52.65h6.17a7.86,7.86,0,0,1,5.51,2A6.71,6.71,0,0,1,85,57.15a9.76,9.76,0,0,1,0,6.67,6.7,6.7,0,0,1-1.74,2.53,7,7,0,0,1-2.44,1.45A9.16,9.16,0,0,1,77.78,68.29ZM74.6,65.64h3.18a7.68,7.68,0,0,0,1.69-.19A3.72,3.72,0,0,0,81,64.69a4.18,4.18,0,0,0,1.14-1.57,6.51,6.51,0,0,0,.45-2.63,6.59,6.59,0,0,0-.45-2.64A4,4,0,0,0,81,56.28a3.87,3.87,0,0,0-1.56-.75,7.58,7.58,0,0,0-1.67-.19H74.6v10.3Z"/><path class="cls-1" d="M87.56,67.39h2c0.58,0,.88-0.22.88-0.61s-0.28-.62-0.88-0.62h-2V65.39h1.9A1.33,1.33,0,0,1,91,66.8a1.3,1.3,0,0,1-1.56,1.36H87.56V67.39Z"/><path class="cls-1" d="M91,64.14H87.56v-0.9l1.24-.7A9.82,9.82,0,0,1,90,62v0a12.58,12.58,0,0,1-1.41.07h-1v-0.7H91v0.81l-1.31.72a12.61,12.61,0,0,1-1.2.59v0c0.45,0,.93,0,1.48,0h1v0.7Z"/><path class="cls-1" d="M90.08,59.2L91,59.44v0.8l-3.39-1v-1L91,57.14V58l-0.87.26v1Zm-0.57-.86-0.72.21-0.65.17h0l0.65,0.16,0.72,0.2V58.34Z"/><path class="cls-1" d="M89.66,53.58c-0.41,0-.9,0-1.39,0v0c0.43,0.11.92,0.25,1.31,0.38l1.32,0.41V55l-1.31.36c-0.4.11-.88,0.23-1.32,0.31h0l1.4,0.06L91,55.81v0.71l-3.39-.22v-1L88.69,55c0.39-.11.82-0.21,1.21-0.29v0c-0.39-.1-0.84-0.21-1.22-0.32L87.56,54V53L91,52.78v0.75Z"/><path class="cls-1" d="M16.89,75a1.91,1.91,0,0,1-.79.14,1.39,1.39,0,0,1-1.47-1.51,1.48,1.48,0,0,1,1.56-1.57,1.6,1.6,0,0,1,.71.13l-0.09.31a1.41,1.41,0,0,0-.6-0.12A1.11,1.11,0,0,0,15,73.61a1.08,1.08,0,0,0,1.15,1.2,1.54,1.54,0,0,0,.63-0.12Z"/><path class="cls-1" d="M19.25,74a1,1,0,0,1-1.07,1.14,1,1,0,0,1-1-1.1,1,1,0,0,1,1.06-1.14A1,1,0,0,1,19.25,74Zm-1.7,0a0.67,0.67,0,1,0,.66-0.83A0.73,0.73,0,0,0,17.55,74Z"/><path class="cls-1" d="M21.68,74a1,1,0,0,1-1.07,1.14,1,1,0,0,1-1-1.1,1,1,0,0,1,1.06-1.14A1,1,0,0,1,21.68,74ZM20,74a0.67,0.67,0,1,0,.66-0.83A0.73,0.73,0,0,0,20,74Z"/><path class="cls-1" d="M22.17,73.61c0-.25,0-0.47,0-0.67h0.34v0.42h0a0.64,0.64,0,0,1,.59-0.47h0.11v0.37H23.09a0.55,0.55,0,0,0-.52.5,1.1,1.1,0,0,0,0,.18v1.14H22.17V73.61Z"/><path class="cls-1" d="M25.42,71.94v2.59c0,0.19,0,.41,0,0.55H25.09l0-.37h0a0.79,0.79,0,0,1-.73.42A1,1,0,0,1,23.42,74a1,1,0,0,1,1-1.15,0.72,0.72,0,0,1,.65.33h0V71.94h0.39ZM25,73.82a0.69,0.69,0,0,0,0-.16,0.57,0.57,0,0,0-.56-0.45,0.71,0.71,0,0,0-.64.83,0.68,0.68,0,0,0,.63.79A0.59,0.59,0,0,0,25,74.36a0.68,0.68,0,0,0,0-.17V73.82Z"/><path class="cls-1" d="M26.5,72.34a0.24,0.24,0,0,1-.48,0,0.24,0.24,0,0,1,.24-0.24A0.23,0.23,0,0,1,26.5,72.34Zm-0.43,2.74V72.94h0.39v2.14H26.07Z"/><path class="cls-1" d="M27.1,73.52c0-.22,0-0.4,0-0.58h0.35l0,0.35h0a0.79,0.79,0,0,1,.71-0.4,0.78,0.78,0,0,1,.76.91v1.28H28.54V73.85a0.52,0.52,0,0,0-.5-0.63,0.55,0.55,0,0,0-.52.4,0.56,0.56,0,0,0,0,.18v1.29H27.1V73.52Z"/><path class="cls-1" d="M30.74,75.09l0-.27h0a0.8,0.8,0,0,1-.65.32,0.61,0.61,0,0,1-.65-0.62c0-.52.46-0.8,1.29-0.8v0a0.44,0.44,0,0,0-.49-0.5,1.07,1.07,0,0,0-.56.16l-0.09-.26a1.33,1.33,0,0,1,.7-0.19,0.76,0.76,0,0,1,.81.88v0.8a3,3,0,0,0,0,.51H30.74ZM30.69,74c-0.42,0-.91.07-0.91,0.48a0.34,0.34,0,0,0,.37.37,0.53,0.53,0,0,0,.52-0.36,0.4,0.4,0,0,0,0-.12V74Z"/><path class="cls-1" d="M33.22,75a1.44,1.44,0,0,1-.61.12A1,1,0,0,1,31.54,74a1.09,1.09,0,0,1,1.15-1.14,1.3,1.3,0,0,1,.54.11l-0.09.3a0.9,0.9,0,0,0-.45-0.1,0.81,0.81,0,0,0,0,1.61,1.11,1.11,0,0,0,.48-0.11Z"/><path class="cls-1" d="M34.11,72.34a0.24,0.24,0,0,1-.48,0,0.24,0.24,0,0,1,.24-0.24A0.23,0.23,0,0,1,34.11,72.34Zm-0.43,2.74V72.94h0.39v2.14H33.67Z"/><path class="cls-1" d="M36.65,74a1,1,0,0,1-1.07,1.14,1,1,0,0,1-1-1.1,1,1,0,0,1,1.06-1.14A1,1,0,0,1,36.65,74Zm-1.7,0a0.67,0.67,0,1,0,.66-0.83A0.73,0.73,0,0,0,34.95,74Zm1.23-2-0.54.63H35.37L35.75,72h0.43Z"/><path class="cls-1" d="M37.14,73.52c0-.22,0-0.4,0-0.58h0.35l0,0.35h0a0.79,0.79,0,0,1,.71-0.4,0.78,0.78,0,0,1,.76.91v1.28H38.57V73.85a0.52,0.52,0,0,0-.5-0.63,0.55,0.55,0,0,0-.52.4,0.56,0.56,0,0,0,0,.18v1.29H37.14V73.52Z"/><path class="cls-1" d="M42.38,71.94v2.59c0,0.19,0,.41,0,0.55H42.05l0-.37h0a0.79,0.79,0,0,1-.73.42A1,1,0,0,1,40.38,74a1,1,0,0,1,1-1.15,0.72,0.72,0,0,1,.65.33h0V71.94h0.39ZM42,73.82a0.69,0.69,0,0,0,0-.16,0.57,0.57,0,0,0-.56-0.45,0.71,0.71,0,0,0-.64.83,0.68,0.68,0,0,0,.63.79A0.59,0.59,0,0,0,42,74.36a0.68,0.68,0,0,0,0-.17V73.82Z"/><path class="cls-1" d="M43.25,74.09a0.69,0.69,0,0,0,.73.74,1.41,1.41,0,0,0,.59-0.11L44.64,75a1.74,1.74,0,0,1-.71.13A1,1,0,0,1,42.88,74a1,1,0,0,1,1-1.15,0.91,0.91,0,0,1,.88,1,1.47,1.47,0,0,1,0,.18h-1.5Zm1.14-.28a0.55,0.55,0,0,0-.54-0.63,0.65,0.65,0,0,0-.6.63h1.14Z"/><path class="cls-1" d="M46.58,72.1v1.77a0.74,0.74,0,1,0,1.42,0V72.1h0.39v1.74a1.1,1.1,0,0,1-1.13,1.29,1.06,1.06,0,0,1-1.07-1.27V72.1h0.39Z"/><path class="cls-1" d="M49,73.52c0-.22,0-0.4,0-0.58h0.35l0,0.35h0a0.79,0.79,0,0,1,.71-0.4,0.78,0.78,0,0,1,.76.91v1.28H50.48V73.85a0.52,0.52,0,0,0-.5-0.63,0.55,0.55,0,0,0-.52.4,0.56,0.56,0,0,0,0,.18v1.29H49V73.52Z"/><path class="cls-1" d="M51.94,72.34a0.24,0.24,0,0,1-.48,0,0.24,0.24,0,0,1,.24-0.24A0.23,0.23,0,0,1,51.94,72.34Zm-0.43,2.74V72.94H51.9v2.14H51.51Z"/><path class="cls-1" d="M52.69,72.94l0.42,1.2a5.48,5.48,0,0,1,.17.55h0c0-.18.11-0.35,0.18-0.55l0.42-1.2H54.3l-0.84,2.14H53.09l-0.81-2.14h0.42Z"/><path class="cls-1" d="M54.84,74.09a0.69,0.69,0,0,0,.73.74,1.41,1.41,0,0,0,.59-0.11L56.24,75a1.74,1.74,0,0,1-.71.13A1,1,0,0,1,54.47,74a1,1,0,0,1,1-1.15,0.91,0.91,0,0,1,.88,1,1.47,1.47,0,0,1,0,.18h-1.5ZM56,73.81a0.55,0.55,0,0,0-.54-0.63,0.65,0.65,0,0,0-.6.63H56Z"/><path class="cls-1" d="M56.84,73.61c0-.25,0-0.47,0-0.67h0.34v0.42h0a0.64,0.64,0,0,1,.59-0.47H57.9v0.37H57.77a0.55,0.55,0,0,0-.52.5,1.1,1.1,0,0,0,0,.18v1.14H56.84V73.61Z"/><path class="cls-1" d="M58.24,74.69a1,1,0,0,0,.51.15,0.35,0.35,0,0,0,.42-0.32,0.44,0.44,0,0,0-.4-0.39,0.69,0.69,0,0,1-.57-0.61,0.66,0.66,0,0,1,.74-0.63,1.07,1.07,0,0,1,.53.13l-0.1.28a0.83,0.83,0,0,0-.44-0.12,0.31,0.31,0,0,0-.36.29c0,0.18.13,0.26,0.41,0.36a0.66,0.66,0,1,1-.24,1.29,1.22,1.22,0,0,1-.6-0.15Z"/><path class="cls-1" d="M60.48,72.34a0.24,0.24,0,0,1-.48,0,0.24,0.24,0,0,1,.24-0.24A0.23,0.23,0,0,1,60.48,72.34ZM60,75.09V72.94h0.39v2.14H60Z"/><path class="cls-1" d="M62.93,71.94v2.59c0,0.19,0,.41,0,0.55H62.6l0-.37h0a0.79,0.79,0,0,1-.73.42A1,1,0,0,1,60.92,74a1,1,0,0,1,1-1.15,0.72,0.72,0,0,1,.65.33h0V71.94h0.39Zm-0.39,1.87a0.69,0.69,0,0,0,0-.16A0.57,0.57,0,0,0,62,73.2a0.71,0.71,0,0,0-.64.83,0.68,0.68,0,0,0,.63.79,0.59,0.59,0,0,0,.57-0.46,0.68,0.68,0,0,0,0-.17V73.82Z"/><path class="cls-1" d="M64.76,75.09l0-.27h0a0.8,0.8,0,0,1-.65.32,0.61,0.61,0,0,1-.65-0.62c0-.52.46-0.8,1.29-0.8v0a0.44,0.44,0,0,0-.49-0.5,1.07,1.07,0,0,0-.56.16l-0.09-.26a1.33,1.33,0,0,1,.7-0.19,0.76,0.76,0,0,1,.81.88v0.8a3,3,0,0,0,0,.51H64.76ZM64.7,74c-0.42,0-.91.07-0.91,0.48a0.34,0.34,0,0,0,.37.37,0.53,0.53,0,0,0,.52-0.36,0.4,0.4,0,0,0,0-.12V74Z"/><path class="cls-1" d="M67.56,71.94v2.59c0,0.19,0,.41,0,0.55H67.23l0-.37h0a0.79,0.79,0,0,1-.73.42A1,1,0,0,1,65.55,74a1,1,0,0,1,1-1.15,0.72,0.72,0,0,1,.65.33h0V71.94h0.39Zm-0.39,1.87a0.69,0.69,0,0,0,0-.16,0.57,0.57,0,0,0-.56-0.45,0.71,0.71,0,0,0-.64.83,0.68,0.68,0,0,0,.63.79,0.59,0.59,0,0,0,.57-0.46,0.68,0.68,0,0,0,0-.17V73.82Z"/><path class="cls-1" d="M69.64,74.15l-0.31.94h-0.4l1-3h0.46l1,3H71l-0.32-.94H69.64Zm1-.3L70.32,73c-0.07-.19-0.11-0.37-0.15-0.54h0c0,0.18-.09.36-0.15,0.54l-0.29.86h0.9Z"/><path class="cls-1" d="M71.82,75.09c0-.15,0-0.36,0-0.55V71.94h0.39v1.35h0A0.8,0.8,0,0,1,73,72.89a1,1,0,0,1,.9,1.09,1,1,0,0,1-1,1.15,0.76,0.76,0,0,1-.72-0.4h0l0,0.35H71.82Zm0.4-.86a0.73,0.73,0,0,0,0,.14,0.6,0.6,0,0,0,.58.46,0.83,0.83,0,0,0,0-1.62,0.62,0.62,0,0,0-.59.48,0.77,0.77,0,0,0,0,.16v0.38Z"/><path class="cls-1" d="M74.79,72.34a0.24,0.24,0,0,1-.48,0,0.24,0.24,0,0,1,.24-0.24A0.23,0.23,0,0,1,74.79,72.34Zm-0.43,2.74V72.94h0.39v2.14H74.36Z"/><path class="cls-1" d="M75.61,74.09a0.69,0.69,0,0,0,.73.74,1.41,1.41,0,0,0,.59-0.11L77,75a1.74,1.74,0,0,1-.71.13A1,1,0,0,1,75.24,74a1,1,0,0,1,1-1.15,0.91,0.91,0,0,1,.88,1,1.47,1.47,0,0,1,0,.18h-1.5Zm1.14-.28a0.55,0.55,0,0,0-.54-0.63,0.65,0.65,0,0,0-.6.63h1.14Z"/><path class="cls-1" d="M77.61,73.61c0-.25,0-0.47,0-0.67h0.34v0.42h0a0.64,0.64,0,0,1,.59-0.47h0.11v0.37H78.53a0.55,0.55,0,0,0-.52.5,1.1,1.1,0,0,0,0,.18v1.14H77.61V73.61Z"/><path class="cls-1" d="M79.63,72.33v0.62h0.56v0.3H79.63v1.15c0,0.27.08,0.42,0.29,0.42a0.86,0.86,0,0,0,.23,0l0,0.29a1,1,0,0,1-.34.05A0.54,0.54,0,0,1,79.4,75a0.79,0.79,0,0,1-.15-0.56V73.24H78.92v-0.3h0.33V72.43Z"/><path class="cls-1" d="M81.81,75.09l0-.27h0a0.8,0.8,0,0,1-.65.32,0.61,0.61,0,0,1-.65-0.62c0-.52.46-0.8,1.29-0.8v0a0.44,0.44,0,0,0-.49-0.5,1.07,1.07,0,0,0-.56.16l-0.09-.26a1.33,1.33,0,0,1,.7-0.19,0.76,0.76,0,0,1,.81.88v0.8a3,3,0,0,0,0,.51H81.81ZM81.76,74c-0.42,0-.91.07-0.91,0.48a0.34,0.34,0,0,0,.37.37,0.53,0.53,0,0,0,.52-0.36,0.4,0.4,0,0,0,0-.12V74Z"/><path class="cls-1" d="M83.84,72.94l0.47,1.27c0,0.14.1,0.31,0.14,0.44h0c0-.13.08-0.29,0.14-0.45L85,72.94h0.41l-0.58,1.53a3.26,3.26,0,0,1-.73,1.34,1.06,1.06,0,0,1-.48.25l-0.1-.33a1,1,0,0,0,.34-0.19,1.18,1.18,0,0,0,.33-0.43,0.28,0.28,0,0,0,0-.09,0.34,0.34,0,0,0,0-.1l-0.79-2h0.42Z"/><path class="cls-1" d="M31.84,79H30.68v1.08H32V80.4H30.3v-3h1.61v0.32H30.68v0.94h1.16V79Z"/><path class="cls-1" d="M34.29,77.25v2.59c0,0.19,0,.41,0,0.55H34l0-.37h0a0.79,0.79,0,0,1-.73.42,1,1,0,0,1-.92-1.09,1,1,0,0,1,1-1.15,0.72,0.72,0,0,1,.65.33h0V77.25h0.39ZM33.9,79.13a0.69,0.69,0,0,0,0-.16,0.57,0.57,0,0,0-.56-0.45,0.71,0.71,0,0,0-.64.83,0.68,0.68,0,0,0,.63.79,0.59,0.59,0,0,0,.57-0.46,0.68,0.68,0,0,0,0-.17V79.13Z"/><path class="cls-1" d="M36.73,79.81c0,0.22,0,.42,0,0.58H36.41l0-.35h0a0.81,0.81,0,0,1-.71.4,0.76,0.76,0,0,1-.74-0.94V78.25h0.39v1.19c0,0.41.12,0.68,0.48,0.68a0.55,0.55,0,0,0,.55-0.55V78.25h0.39v1.56Z"/><path class="cls-1" d="M38.91,80.32a1.44,1.44,0,0,1-.61.12,1,1,0,0,1-1.07-1.09,1.09,1.09,0,0,1,1.15-1.14,1.3,1.3,0,0,1,.54.11l-0.09.3a0.9,0.9,0,0,0-.45-0.1,0.81,0.81,0,0,0,0,1.61A1.11,1.11,0,0,0,38.84,80Z"/><path class="cls-1" d="M40.55,80.4l0-.27h0a0.8,0.8,0,0,1-.65.32,0.61,0.61,0,0,1-.65-0.62c0-.52.46-0.8,1.29-0.8v0a0.44,0.44,0,0,0-.49-0.5,1.07,1.07,0,0,0-.56.16l-0.09-.26a1.33,1.33,0,0,1,.7-0.19,0.76,0.76,0,0,1,.81.88v0.8a3,3,0,0,0,0,.51H40.55ZM40.49,79.3c-0.42,0-.91.07-0.91,0.48a0.34,0.34,0,0,0,.37.37,0.53,0.53,0,0,0,.52-0.36,0.4,0.4,0,0,0,0-.12V79.3Z"/><path class="cls-1" d="M43,80.32a1.44,1.44,0,0,1-.61.12,1,1,0,0,1-1.07-1.09,1.09,1.09,0,0,1,1.15-1.14,1.3,1.3,0,0,1,.54.11l-0.09.3a0.9,0.9,0,0,0-.45-0.1,0.81,0.81,0,0,0,0,1.61A1.11,1.11,0,0,0,43,80Z"/><path class="cls-1" d="M43.91,77.65a0.24,0.24,0,0,1-.48,0,0.24,0.24,0,0,1,.24-0.24A0.23,0.23,0,0,1,43.91,77.65ZM43.48,80.4V78.25h0.39V80.4H43.48Z"/><path class="cls-1" d="M46.45,79.31a1,1,0,0,1-1.07,1.14,1,1,0,0,1-1-1.1,1,1,0,0,1,1.06-1.14A1,1,0,0,1,46.45,79.31Zm-1.7,0a0.67,0.67,0,1,0,.66-0.83A0.73,0.73,0,0,0,44.75,79.33Zm1.23-2L45.45,78H45.17l0.39-.63H46Z"/><path class="cls-1" d="M46.94,78.83c0-.22,0-0.4,0-0.58h0.35l0,0.35h0a0.79,0.79,0,0,1,.71-0.4,0.78,0.78,0,0,1,.76.91V80.4H48.38V79.16a0.52,0.52,0,0,0-.5-0.63,0.55,0.55,0,0,0-.52.4,0.56,0.56,0,0,0,0,.18V80.4H46.94V78.83Z"/><path class="cls-1" d="M51.52,80.4l0-.27h0a0.8,0.8,0,0,1-.65.32,0.61,0.61,0,0,1-.65-0.62c0-.52.46-0.8,1.29-0.8v0a0.44,0.44,0,0,0-.49-0.5,1.07,1.07,0,0,0-.56.16l-0.09-.26a1.33,1.33,0,0,1,.7-0.19,0.76,0.76,0,0,1,.81.88v0.8a3,3,0,0,0,0,.51H51.52ZM51.47,79.3c-0.42,0-.91.07-0.91,0.48a0.34,0.34,0,0,0,.37.37,0.53,0.53,0,0,0,.52-0.36,0.4,0.4,0,0,0,0-.12V79.3Z"/><path class="cls-1" d="M53.42,77.45a5.51,5.51,0,0,1,.82-0.06,1.71,1.71,0,0,1,1.21.37,1.37,1.37,0,0,1,.42,1.07A1.58,1.58,0,0,1,55.44,80a1.84,1.84,0,0,1-1.32.43,6.21,6.21,0,0,1-.7,0V77.45Zm0.38,2.64a2.43,2.43,0,0,0,.39,0,1.15,1.15,0,0,0,1.27-1.27,1.06,1.06,0,0,0-1.21-1.15,2.19,2.19,0,0,0-.45,0v2.35Z"/><path class="cls-1" d="M56.79,77.65a0.24,0.24,0,0,1-.48,0,0.24,0.24,0,0,1,.24-0.24A0.23,0.23,0,0,1,56.79,77.65ZM56.36,80.4V78.25h0.39V80.4H56.36Z"/><path class="cls-1" d="M57.34,80a1,1,0,0,0,.51.15,0.35,0.35,0,0,0,.42-0.32,0.44,0.44,0,0,0-.4-0.39,0.69,0.69,0,0,1-.57-0.61A0.66,0.66,0,0,1,58,78.21a1.07,1.07,0,0,1,.53.13l-0.1.28A0.83,0.83,0,0,0,58,78.5a0.31,0.31,0,0,0-.36.29c0,0.18.13,0.26,0.41,0.36a0.66,0.66,0,1,1-.24,1.29,1.22,1.22,0,0,1-.6-0.15Z"/><path class="cls-1" d="M59.61,77.64v0.62h0.56v0.3H59.61v1.15c0,0.27.08,0.42,0.29,0.42a0.86,0.86,0,0,0,.23,0l0,0.29a1,1,0,0,1-.34.05,0.54,0.54,0,0,1-.42-0.16,0.79,0.79,0,0,1-.15-0.56V78.55H58.9v-0.3h0.33V77.74Z"/><path class="cls-1" d="M61.8,80.4l0-.27h0a0.8,0.8,0,0,1-.65.32,0.61,0.61,0,0,1-.65-0.62c0-.52.46-0.8,1.29-0.8v0a0.44,0.44,0,0,0-.49-0.5,1.07,1.07,0,0,0-.56.16L60.6,78.4a1.33,1.33,0,0,1,.7-0.19,0.76,0.76,0,0,1,.81.88v0.8a3,3,0,0,0,0,.51H61.8ZM61.74,79.3c-0.42,0-.91.07-0.91,0.48a0.34,0.34,0,0,0,.37.37,0.53,0.53,0,0,0,.52-0.36,0.4,0.4,0,0,0,0-.12V79.3Z"/><path class="cls-1" d="M62.74,78.83c0-.22,0-0.4,0-0.58h0.35l0,0.35h0a0.79,0.79,0,0,1,.71-0.4,0.78,0.78,0,0,1,.76.91V80.4H64.18V79.16a0.52,0.52,0,0,0-.5-0.63,0.55,0.55,0,0,0-.52.4,0.56,0.56,0,0,0,0,.18V80.4H62.74V78.83Z"/><path class="cls-1" d="M66.73,80.32a1.44,1.44,0,0,1-.61.12A1,1,0,0,1,65,79.35a1.09,1.09,0,0,1,1.15-1.14,1.3,1.3,0,0,1,.54.11l-0.09.3a0.9,0.9,0,0,0-.45-0.1,0.81,0.81,0,0,0,0,1.61A1.11,1.11,0,0,0,66.66,80Z"/><path class="cls-1" d="M67.62,77.65a0.24,0.24,0,0,1-.48,0,0.24,0.24,0,0,1,.24-0.24A0.23,0.23,0,0,1,67.62,77.65ZM67.18,80.4V78.25h0.39V80.4H67.18Z"/><path class="cls-1" d="M69.4,80.4l0-.27h0a0.8,0.8,0,0,1-.65.32A0.61,0.61,0,0,1,68,79.83c0-.52.46-0.8,1.29-0.8v0a0.44,0.44,0,0,0-.49-0.5,1.07,1.07,0,0,0-.56.16L68.2,78.4a1.33,1.33,0,0,1,.7-0.19,0.76,0.76,0,0,1,.81.88v0.8a3,3,0,0,0,0,.51H69.4ZM69.35,79.3c-0.42,0-.91.07-0.91,0.48a0.34,0.34,0,0,0,.37.37,0.53,0.53,0,0,0,.52-0.36,0.4,0.4,0,0,0,0-.12V79.3Z"/></svg>