<?xml version="1.0" encoding="utf-8"?>
<!-- Generator: Adobe Illustrator 20.1.0, SVG Export Plug-In . SVG Version: 6.00 Build 0)  -->
<svg version="1.1" id="Layer_1" xmlns="http://www.w3.org/2000/svg" xmlns:xlink="http://www.w3.org/1999/xlink" x="0px" y="0px"
	 viewBox="0 0 98 33.2" style="enable-background:new 0 0 98 33.2;" xml:space="preserve">
<style type="text/css">
	.st0{fill:#FFFFFF;}
	.st1{fill:none;stroke:#FFFFFF;stroke-width:0.25;stroke-miterlimit:10;}
</style>
<circle class="st0" cx="16.5" cy="3.2" r="0.7"/>
<path class="st0" d="M15.1,28.5c-6,0-10.9-4.4-11.8-10.1l-3.1-0.1c0.9,7.5,7.2,13.3,15,13.3V28.5z M15.1,1.5
	c-7.6,0-13.9,5.6-14.9,13l3.1,0c1-5.6,5.9-9.9,11.8-9.9V1.5z"/>
<circle class="st0" cx="1.9" cy="16.7" r="0.7"/>
<circle class="st0" cx="16.5" cy="30.7" r="0.7"/>
<path class="st0" d="M15.1,7c4.7,0,8.7,3.5,9.4,8l2.5,0.1C26.3,9.2,21.2,4.6,15.1,4.6V7z M15.1,28.5c6.1,0,11.1-4.5,11.9-10.3
	l-2.5,0c-0.8,4.5-4.7,7.8-9.4,7.8V28.5z"/>
<circle class="st0" cx="25.9" cy="16.7" r="0.8"/>
<path class="st0" d="M19.8,17.7l-0.9-0.5c-0.3,2.6-2.5,4.6-5.2,4.6c-2.9,0-5.3-2.4-5.3-5.3s2.4-5.3,5.3-5.3c2.7,0,4.9,2,5.2,4.6
	l0.9-0.5l1.5-0.9c-0.9-3.4-4-5.9-7.6-5.9c-4.4,0-7.9,3.5-7.9,7.9c0,4.4,3.5,7.9,7.9,7.9c3.7,0,6.7-2.5,7.6-5.9L19.8,17.7z"/>
<line class="st1" x1="13.6" y1="16.7" x2="25.8" y2="16.6"/>
<circle class="st0" cx="13.6" cy="16.6" r="1.8"/>
<g>
	<path class="st0" d="M92.7,17.5h1.7c0.5,0,0.8-0.2,0.8-0.5c0-0.4-0.2-0.5-0.8-0.5h-1.7v-0.7h1.7c0.9,0,1.3,0.5,1.3,1.2
		c0,0.7-0.4,1.2-1.4,1.2h-1.6V17.5z"/>
	<path class="st0" d="M95.6,14.7h-3v-0.8l1.1-0.6c0.3-0.2,0.7-0.4,1-0.5v0c-0.4,0-0.8,0.1-1.2,0.1h-0.9v-0.6h3v0.7l-1.1,0.6
		c-0.3,0.2-0.7,0.4-1,0.5l0,0c0.4,0,0.8,0,1.3,0h0.9V14.7z"/>
	<path class="st0" d="M94.9,10.4l0.8,0.2v0.7l-3-0.9V9.5l3-0.9v0.7l-0.8,0.2V10.4z M94.4,9.6l-0.6,0.2c-0.2,0.1-0.4,0.1-0.6,0.1v0
		c0.2,0,0.4,0.1,0.6,0.1l0.6,0.2V9.6z"/>
	<path class="st0" d="M94.5,5.5c-0.4,0-0.8,0-1.2,0v0c0.4,0.1,0.8,0.2,1.1,0.3l1.2,0.4v0.5L94.4,7c-0.3,0.1-0.8,0.2-1.2,0.3v0
		c0.4,0,0.9,0,1.2,0.1l1.1,0.1V8l-3-0.2V7l1-0.3c0.3-0.1,0.7-0.2,1.1-0.3v0c-0.3-0.1-0.7-0.2-1.1-0.3l-1-0.3V4.9l3-0.2v0.7L94.5,5.5
		z"/>
</g>
<g>
	<g>
		<g>
			<path class="st0" d="M42.4,14.9c-0.3,0.5-0.7,1-1.1,1.5c-0.4,0.4-0.9,0.8-1.4,1.1c-0.5,0.3-1.1,0.6-1.7,0.7s-1.3,0.3-1.9,0.3
				c-1,0-1.9-0.2-2.7-0.6c-0.9-0.4-1.6-0.9-2.2-1.5c-0.6-0.6-1.1-1.4-1.5-2.2c-0.4-0.9-0.6-1.8-0.6-2.7c0-1,0.2-1.9,0.6-2.7
				c0.4-0.9,0.9-1.6,1.5-2.2c0.6-0.6,1.4-1.1,2.2-1.5c0.9-0.4,1.8-0.6,2.7-0.6c0.7,0,1.3,0.1,1.9,0.3c0.6,0.2,1.2,0.4,1.7,0.7
				c0.5,0.3,1,0.7,1.4,1.1C41.8,7,42.1,7.5,42.4,8L40,9c-0.2-0.3-0.4-0.6-0.7-0.8c-0.3-0.3-0.6-0.5-0.9-0.7c-0.3-0.2-0.7-0.4-1-0.5
				c-0.4-0.1-0.7-0.2-1.1-0.2c-0.6,0-1.2,0.1-1.7,0.4c-0.5,0.3-1,0.6-1.4,1c-0.4,0.4-0.7,0.9-1,1.5c-0.2,0.6-0.4,1.2-0.4,1.8
				c0,0.6,0.1,1.2,0.4,1.8c0.2,0.6,0.6,1,1,1.5c0.4,0.4,0.9,0.8,1.4,1c0.5,0.3,1.1,0.4,1.7,0.4c0.4,0,0.8-0.1,1.1-0.2
				c0.4-0.1,0.7-0.3,1-0.5c0.3-0.2,0.6-0.4,0.9-0.7c0.3-0.3,0.5-0.5,0.7-0.8L42.4,14.9z"/>
			<path class="st0" d="M49,18.5c-0.9,0-1.7-0.1-2.4-0.4c-0.7-0.3-1.3-0.7-1.8-1.2c-0.5-0.5-0.9-1.1-1.2-1.8
				c-0.3-0.7-0.4-1.5-0.4-2.4V4.7h2.6v8.1c0,0.7,0.1,1.2,0.3,1.7c0.2,0.4,0.5,0.8,0.8,1.1c0.3,0.3,0.7,0.4,1.1,0.5
				c0.4,0.1,0.7,0.1,1,0.1c0.3,0,0.6,0,1-0.1c0.4-0.1,0.7-0.3,1.1-0.5c0.3-0.3,0.6-0.6,0.8-1.1c0.2-0.4,0.3-1,0.3-1.7V4.7h2.6v8.1
				c0,0.9-0.1,1.7-0.4,2.4c-0.3,0.7-0.7,1.3-1.2,1.8c-0.5,0.5-1.1,0.9-1.8,1.2C50.7,18.4,49.9,18.5,49,18.5z"/>
			<path class="st0" d="M53.8,18.3l7-13.6h0.3l7,13.6h-2.8l-1.1-2.1h-6.4l-1,2.1H53.8z M59,13.9h3.9l-1.9-4.1L59,13.9z"/>
			<path class="st0" d="M70.9,7v3.4h6.6v2.4h-6.6V16h7.4v2.3h-10V4.7h10V7H70.9z"/>
			<path class="st0" d="M84.3,18.3h-5.4V4.7h5.4c1.9,0,3.5,0.6,4.8,1.7c0.7,0.6,1.2,1.3,1.5,2.2c0.3,0.9,0.5,1.8,0.5,2.9
				c0,1.1-0.2,2.1-0.5,2.9c-0.3,0.9-0.8,1.6-1.5,2.2c-0.6,0.6-1.3,1-2.1,1.3C86.1,18.2,85.2,18.3,84.3,18.3z M81.5,16h2.8
				c0.5,0,1-0.1,1.5-0.2c0.5-0.1,0.9-0.3,1.4-0.7c0.4-0.3,0.7-0.8,1-1.4c0.3-0.6,0.4-1.3,0.4-2.3c0-0.9-0.1-1.7-0.4-2.3
				c-0.3-0.6-0.6-1-1-1.4c-0.4-0.3-0.9-0.5-1.4-0.7c-0.5-0.1-1-0.2-1.5-0.2h-2.8V16z"/>
		</g>
	</g>
</g>
<g>
	<g>
		<path class="st0" d="M31.2,24.1c-0.1,0.1-0.4,0.1-0.7,0.1c-0.7,0-1.3-0.5-1.3-1.3c0-0.8,0.6-1.4,1.4-1.4c0.3,0,0.5,0.1,0.6,0.1
			L31.1,22c-0.1-0.1-0.3-0.1-0.5-0.1c-0.6,0-1,0.4-1,1.1c0,0.6,0.4,1,1,1c0.2,0,0.4,0,0.5-0.1L31.2,24.1z"/>
		<path class="st0" d="M33.2,23.3c0,0.7-0.5,1-0.9,1c-0.5,0-0.9-0.4-0.9-1c0-0.6,0.4-1,0.9-1C32.9,22.3,33.2,22.7,33.2,23.3z
			 M31.7,23.3c0,0.4,0.2,0.7,0.6,0.7c0.3,0,0.6-0.3,0.6-0.7c0-0.3-0.2-0.7-0.6-0.7C31.9,22.6,31.7,22.9,31.7,23.3z"/>
		<path class="st0" d="M35.3,23.3c0,0.7-0.5,1-0.9,1c-0.5,0-0.9-0.4-0.9-1c0-0.6,0.4-1,0.9-1C35,22.3,35.3,22.7,35.3,23.3z
			 M33.9,23.3c0,0.4,0.2,0.7,0.6,0.7c0.3,0,0.6-0.3,0.6-0.7c0-0.3-0.2-0.7-0.6-0.7C34,22.6,33.9,22.9,33.9,23.3z"/>
		<path class="st0" d="M35.8,22.9c0-0.2,0-0.4,0-0.6h0.3l0,0.4h0c0.1-0.3,0.3-0.4,0.5-0.4c0,0,0.1,0,0.1,0v0.3c0,0-0.1,0-0.1,0
			c-0.2,0-0.4,0.2-0.5,0.4c0,0,0,0.1,0,0.2v1h-0.3V22.9z"/>
		<path class="st0" d="M38.6,21.5v2.3c0,0.2,0,0.4,0,0.5h-0.3l0-0.3h0c-0.1,0.2-0.3,0.4-0.6,0.4c-0.5,0-0.8-0.4-0.8-0.9
			c0-0.6,0.4-1,0.8-1c0.3,0,0.5,0.1,0.6,0.3h0v-1.1H38.6z M38.3,23.1c0,0,0-0.1,0-0.1c-0.1-0.2-0.2-0.4-0.5-0.4
			c-0.4,0-0.6,0.3-0.6,0.7c0,0.4,0.2,0.7,0.6,0.7c0.2,0,0.4-0.2,0.5-0.4c0,0,0-0.1,0-0.1V23.1z"/>
		<path class="st0" d="M39.6,21.8c0,0.1-0.1,0.2-0.2,0.2c-0.1,0-0.2-0.1-0.2-0.2c0-0.1,0.1-0.2,0.2-0.2
			C39.5,21.6,39.6,21.7,39.6,21.8z M39.2,24.2v-1.9h0.3v1.9H39.2z"/>
		<path class="st0" d="M40.1,22.9c0-0.2,0-0.4,0-0.5h0.3l0,0.3h0c0.1-0.2,0.3-0.4,0.6-0.4c0.3,0,0.7,0.2,0.7,0.8v1.1h-0.3v-1.1
			c0-0.3-0.1-0.6-0.4-0.6c-0.2,0-0.4,0.2-0.5,0.3c0,0,0,0.1,0,0.2v1.1h-0.3V22.9z"/>
		<path class="st0" d="M43.3,24.2l0-0.2h0c-0.1,0.1-0.3,0.3-0.6,0.3c-0.4,0-0.6-0.3-0.6-0.5c0-0.5,0.4-0.7,1.1-0.7v0
			c0-0.2,0-0.4-0.4-0.4c-0.2,0-0.4,0.1-0.5,0.1l-0.1-0.2c0.2-0.1,0.4-0.2,0.6-0.2c0.6,0,0.7,0.4,0.7,0.8v0.7c0,0.2,0,0.3,0,0.4H43.3
			z M43.2,23.3c-0.4,0-0.8,0.1-0.8,0.4c0,0.2,0.1,0.3,0.3,0.3c0.2,0,0.4-0.2,0.5-0.3c0,0,0-0.1,0-0.1V23.3z"/>
		<path class="st0" d="M45.4,24.2c-0.1,0-0.3,0.1-0.5,0.1c-0.6,0-0.9-0.4-0.9-1c0-0.6,0.4-1,1-1c0.2,0,0.4,0.1,0.5,0.1l-0.1,0.3
			c-0.1,0-0.2-0.1-0.4-0.1c-0.4,0-0.7,0.3-0.7,0.7c0,0.4,0.3,0.7,0.6,0.7c0.2,0,0.3-0.1,0.4-0.1L45.4,24.2z"/>
		<path class="st0" d="M46.2,21.8c0,0.1-0.1,0.2-0.2,0.2c-0.1,0-0.2-0.1-0.2-0.2c0-0.1,0.1-0.2,0.2-0.2
			C46.1,21.6,46.2,21.7,46.2,21.8z M45.8,24.2v-1.9h0.3v1.9H45.8z"/>
		<path class="st0" d="M48.4,23.3c0,0.7-0.5,1-0.9,1c-0.5,0-0.9-0.4-0.9-1c0-0.6,0.4-1,0.9-1C48,22.3,48.4,22.7,48.4,23.3z
			 M46.9,23.3c0,0.4,0.2,0.7,0.6,0.7c0.3,0,0.6-0.3,0.6-0.7c0-0.3-0.2-0.7-0.6-0.7C47.1,22.6,46.9,22.9,46.9,23.3z M48,21.5
			l-0.5,0.6h-0.2l0.3-0.6H48z"/>
		<path class="st0" d="M48.8,22.9c0-0.2,0-0.4,0-0.5h0.3l0,0.3h0c0.1-0.2,0.3-0.4,0.6-0.4c0.3,0,0.7,0.2,0.7,0.8v1.1h-0.3v-1.1
			c0-0.3-0.1-0.6-0.4-0.6c-0.2,0-0.4,0.2-0.5,0.3c0,0,0,0.1,0,0.2v1.1h-0.3V22.9z"/>
		<path class="st0" d="M53.4,21.5v2.3c0,0.2,0,0.4,0,0.5h-0.3l0-0.3h0c-0.1,0.2-0.3,0.4-0.6,0.4c-0.5,0-0.8-0.4-0.8-0.9
			c0-0.6,0.4-1,0.8-1c0.3,0,0.5,0.1,0.6,0.3h0v-1.1H53.4z M53.1,23.1c0,0,0-0.1,0-0.1c-0.1-0.2-0.2-0.4-0.5-0.4
			c-0.4,0-0.6,0.3-0.6,0.7c0,0.4,0.2,0.7,0.6,0.7c0.2,0,0.4-0.2,0.5-0.4c0,0,0-0.1,0-0.1V23.1z"/>
		<path class="st0" d="M54.2,23.4c0,0.5,0.3,0.6,0.6,0.6c0.2,0,0.4,0,0.5-0.1l0.1,0.2c-0.1,0.1-0.3,0.1-0.6,0.1
			c-0.6,0-0.9-0.4-0.9-0.9c0-0.6,0.3-1,0.9-1c0.6,0,0.8,0.5,0.8,0.9c0,0.1,0,0.1,0,0.2H54.2z M55.1,23.1c0-0.2-0.1-0.6-0.5-0.6
			c-0.3,0-0.5,0.3-0.5,0.6H55.1z"/>
		<path class="st0" d="M57.1,21.6v1.5c0,0.6,0.3,0.8,0.6,0.8c0.4,0,0.6-0.3,0.6-0.8v-1.5h0.3v1.5c0,0.8-0.4,1.1-1,1.1
			c-0.5,0-0.9-0.3-0.9-1.1v-1.5H57.1z"/>
		<path class="st0" d="M59.2,22.9c0-0.2,0-0.4,0-0.5h0.3l0,0.3h0c0.1-0.2,0.3-0.4,0.6-0.4c0.3,0,0.7,0.2,0.7,0.8v1.1h-0.3v-1.1
			c0-0.3-0.1-0.6-0.4-0.6c-0.2,0-0.4,0.2-0.5,0.3c0,0,0,0.1,0,0.2v1.1h-0.3V22.9z"/>
		<path class="st0" d="M61.7,21.8c0,0.1-0.1,0.2-0.2,0.2c-0.1,0-0.2-0.1-0.2-0.2c0-0.1,0.1-0.2,0.2-0.2
			C61.7,21.6,61.7,21.7,61.7,21.8z M61.4,24.2v-1.9h0.3v1.9H61.4z"/>
		<path class="st0" d="M62.4,22.4l0.4,1c0.1,0.2,0.1,0.3,0.2,0.5h0c0-0.2,0.1-0.3,0.2-0.5l0.4-1h0.4l-0.7,1.9h-0.3L62,22.4H62.4z"/>
		<path class="st0" d="M64.3,23.4c0,0.5,0.3,0.6,0.6,0.6c0.2,0,0.4,0,0.5-0.1l0.1,0.2c-0.1,0.1-0.3,0.1-0.6,0.1
			c-0.6,0-0.9-0.4-0.9-0.9c0-0.6,0.3-1,0.9-1c0.6,0,0.8,0.5,0.8,0.9c0,0.1,0,0.1,0,0.2H64.3z M65.3,23.1c0-0.2-0.1-0.6-0.5-0.6
			c-0.3,0-0.5,0.3-0.5,0.6H65.3z"/>
		<path class="st0" d="M66,22.9c0-0.2,0-0.4,0-0.6h0.3l0,0.4h0c0.1-0.3,0.3-0.4,0.5-0.4c0,0,0.1,0,0.1,0v0.3c0,0-0.1,0-0.1,0
			c-0.2,0-0.4,0.2-0.5,0.4c0,0,0,0.1,0,0.2v1H66V22.9z"/>
		<path class="st0" d="M67.2,23.9c0.1,0.1,0.3,0.1,0.4,0.1c0.2,0,0.4-0.1,0.4-0.3c0-0.2-0.1-0.3-0.3-0.3c-0.3-0.1-0.5-0.3-0.5-0.5
			c0-0.3,0.2-0.5,0.6-0.5c0.2,0,0.4,0.1,0.5,0.1l-0.1,0.2c-0.1,0-0.2-0.1-0.4-0.1c-0.2,0-0.3,0.1-0.3,0.3c0,0.2,0.1,0.2,0.4,0.3
			c0.3,0.1,0.5,0.3,0.5,0.6c0,0.3-0.3,0.6-0.7,0.6c-0.2,0-0.4-0.1-0.5-0.1L67.2,23.9z"/>
		<path class="st0" d="M69.2,21.8c0,0.1-0.1,0.2-0.2,0.2c-0.1,0-0.2-0.1-0.2-0.2c0-0.1,0.1-0.2,0.2-0.2
			C69.1,21.6,69.2,21.7,69.2,21.8z M68.8,24.2v-1.9h0.3v1.9H68.8z"/>
		<path class="st0" d="M71.3,21.5v2.3c0,0.2,0,0.4,0,0.5H71l0-0.3h0c-0.1,0.2-0.3,0.4-0.6,0.4c-0.5,0-0.8-0.4-0.8-0.9
			c0-0.6,0.4-1,0.8-1c0.3,0,0.5,0.1,0.6,0.3h0v-1.1H71.3z M71,23.1c0,0,0-0.1,0-0.1c-0.1-0.2-0.2-0.4-0.5-0.4
			c-0.4,0-0.6,0.3-0.6,0.7c0,0.4,0.2,0.7,0.6,0.7c0.2,0,0.4-0.2,0.5-0.4c0,0,0-0.1,0-0.1V23.1z"/>
		<path class="st0" d="M72.9,24.2l0-0.2h0c-0.1,0.1-0.3,0.3-0.6,0.3c-0.4,0-0.6-0.3-0.6-0.5c0-0.5,0.4-0.7,1.1-0.7v0
			c0-0.2,0-0.4-0.4-0.4c-0.2,0-0.4,0.1-0.5,0.1l-0.1-0.2c0.2-0.1,0.4-0.2,0.6-0.2c0.6,0,0.7,0.4,0.7,0.8v0.7c0,0.2,0,0.3,0,0.4H72.9
			z M72.9,23.3c-0.4,0-0.8,0.1-0.8,0.4c0,0.2,0.1,0.3,0.3,0.3c0.2,0,0.4-0.2,0.5-0.3c0,0,0-0.1,0-0.1V23.3z"/>
		<path class="st0" d="M75.3,21.5v2.3c0,0.2,0,0.4,0,0.5h-0.3l0-0.3h0c-0.1,0.2-0.3,0.4-0.6,0.4c-0.5,0-0.8-0.4-0.8-0.9
			c0-0.6,0.4-1,0.8-1c0.3,0,0.5,0.1,0.6,0.3h0v-1.1H75.3z M75,23.1c0,0,0-0.1,0-0.1c-0.1-0.2-0.2-0.4-0.5-0.4
			c-0.4,0-0.6,0.3-0.6,0.7c0,0.4,0.2,0.7,0.6,0.7c0.2,0,0.4-0.2,0.5-0.4c0,0,0-0.1,0-0.1V23.1z"/>
		<path class="st0" d="M77.2,23.4l-0.3,0.8h-0.3l0.9-2.6h0.4l0.9,2.6h-0.4l-0.3-0.8H77.2z M78,23.1l-0.3-0.7
			c-0.1-0.2-0.1-0.3-0.1-0.5h0c0,0.2-0.1,0.3-0.1,0.5l-0.3,0.8H78z"/>
		<path class="st0" d="M79.1,24.2c0-0.1,0-0.3,0-0.5v-2.3h0.3v1.2h0c0.1-0.2,0.3-0.3,0.6-0.3c0.5,0,0.8,0.4,0.8,1c0,0.7-0.4,1-0.8,1
			c-0.3,0-0.5-0.1-0.6-0.4h0l0,0.3H79.1z M79.4,23.5c0,0,0,0.1,0,0.1c0.1,0.2,0.3,0.4,0.5,0.4c0.4,0,0.6-0.3,0.6-0.7
			c0-0.4-0.2-0.7-0.6-0.7c-0.2,0-0.4,0.2-0.5,0.4c0,0,0,0.1,0,0.1V23.5z"/>
		<path class="st0" d="M81.7,21.8c0,0.1-0.1,0.2-0.2,0.2c-0.1,0-0.2-0.1-0.2-0.2c0-0.1,0.1-0.2,0.2-0.2
			C81.6,21.6,81.7,21.7,81.7,21.8z M81.3,24.2v-1.9h0.3v1.9H81.3z"/>
		<path class="st0" d="M82.4,23.4c0,0.5,0.3,0.6,0.6,0.6c0.2,0,0.4,0,0.5-0.1l0.1,0.2c-0.1,0.1-0.3,0.1-0.6,0.1
			c-0.6,0-0.9-0.4-0.9-0.9c0-0.6,0.3-1,0.9-1c0.6,0,0.8,0.5,0.8,0.9c0,0.1,0,0.1,0,0.2H82.4z M83.4,23.1c0-0.2-0.1-0.6-0.5-0.6
			c-0.3,0-0.5,0.3-0.5,0.6H83.4z"/>
		<path class="st0" d="M84.1,22.9c0-0.2,0-0.4,0-0.6h0.3l0,0.4h0c0.1-0.3,0.3-0.4,0.5-0.4c0,0,0.1,0,0.1,0v0.3c0,0-0.1,0-0.1,0
			c-0.2,0-0.4,0.2-0.5,0.4c0,0,0,0.1,0,0.2v1h-0.3V22.9z"/>
		<path class="st0" d="M85.9,21.8v0.5h0.5v0.3h-0.5v1c0,0.2,0.1,0.4,0.3,0.4c0.1,0,0.2,0,0.2,0l0,0.3c-0.1,0-0.2,0-0.3,0
			c-0.2,0-0.3-0.1-0.4-0.1c-0.1-0.1-0.1-0.3-0.1-0.5v-1h-0.3v-0.3h0.3v-0.4L85.9,21.8z"/>
		<path class="st0" d="M87.8,24.2l0-0.2h0c-0.1,0.1-0.3,0.3-0.6,0.3c-0.4,0-0.6-0.3-0.6-0.5c0-0.5,0.4-0.7,1.1-0.7v0
			c0-0.2,0-0.4-0.4-0.4c-0.2,0-0.4,0.1-0.5,0.1l-0.1-0.2c0.2-0.1,0.4-0.2,0.6-0.2c0.6,0,0.7,0.4,0.7,0.8v0.7c0,0.2,0,0.3,0,0.4H87.8
			z M87.7,23.3c-0.4,0-0.8,0.1-0.8,0.4c0,0.2,0.1,0.3,0.3,0.3c0.2,0,0.4-0.2,0.5-0.3c0,0,0-0.1,0-0.1V23.3z"/>
		<path class="st0" d="M89.5,22.4l0.4,1.1c0,0.1,0.1,0.3,0.1,0.4h0c0-0.1,0.1-0.3,0.1-0.4l0.4-1.1h0.4l-0.5,1.3
			c-0.2,0.6-0.4,1-0.6,1.2c-0.2,0.1-0.3,0.2-0.4,0.2l-0.1-0.3c0.1,0,0.2-0.1,0.3-0.2c0.1-0.1,0.2-0.2,0.3-0.4c0,0,0-0.1,0-0.1
			c0,0,0,0,0-0.1l-0.7-1.7H89.5z"/>
	</g>
	<g>
		<path class="st0" d="M44.2,27.6h-1v0.9h1.1v0.3h-1.5v-2.6h1.4v0.3h-1.1v0.8h1V27.6z"/>
		<path class="st0" d="M46.3,26.1v2.3c0,0.2,0,0.4,0,0.5h-0.3l0-0.3h0c-0.1,0.2-0.3,0.4-0.6,0.4c-0.5,0-0.8-0.4-0.8-0.9
			c0-0.6,0.4-1,0.8-1c0.3,0,0.5,0.1,0.6,0.3h0v-1.1H46.3z M46,27.7c0,0,0-0.1,0-0.1c-0.1-0.2-0.2-0.4-0.5-0.4
			c-0.4,0-0.6,0.3-0.6,0.7c0,0.4,0.2,0.7,0.6,0.7c0.2,0,0.4-0.2,0.5-0.4c0,0,0-0.1,0-0.1V27.7z"/>
		<path class="st0" d="M48.5,28.3c0,0.2,0,0.4,0,0.5h-0.3l0-0.3h0c-0.1,0.2-0.3,0.3-0.6,0.3c-0.3,0-0.6-0.2-0.6-0.8V27h0.3v1
			c0,0.4,0.1,0.6,0.4,0.6c0.2,0,0.4-0.2,0.4-0.3c0,0,0-0.1,0-0.2V27h0.3V28.3z"/>
		<path class="st0" d="M50.4,28.8c-0.1,0-0.3,0.1-0.5,0.1c-0.6,0-0.9-0.4-0.9-1c0-0.6,0.4-1,1-1c0.2,0,0.4,0.1,0.5,0.1l-0.1,0.3
			c-0.1,0-0.2-0.1-0.4-0.1c-0.4,0-0.7,0.3-0.7,0.7c0,0.4,0.3,0.7,0.6,0.7c0.2,0,0.3-0.1,0.4-0.1L50.4,28.8z"/>
		<path class="st0" d="M51.8,28.9l0-0.2h0c-0.1,0.1-0.3,0.3-0.6,0.3c-0.4,0-0.6-0.3-0.6-0.5c0-0.5,0.4-0.7,1.1-0.7v0
			c0-0.2,0-0.4-0.4-0.4c-0.2,0-0.4,0.1-0.5,0.1l-0.1-0.2c0.2-0.1,0.4-0.2,0.6-0.2c0.6,0,0.7,0.4,0.7,0.8v0.7c0,0.2,0,0.3,0,0.4H51.8
			z M51.7,27.9c-0.4,0-0.8,0.1-0.8,0.4c0,0.2,0.1,0.3,0.3,0.3c0.2,0,0.4-0.2,0.5-0.3c0,0,0-0.1,0-0.1V27.9z"/>
		<path class="st0" d="M54,28.8c-0.1,0-0.3,0.1-0.5,0.1c-0.6,0-0.9-0.4-0.9-1c0-0.6,0.4-1,1-1c0.2,0,0.4,0.1,0.5,0.1l-0.1,0.3
			c-0.1,0-0.2-0.1-0.4-0.1c-0.4,0-0.7,0.3-0.7,0.7c0,0.4,0.3,0.7,0.6,0.7c0.2,0,0.3-0.1,0.4-0.1L54,28.8z"/>
		<path class="st0" d="M54.7,26.5c0,0.1-0.1,0.2-0.2,0.2c-0.1,0-0.2-0.1-0.2-0.2c0-0.1,0.1-0.2,0.2-0.2
			C54.7,26.2,54.7,26.3,54.7,26.5z M54.4,28.9V27h0.3v1.9H54.4z"/>
		<path class="st0" d="M56.9,27.9c0,0.7-0.5,1-0.9,1c-0.5,0-0.9-0.4-0.9-1c0-0.6,0.4-1,0.9-1C56.6,26.9,56.9,27.3,56.9,27.9z
			 M55.5,27.9c0,0.4,0.2,0.7,0.6,0.7c0.3,0,0.6-0.3,0.6-0.7c0-0.3-0.2-0.7-0.6-0.7C55.6,27.2,55.5,27.6,55.5,27.9z M56.5,26.2
			l-0.5,0.6h-0.2l0.3-0.6H56.5z"/>
		<path class="st0" d="M57.4,27.5c0-0.2,0-0.4,0-0.5h0.3l0,0.3h0c0.1-0.2,0.3-0.4,0.6-0.4c0.3,0,0.7,0.2,0.7,0.8v1.1h-0.3v-1.1
			c0-0.3-0.1-0.6-0.4-0.6c-0.2,0-0.4,0.2-0.5,0.3c0,0,0,0.1,0,0.2v1.1h-0.3V27.5z"/>
		<path class="st0" d="M61.4,28.9l0-0.2h0c-0.1,0.1-0.3,0.3-0.6,0.3c-0.4,0-0.6-0.3-0.6-0.5c0-0.5,0.4-0.7,1.1-0.7v0
			c0-0.2,0-0.4-0.4-0.4c-0.2,0-0.4,0.1-0.5,0.1l-0.1-0.2c0.2-0.1,0.4-0.2,0.6-0.2c0.6,0,0.7,0.4,0.7,0.8v0.7c0,0.2,0,0.3,0,0.4H61.4
			z M61.3,27.9c-0.4,0-0.8,0.1-0.8,0.4c0,0.2,0.1,0.3,0.3,0.3c0.2,0,0.4-0.2,0.5-0.3c0,0,0-0.1,0-0.1V27.9z"/>
		<path class="st0" d="M63,26.3c0.2,0,0.4-0.1,0.7-0.1c0.5,0,0.8,0.1,1.1,0.3c0.2,0.2,0.4,0.5,0.4,0.9c0,0.4-0.1,0.8-0.4,1
			c-0.2,0.2-0.6,0.4-1.1,0.4c-0.2,0-0.4,0-0.6,0V26.3z M63.4,28.6c0.1,0,0.2,0,0.3,0c0.7,0,1.1-0.4,1.1-1.1c0-0.6-0.3-1-1.1-1
			c-0.2,0-0.3,0-0.4,0V28.6z"/>
		<path class="st0" d="M66,26.5c0,0.1-0.1,0.2-0.2,0.2c-0.1,0-0.2-0.1-0.2-0.2c0-0.1,0.1-0.2,0.2-0.2C65.9,26.2,66,26.3,66,26.5z
			 M65.6,28.9V27h0.3v1.9H65.6z"/>
		<path class="st0" d="M66.4,28.5c0.1,0.1,0.3,0.1,0.4,0.1c0.2,0,0.4-0.1,0.4-0.3c0-0.2-0.1-0.3-0.3-0.3c-0.3-0.1-0.5-0.3-0.5-0.5
			c0-0.3,0.2-0.5,0.6-0.5c0.2,0,0.4,0.1,0.5,0.1l-0.1,0.2c-0.1,0-0.2-0.1-0.4-0.1c-0.2,0-0.3,0.1-0.3,0.3c0,0.2,0.1,0.2,0.4,0.3
			c0.3,0.1,0.5,0.3,0.5,0.6c0,0.3-0.3,0.6-0.7,0.6c-0.2,0-0.4-0.1-0.5-0.1L66.4,28.5z"/>
		<path class="st0" d="M68.4,26.5V27h0.5v0.3h-0.5v1c0,0.2,0.1,0.4,0.3,0.4c0.1,0,0.2,0,0.2,0l0,0.3c-0.1,0-0.2,0-0.3,0
			c-0.2,0-0.3-0.1-0.4-0.1c-0.1-0.1-0.1-0.3-0.1-0.5v-1h-0.3V27h0.3v-0.4L68.4,26.5z"/>
		<path class="st0" d="M70.3,28.9l0-0.2h0c-0.1,0.1-0.3,0.3-0.6,0.3c-0.4,0-0.6-0.3-0.6-0.5c0-0.5,0.4-0.7,1.1-0.7v0
			c0-0.2,0-0.4-0.4-0.4c-0.2,0-0.4,0.1-0.5,0.1l-0.1-0.2c0.2-0.1,0.4-0.2,0.6-0.2c0.6,0,0.7,0.4,0.7,0.8v0.7c0,0.2,0,0.3,0,0.4H70.3
			z M70.3,27.9c-0.4,0-0.8,0.1-0.8,0.4c0,0.2,0.1,0.3,0.3,0.3c0.2,0,0.4-0.2,0.5-0.3c0,0,0-0.1,0-0.1V27.9z"/>
		<path class="st0" d="M71.2,27.5c0-0.2,0-0.4,0-0.5h0.3l0,0.3h0c0.1-0.2,0.3-0.4,0.6-0.4c0.3,0,0.7,0.2,0.7,0.8v1.1h-0.3v-1.1
			c0-0.3-0.1-0.6-0.4-0.6c-0.2,0-0.4,0.2-0.5,0.3c0,0,0,0.1,0,0.2v1.1h-0.3V27.5z"/>
		<path class="st0" d="M74.6,28.8c-0.1,0-0.3,0.1-0.5,0.1c-0.6,0-0.9-0.4-0.9-1c0-0.6,0.4-1,1-1c0.2,0,0.4,0.1,0.5,0.1l-0.1,0.3
			c-0.1,0-0.2-0.1-0.4-0.1c-0.4,0-0.7,0.3-0.7,0.7c0,0.4,0.3,0.7,0.6,0.7c0.2,0,0.3-0.1,0.4-0.1L74.6,28.8z"/>
		<path class="st0" d="M75.4,26.5c0,0.1-0.1,0.2-0.2,0.2c-0.1,0-0.2-0.1-0.2-0.2c0-0.1,0.1-0.2,0.2-0.2
			C75.3,26.2,75.4,26.3,75.4,26.5z M75,28.9V27h0.3v1.9H75z"/>
		<path class="st0" d="M77,28.9l0-0.2h0c-0.1,0.1-0.3,0.3-0.6,0.3c-0.4,0-0.6-0.3-0.6-0.5c0-0.5,0.4-0.7,1.1-0.7v0
			c0-0.2,0-0.4-0.4-0.4c-0.2,0-0.4,0.1-0.5,0.1l-0.1-0.2c0.2-0.1,0.4-0.2,0.6-0.2c0.6,0,0.7,0.4,0.7,0.8v0.7c0,0.2,0,0.3,0,0.4H77z
			 M76.9,27.9c-0.4,0-0.8,0.1-0.8,0.4c0,0.2,0.1,0.3,0.3,0.3c0.2,0,0.4-0.2,0.5-0.3c0,0,0-0.1,0-0.1V27.9z"/>
	</g>
</g>
</svg>
