<?xml version="1.0" encoding="utf-8"?>
<!-- Generator: Adobe Illustrator 21.0.0, SVG Export Plug-In . SVG Version: 6.00 Build 0)  -->
<svg version="1.1" id="Capa_1" xmlns="http://www.w3.org/2000/svg" xmlns:xlink="http://www.w3.org/1999/xlink" x="0px" y="0px"
	 viewBox="0 0 260.1 320.7" style="enable-background:new 0 0 260.1 320.7;" xml:space="preserve">
<style type="text/css">
	.st0{fill:#FFFFFF;}
</style>
<title>logo_enes</title>
<path class="st0" d="M18.2,18.5H5.1v12.1h14.6v3.6h-19V0.6h18.2v3.6H5.1v10.7h13.1V18.5z"/>
<path class="st0" d="M37.2,29c2.4,1.4,5.1,2.2,7.8,2.2c4.4,0,7-2.4,7-5.8c0-3.1-1.8-5-6.3-6.7c-5.5-2-8.9-4.8-8.9-9.5
	c0-5.2,4.3-9.1,10.9-9.1c2.6-0.1,5.1,0.5,7.5,1.6l-1.2,3.6c-2-1.1-4.2-1.6-6.4-1.6c-4.6,0-6.3,2.8-6.3,5.1c0,3.1,2.1,4.7,6.7,6.5
	c5.7,2.2,8.6,5,8.6,9.9c0,5.2-3.8,9.7-11.8,9.7c-3,0-6-0.7-8.6-2.1L37.2,29z"/>
<path class="st0" d="M98.4,33.1c-2.8,1.2-5.9,1.7-8.9,1.6c-9.5,0-16.6-6-16.6-17C72.9,7.2,80,0,90.5,0c2.7-0.1,5.5,0.4,8,1.5l-1,3.6
	c-2.1-1-4.5-1.4-6.8-1.4c-7.9,0-13.1,5.1-13.1,13.9c0,8.2,4.8,13.5,13,13.5c2.4,0,4.9-0.4,7.1-1.4L98.4,33.1z"/>
<path class="st0" d="M120.7,0.6v20c0,7.5,3.4,10.8,7.8,10.8c5,0,8.2-3.3,8.2-10.8v-20h4.4v19.6c0,10.4-5.5,14.6-12.8,14.6
	c-6.9,0-12.1-4-12.1-14.4V0.6H120.7z"/>
<path class="st0" d="M178.5,18.5h-13.1v12.1H180v3.6h-19V0.6h18.2v3.6h-13.8v10.7h13.1L178.5,18.5z"/>
<path class="st0" d="M198.1,0.6h4.4v30.1h14.4v3.6h-18.8V0.6z"/>
<path class="st0" d="M239.6,23.6l-3.5,10.6h-4.5l11.5-33.7h5.2l11.5,33.7h-4.7l-3.6-10.6H239.6z M250.6,20.2l-3.3-9.7
	c-0.8-2.2-1.2-4.2-1.8-6.1h-0.1c-0.5,2-1,4.1-1.7,6.1l-3.3,9.8H250.6z"/>
<path class="st0" d="M0.7,86.2V52.5h4.8l10.8,17c2.3,3.5,4.3,7.2,6.1,11l0.1,0c-0.4-4.5-0.5-8.6-0.5-13.9V52.5H26v33.7h-4.4
	L10.9,69.1c-2.3-3.6-4.4-7.4-6.3-11.2H4.4c0.2,4.2,0.3,8.3,0.3,13.9v14.4L0.7,86.2z"/>
<path class="st0" d="M44.5,75.6L41,86.2h-4.5l11.4-33.7h5.2l11.5,33.7H60l-3.6-10.6H44.5z M55.5,72.2l-3.3-9.7
	c-0.8-2.2-1.2-4.2-1.8-6.1h-0.1c-0.5,2-1.1,4-1.7,6.1l-3.3,9.8H55.5z"/>
<path class="st0" d="M97.9,85.1c-2.8,1.2-5.9,1.7-8.9,1.6c-9.5,0-16.6-6-16.6-17C72.4,59.2,79.5,52,90,52c2.7-0.1,5.5,0.4,8,1.5
	L97,57c-2.1-1-4.5-1.4-6.8-1.4c-7.9,0-13.1,5-13.1,13.9c0,8.2,4.8,13.5,13,13.5c2.4,0,4.9-0.4,7.1-1.4L97.9,85.1z"/>
<path class="st0" d="M113.2,52.5v33.7h-4.4V52.5H113.2z"/>
<path class="st0" d="M155,69c0,11.6-7,17.8-15.6,17.8c-8.9,0-15.1-6.9-15.1-17.1c0-10.7,6.6-17.7,15.6-17.7C149,52,155,59,155,69z
	 M128.9,69.6c0,7.2,3.9,13.6,10.8,13.6s10.8-6.4,10.8-14c0-6.7-3.5-13.7-10.8-13.7S128.9,62.2,128.9,69.6L128.9,69.6z"/>
<path class="st0" d="M166.1,86.2V52.5h4.8l10.8,17c2.2,3.5,4.2,7.2,6,11l0.1,0c-0.4-4.5-0.5-8.6-0.5-13.9V52.5h4.1v33.7H187
	l-10.7-17.1c-2.3-3.6-4.4-7.4-6.3-11.2h-0.1c0.2,4.2,0.4,8.3,0.4,13.9v14.4L166.1,86.2z"/>
<path class="st0" d="M209.9,75.6l-3.5,10.6h-4.5l11.5-33.7h5.2l11.5,33.7h-4.6l-3.6-10.6H209.9z M220.9,72.2l-3.3-9.7
	c-0.8-2.2-1.2-4.2-1.8-6.1h-0.1c-0.5,2-1,4-1.7,6.1l-3.3,9.8H220.9z"/>
<path class="st0" d="M240.5,52.5h4.4v30h14.4v3.6h-18.8V52.5z"/>
<path class="st0" d="M60.2,123.5H47.1v12.1h14.6v3.6h-19v-33.7h18.2v3.6H47.1v10.7h13.1V123.5z"/>
<path class="st0" d="M68.4,134c2.4,1.4,5.1,2.2,7.8,2.2c4.4,0,7.1-2.4,7.1-5.8c0-3.1-1.8-5-6.4-6.7c-5.5-2-8.9-4.8-8.9-9.5
	c0-5.2,4.4-9.1,10.9-9.1c2.6-0.1,5.1,0.5,7.4,1.6l-1.2,3.5c-2-1.1-4.2-1.6-6.4-1.6c-4.6,0-6.4,2.8-6.4,5c0,3.1,2.1,4.7,6.7,6.5
	c5.7,2.2,8.6,5,8.6,9.9c0,5.2-3.9,9.7-11.8,9.7c-3,0-6-0.7-8.6-2.1L68.4,134z"/>
<path class="st0" d="M101.8,109.2H91.5v-3.7h25v3.7h-10.3v30h-4.4L101.8,109.2z"/>
<path class="st0" d="M126.3,105.5v20c0,7.5,3.3,10.8,7.8,10.8c5,0,8.2-3.3,8.2-10.8v-20h4.4v19.6c0,10.4-5.5,14.6-12.8,14.6
	c-6.9,0-12.1-4-12.1-14.4v-19.9H126.3z"/>
<path class="st0" d="M155.9,106c3.1-0.5,6.2-0.7,9.2-0.7c6.2,0,10.7,1.5,13.6,4.2c3,2.8,4.8,6.6,4.8,12.1s-1.7,10-4.9,13.1
	c-3.1,3.1-8.4,4.9-14.9,4.9c-2.6,0-5.3-0.1-7.9-0.4V106z M160.3,135.8c1.5,0.2,2.9,0.3,4.4,0.2c9.3,0,14.4-5.2,14.4-14.3
	c0-8-4.4-13-13.6-13c-1.7,0-3.4,0.1-5.1,0.5V135.8z"/>
<path class="st0" d="M195.3,105.5v33.7h-4.4v-33.7H195.3z"/>
<path class="st0" d="M233.4,122c0,11.6-7,17.8-15.6,17.8c-8.9,0-15.1-6.9-15.1-17.1c0-10.7,6.6-17.7,15.6-17.7
	C227.4,105,233.4,112,233.4,122z M207.2,122.6c0,7.2,3.9,13.6,10.8,13.6s10.8-6.4,10.8-14c0-6.7-3.5-13.7-10.8-13.7
	S207.2,115.2,207.2,122.6L207.2,122.6z"/>
<path class="st0" d="M240.1,134c2.4,1.4,5.1,2.2,7.8,2.2c4.5,0,7-2.4,7-5.8c0-3.1-1.8-5-6.4-6.7c-5.5-2-8.9-4.8-8.9-9.5
	c0-5.2,4.4-9.1,10.9-9.1c2.6-0.1,5.1,0.5,7.5,1.6l-1.2,3.5c-2-1.1-4.2-1.6-6.4-1.6c-4.6,0-6.4,2.8-6.4,5c0,3.1,2,4.7,6.7,6.5
	c5.7,2.2,8.6,5,8.6,9.9c0,5.2-3.9,9.7-11.8,9.7c-3,0-6-0.7-8.6-2.1L240.1,134z"/>
<path class="st0" d="M1.1,186c2.4,1.4,5.1,2.2,7.8,2.2c4.4,0,7.1-2.4,7.1-5.8c0-3.1-1.8-5-6.3-6.7c-5.5-2-8.9-4.8-8.9-9.5
	c0-5.2,4.3-9.1,10.9-9.1c2.6-0.1,5.1,0.5,7.4,1.6l-1.2,3.5c-2-1.1-4.2-1.6-6.4-1.6c-4.6,0-6.3,2.8-6.3,5c0,3.1,2.1,4.7,6.7,6.5
	c5.7,2.2,8.6,5,8.6,9.9c0,5.2-3.8,9.7-11.8,9.7c-3,0-6-0.7-8.6-2.1L1.1,186z"/>
<path class="st0" d="M31.5,157.5v20c0,7.5,3.3,10.8,7.8,10.8c5,0,8.2-3.3,8.2-10.8v-20h4.4v19.6c0,10.4-5.4,14.6-12.8,14.6
	c-6.9,0-12.1-4-12.1-14.4v-19.9H31.5z"/>
<path class="st0" d="M60.2,158c2.8-0.4,5.6-0.7,8.4-0.6c4.3,0,7.4,1,9.4,2.8c2,1.8,3.1,4.4,3,7c0.1,2.7-0.8,5.2-2.6,7.2
	c-2.3,2.5-6,3.7-10.3,3.7c-1.2,0-2.3-0.1-3.5-0.3v13.5h-4.4V158z M64.6,174.2c1.2,0.3,2.4,0.4,3.6,0.4c5.2,0,8.4-2.5,8.4-7.2
	c0-4.5-3.1-6.6-8-6.6c-1.4,0-2.8,0.1-4.1,0.4L64.6,174.2z"/>
<path class="st0" d="M105,175.5H91.9v12.1h14.6v3.6h-19v-33.7h18.2v3.6H91.9v10.7H105V175.5z"/>
<path class="st0" d="M112.9,158c2.8-0.5,5.6-0.7,8.4-0.7c4.6,0,7.6,0.9,9.7,2.8c1.8,1.7,2.7,4,2.6,6.4c0,4-2.5,7.5-6.3,8.6v0.1
	c2.6,0.9,4.1,3.3,5,6.8c1.1,4.7,1.9,8,2.6,9.2h-4.5c-0.5-1-1.3-3.9-2.2-8c-1-4.6-2.8-6.4-6.7-6.5h-4.1v14.6h-4.4V158z M117.3,173.4
	h4.4c4.6,0,7.6-2.5,7.6-6.4c0-4.4-3.2-6.2-7.8-6.3c-1.4,0-2.9,0.1-4.3,0.4V173.4z"/>
<path class="st0" d="M144.9,157.5v33.7h-4.4v-33.7H144.9z"/>
<path class="st0" d="M182,174c0,11.6-7,17.8-15.6,17.8c-8.9,0-15.1-6.9-15.1-17.1c0-10.7,6.6-17.7,15.6-17.7
	C176.1,157,182,164,182,174z M155.9,174.6c0,7.2,3.9,13.6,10.8,13.6s10.8-6.4,10.8-14c0-6.7-3.5-13.7-10.8-13.7
	S155.9,167.2,155.9,174.6L155.9,174.6z"/>
<path class="st0" d="M188.4,158c2.8-0.5,5.6-0.7,8.4-0.7c4.6,0,7.6,0.9,9.8,2.8c1.8,1.7,2.7,4,2.6,6.4c0,4-2.5,7.5-6.4,8.6v0.1
	c2.6,0.9,4.1,3.3,5,6.8c1.1,4.7,1.9,8,2.6,9.2h-4.5c-0.5-1-1.3-3.9-2.2-8c-1-4.6-2.8-6.4-6.8-6.5h-4.1v14.6h-4.4V158z M192.8,173.4
	h4.5c4.6,0,7.6-2.5,7.6-6.4c0-4.4-3.1-6.2-7.8-6.3c-1.4,0-2.9,0.1-4.3,0.4L192.8,173.4z"/>
<path class="st0" d="M233.5,175.5h-13.1v12.1H235v3.6h-19v-33.7h18.2v3.6h-13.8v10.7h13.1V175.5z"/>
<path class="st0" d="M240.9,186c2.4,1.4,5.1,2.2,7.8,2.2c4.5,0,7-2.4,7-5.8c0-3.1-1.8-5-6.4-6.7c-5.5-2-8.9-4.8-8.9-9.5
	c0-5.2,4.4-9.1,10.9-9.1c2.6-0.1,5.1,0.5,7.5,1.6l-1.2,3.5c-2-1.1-4.2-1.6-6.4-1.6c-4.6,0-6.4,2.8-6.4,5c0,3.1,2,4.7,6.7,6.5
	c5.7,2.2,8.6,5,8.6,9.9c0,5.2-3.9,9.7-11.8,9.7c-3,0-6-0.7-8.6-2.1L240.9,186z"/>
<path class="st0" d="M0.8,120.9c1.5-0.2,3.1-0.3,4.6-0.4c3.1,0,5.3,0.7,6.8,2.1c1.6,1.6,2.5,3.8,2.4,6c0.1,2.4-0.8,4.8-2.4,6.5
	c-1.6,1.6-4.2,2.4-7.4,2.4c-1.3,0-2.6-0.1-3.9-0.2L0.8,120.9z M3,135.8c0.7,0.1,1.5,0.1,2.2,0.1c4.7,0,7.2-2.6,7.2-7.1
	c0-4-2.2-6.5-6.8-6.5c-0.9,0-1.7,0.1-2.6,0.2L3,135.8z"/>
<path class="st0" d="M28.6,129.6h-6.6v6.1h7.3v1.8h-9.5v-16.8H29v1.8h-6.9v5.3h6.6V129.6z"/>
<path class="st0" d="M4.7,300.8V312c0,3.4,1.3,5.1,3.5,5.1s3.6-1.6,3.6-5.1v-11.2h4.4v11c0,6-3,8.9-8.2,8.9c-4.9,0-7.8-2.7-7.8-9
	v-10.9H4.7z"/>
<path class="st0" d="M22.3,320.3v-19.6h5.2l4.1,7.2c1.2,2.2,2.3,4.4,3.2,6.7h0.1c-0.3-2.7-0.4-5.4-0.4-8.2v-5.7h4.1v19.5h-4.6
	l-4.2-7.5c-1.3-2.2-2.4-4.5-3.4-6.9h-0.1c0.1,2.6,0.2,5.3,0.2,8.5v5.9L22.3,320.3z"/>
<path class="st0" d="M48.9,300.8v19.5h-4.4v-19.5H48.9z"/>
<path class="st0" d="M54.9,301c2-0.3,4-0.4,6-0.4c3.7,0,6.1,0.7,8,2.1s3.3,3.9,3.3,7.4c0,3.7-1.4,6.3-3.2,7.9
	c-2.1,1.7-5.2,2.5-9,2.5c-1.7,0-3.3-0.1-5-0.3L54.9,301z M59.3,317c0.5,0.1,1,0.1,1.5,0.1c4,0,6.6-2.2,6.6-6.8
	c0-4.1-2.4-6.2-6.1-6.2c-0.7,0-1.3,0-2,0.2V317z"/>
<path class="st0" d="M81.3,315.3l-1.4,5h-4.6l6-19.5h5.8l6.1,19.5h-4.8l-1.5-5H81.3z M86.3,312l-1.2-4.2c-0.4-1.2-0.7-2.6-1-3.8
	h-0.1c-0.3,1.2-0.6,2.6-0.9,3.8L82,312H86.3z"/>
<path class="st0" d="M98,301c2-0.3,4-0.4,6-0.4c3.7,0,6.1,0.7,8,2.1s3.3,3.9,3.3,7.4c0,3.7-1.4,6.3-3.2,7.9c-2.1,1.7-5.2,2.5-9,2.5
	c-1.7,0-3.3-0.1-5-0.3L98,301z M102.4,317c0.5,0.1,1,0.1,1.5,0.1c4,0,6.6-2.2,6.6-6.8c0-4.1-2.4-6.2-6.1-6.2c-0.7,0-1.3,0-2,0.2V317
	z"/>
<path class="st0" d="M144.9,312.9c-0.1-2.3-0.2-5.2-0.2-8h-0.1c-0.6,2.5-1.4,5.3-2.2,7.6l-2.4,7.6h-3.5l-2.1-7.6
	c-0.6-2.3-1.3-5.1-1.8-7.6h-0.1c-0.1,2.6-0.2,5.7-0.4,8.1l-0.4,7.4h-4.1l1.3-19.6h5.9l1.9,6.5c0.6,2.3,1.2,4.7,1.6,7h0.1
	c0.6-2.3,1.2-4.8,1.9-7l2.1-6.5h5.8l1.1,19.5h-4.3L144.9,312.9z"/>
<path class="st0" d="M173,310.4c0,6.4-3.9,10.3-9.6,10.3c-5.7,0-9.2-4.4-9.2-10c0-5.9,3.7-10.2,9.5-10.2
	C169.7,300.5,173,305,173,310.4z M158.9,310.6c0,3.8,1.8,6.5,4.8,6.5s4.7-2.8,4.7-6.6c0-3.5-1.7-6.5-4.7-6.5
	C160.5,304,158.9,306.8,158.9,310.6L158.9,310.6z"/>
<path class="st0" d="M178,301c2-0.3,3.9-0.4,5.9-0.4c2.9,0,4.9,0.4,6.3,1.5c1.2,1,1.9,2.5,1.8,4.1c0,2.2-1.4,4.1-3.5,4.8v0.1
	c1.4,0.5,2.1,1.9,2.6,3.7c0.6,2.2,1.2,4.8,1.6,5.5h-4.5c-0.6-1.5-1.1-3-1.4-4.6c-0.5-2.4-1.4-3.1-3.2-3.1h-1.3v7.7H178L178,301z
	 M182.4,309.5h1.7c2.2,0,3.5-1.1,3.5-2.8s-1.2-2.7-3.2-2.7c-0.7,0-1.3,0-2,0.2V309.5z"/>
<path class="st0" d="M209.1,312.1h-7.2v4.7h8v3.6h-12.5v-19.6h12.1v3.6h-7.6v4.1h7.2L209.1,312.1z"/>
<path class="st0" d="M215.1,300.8h4.4v15.8h7.8v3.7h-12.2V300.8z"/>
<path class="st0" d="M236.5,300.8v19.5h-4.4v-19.5H236.5z"/>
<path class="st0" d="M247.1,315.3l-1.4,5h-4.6l6-19.5h5.8l6,19.6h-4.8l-1.5-5L247.1,315.3z M252.1,312l-1.2-4.2
	c-0.4-1.2-0.7-2.6-1-3.8h-0.1c-0.3,1.2-0.6,2.6-0.9,3.8l-1.2,4.2H252.1z"/>
<path class="st0" d="M3.2,209.2v16c0,0,9.2-0.9,14.8,2.5c3.8,2.4,6.5,6.3,7.4,10.7l0.1,23.3H20v23.8h29v-24h-4v-23
	c0,0,2.2-13.9,22-13.8c19.9,0.2,21.2,13.8,21.2,13.8v23.2h-5v23.8l29-0.5v-23.5h-4v-23c0,0,1.5-14,20.7-14s22,14,22,14V262h-5v23.5
	h29.5v-23.8h-4.2v-23.2c0,0,2.8-13.6,21.2-14.1s21.8,14,21.8,14v23l-5.2,0.2V285h29.8v-23.2h-4.2V238c0,0,1.5-13.2,21-13.5v-15.2
	C255.5,209.2,3.2,210,3.2,209.2z"/>
</svg>
