<?xml version="1.0" encoding="utf-8"?>
<!-- Generator: Adobe Illustrator 19.2.0, SVG Export Plug-In . SVG Version: 6.00 Build 0)  -->
<svg version="1.1" id="Capa_1" xmlns="http://www.w3.org/2000/svg" xmlns:xlink="http://www.w3.org/1999/xlink" x="0px" y="0px"
	 viewBox="0 0 187.8 84.4" style="enable-background:new 0 0 187.8 84.4;" xml:space="preserve">
<style type="text/css">
	.st0{fill:#FFFFFF;}
</style>
<title>logo_cuaed2</title>
<circle class="st0" cx="33.1" cy="17" r="1.3"/>
<path class="st0" d="M30.4,65C19.3,65,9.8,56.9,8,45.8l-6-0.1c1.7,14.4,13.9,25.2,28.4,25.2L30.4,65L30.4,65z M30.4,13.7
	c-14.3,0-26.4,10.5-28.3,24.7h6C10,27.5,19.4,19.6,30.4,19.6V13.7L30.4,13.7z"/>
<circle class="st0" cx="5.4" cy="42.5" r="1.3"/>
<circle class="st0" cx="33.1" cy="69.1" r="1.3"/>
<path class="st0" d="M30.4,24.2c8.9,0,16.4,6.5,17.8,15.2l4.8,0.1c-1.4-11.4-11.1-20-22.6-20L30.4,24.2L30.4,24.2z M30.4,65
	c11.4,0,21-8.4,22.5-19.6h-4.8c-1.5,8.6-9,14.9-17.8,14.9L30.4,65L30.4,65z"/>
<circle class="st0" cx="50.9" cy="42.5" r="1.5"/>
<path class="st0" d="M39.3,44.5l-1.7-1C37,49,32,52.9,26.5,52.2s-9.4-5.6-8.7-11.1c0.7-5.5,5.6-9.4,11.1-8.7
	c4.6,0.6,8.2,4.2,8.7,8.7l1.7-1l2.9-1.7c-2.1-8-10.3-12.8-18.4-10.6S11.2,38.1,13.3,46.1s10.3,12.8,18.4,10.6
	c5.2-1.4,9.3-5.4,10.6-10.6L39.3,44.5z"/>
<rect x="27.5" y="42.3" transform="matrix(1 -7.853901e-03 7.853901e-03 1 -0.3327 0.3083)" class="st0" width="23.1" height="0.4"/>
<circle class="st0" cx="27.5" cy="42.3" r="3.4"/>
<path class="st0" d="M177.8,44.1h3.2c1,0,1.5-0.4,1.5-1s-0.5-1-1.5-1h-3.2v-1.3h3.1c1.7,0,2.6,0.9,2.6,2.3s-0.8,2.2-2.6,2.2h-3.1
	L177.8,44.1L177.8,44.1z"/>
<path class="st0" d="M183.4,38.7h-5.6v-1.5l2.1-1.2c0.6-0.3,1.3-0.7,1.9-0.9l0,0c-0.8,0.1-1.6,0.1-2.3,0.1h-1.6v-1.2h5.6v1.3
	l-2.2,1.2c-0.6,0.4-1.3,0.7-2,1l0,0c0.7,0,1.5,0,2.4,0h1.7L183.4,38.7L183.4,38.7z"/>
<path class="st0" d="M181.9,30.5l1.4,0.4v1.3l-5.6-1.7v-1.7l5.6-1.7v1.4l-1.4,0.4C181.9,28.9,181.9,30.5,181.9,30.5z M180.9,29.1
	l-1.2,0.4c-0.3,0.1-0.8,0.2-1.1,0.3l0,0c0.3,0.1,0.8,0.2,1.1,0.3l1.2,0.3C180.9,30.3,180.9,29.1,180.9,29.1z"/>
<path class="st0" d="M181.2,21.2c-0.7,0-1.5,0-2.3,0l0,0c0.7,0.2,1.5,0.4,2.2,0.6l2.2,0.7v1l-2.2,0.6c-0.7,0.2-1.5,0.4-2.2,0.5l0,0
	c0.8,0,1.6,0.1,2.3,0.1l2.1,0.1v1.2l-5.6-0.4v-1.7l1.9-0.5c0.6-0.2,1.4-0.4,2-0.5l0,0c-0.6-0.2-1.4-0.4-2-0.5l-1.9-0.6v-1.7l5.6-0.3
	v1.2L181.2,21.2z"/>
<path class="st0" d="M82.3,39.2c-0.6,1-1.3,1.9-2.1,2.8c-0.8,0.8-1.7,1.6-2.7,2.2c-2.1,1.2-4.5,1.9-6.9,1.9c-1.8,0-3.6-0.3-5.2-1
	c-3.2-1.4-5.8-3.9-7.2-7.2c-1.4-3.3-1.4-7.1,0-10.4c1.4-3.2,3.9-5.8,7.2-7.1c1.6-0.7,3.4-1.1,5.2-1.1c2.4,0,4.8,0.6,6.9,1.9
	c1,0.6,1.9,1.3,2.7,2.2c0.8,0.8,1.5,1.8,2.1,2.8L77.7,28c-0.4-0.6-0.8-1.1-1.3-1.6c-0.5-0.5-1.1-0.9-1.7-1.3
	c-0.6-0.4-1.3-0.7-1.9-0.9c-0.7-0.2-1.4-0.3-2.1-0.3c-1.1,0-2.3,0.2-3.3,0.7c-1,0.5-1.9,1.1-2.7,1.9c-0.8,0.8-1.4,1.8-1.8,2.8
	c-0.9,2.1-0.9,4.6,0,6.7c0.4,1,1,2,1.8,2.8c0.8,0.8,1.7,1.5,2.7,1.9c1,0.5,2.2,0.7,3.3,0.7c0.7,0,1.4-0.1,2.1-0.3
	c0.7-0.2,1.3-0.5,1.9-0.9c0.6-0.4,1.2-0.8,1.7-1.3c0.5-0.5,0.9-1,1.3-1.6L82.3,39.2z"/>
<path class="st0" d="M94.8,46.1c-1.6,0-3.1-0.2-4.6-0.8c-1.3-0.5-2.5-1.2-3.5-2.2c-1-1-1.8-2.1-2.2-3.4c-0.5-1.4-0.8-3-0.8-4.5V19.7
	h5v15.4c0,1.1,0.2,2.2,0.6,3.2c0.4,0.8,0.9,1.5,1.6,2c0.6,0.5,1.3,0.8,2,1c1.3,0.4,2.6,0.4,3.9,0c0.7-0.2,1.4-0.5,2-1
	c0.7-0.5,1.2-1.2,1.6-2c0.5-1,0.7-2.1,0.6-3.2V19.7h5v15.4c0,1.5-0.2,3.1-0.8,4.5c-0.5,1.3-1.3,2.5-2.3,3.4c-1,1-2.2,1.7-3.5,2.2
	C97.9,45.8,96.3,46.1,94.8,46.1z"/>
<path class="st0" d="M104,45.6l13.2-25.9h0.5l13.2,25.9h-5.4l-2-4.1h-12.2l-2,4.1H104L104,45.6z M113.7,37.2h7.4l-3.7-7.8
	L113.7,37.2z"/>
<path class="st0" d="M136.5,24.1v6.5H149v4.5h-12.5v6.1h14.1v4.5h-19.1V19.7h19.1v4.4H136.5z"/>
<path class="st0" d="M161.8,45.6h-10.2V19.7h10.2c3.3-0.1,6.6,1,9.1,3.3c1.3,1.2,2.3,2.6,2.9,4.2c0.7,1.8,1,3.6,1,5.5
	c0,1.9-0.3,3.8-1,5.5c-0.6,1.6-1.6,3-2.9,4.2c-1.2,1.1-2.5,1.9-4,2.4C165.2,45.4,163.5,45.6,161.8,45.6z M156.5,41.2h5.3
	c0.9,0,1.9-0.1,2.8-0.3c0.9-0.2,1.8-0.6,2.6-1.3c0.8-0.7,1.5-1.6,1.9-2.6c0.5-1.4,0.8-2.9,0.7-4.3c0.1-1.5-0.2-3-0.7-4.4
	c-0.4-1-1.1-1.9-1.9-2.6c-0.8-0.6-1.6-1-2.6-1.2c-0.9-0.2-1.8-0.3-2.8-0.3h-5.3L156.5,41.2L156.5,41.2z"/>
<path class="st0" d="M60.9,56.7c-0.4,0.2-0.9,0.2-1.3,0.2c-1.3,0.1-2.4-0.9-2.4-2.2c0-0.1,0-0.2,0-0.3c-0.1-1.4,1-2.5,2.3-2.6
	c0.1,0,0.2,0,0.3,0c0.4,0,0.8,0.1,1.2,0.2l-0.2,0.5c-0.3-0.1-0.7-0.2-1-0.2c-1-0.1-1.9,0.7-1.9,1.7c0,0.1,0,0.2,0,0.3
	c-0.1,1,0.6,1.9,1.6,2c0.1,0,0.2,0,0.3,0c0.3,0,0.7-0.1,1-0.2L60.9,56.7z"/>
<path class="st0" d="M64.9,55c0.1,1-0.6,1.8-1.6,1.9c-0.1,0-0.1,0-0.2,0c-0.9,0-1.7-0.7-1.7-1.7c0,0,0-0.1,0-0.1
	c-0.1-1,0.6-1.8,1.6-1.9c0.1,0,0.1,0,0.2,0c0.9,0,1.7,0.7,1.7,1.6C64.9,54.9,64.9,54.9,64.9,55z M62.1,55c0.1,0.6,0.8,1,1.3,0.8
	s1-0.8,0.8-1.3c-0.1-0.5-0.6-0.8-1.1-0.8c-0.7,0-1.2,0.6-1.2,1.3C62,55,62,55,62.1,55L62.1,55z"/>
<path class="st0" d="M68.9,55c0.1,1-0.6,1.8-1.6,1.9c-0.1,0-0.1,0-0.2,0c-0.9,0-1.7-0.7-1.7-1.7c0,0,0-0.1,0-0.1
	c-0.1-1,0.6-1.8,1.6-1.9c0.1,0,0.1,0,0.2,0c0.9,0,1.7,0.7,1.7,1.6C68.9,54.9,68.9,54.9,68.9,55z M66.1,55c0.1,0.6,0.8,1,1.3,0.8
	s1-0.8,0.8-1.3c-0.1-0.5-0.6-0.8-1.1-0.8C66.5,53.7,66,54.2,66.1,55C66,55,66,55,66.1,55L66.1,55z"/>
<path class="st0" d="M69.7,54.4c0-0.4,0-0.8,0-1.1h0.6V54l0,0c0.1-0.5,0.5-0.8,1-0.8h0.2v0.6h-0.2c-0.5,0-0.8,0.4-0.9,0.8
	c0,0.1,0,0.2,0,0.3v1.9h-0.7V54.4z"/>
<path class="st0" d="M75.1,51.6v4.3c0,0.3,0,0.7,0,0.9h-0.6v-0.6l0,0c-0.2,0.4-0.7,0.7-1.2,0.7c-0.9,0-1.6-0.8-1.5-1.7
	c0,0,0-0.1,0-0.1c-0.1-0.9,0.5-1.8,1.5-1.9c0,0,0.1,0,0.1,0c0.4,0,0.8,0.2,1.1,0.5l0,0v-2.1H75.1L75.1,51.6z M74.4,54.7
	c0-0.1,0-0.2,0-0.3c-0.1-0.4-0.5-0.7-0.9-0.8c-0.6,0.1-1.1,0.6-1.1,1.3c0,0,0,0.1,0,0.1c-0.1,0.6,0.3,1.2,0.9,1.3c0,0,0,0,0.1,0
	c0.5,0,0.8-0.3,0.9-0.8c0-0.1,0-0.2,0-0.3L74.4,54.7L74.4,54.7z"/>
<path class="st0" d="M76.9,52.3c0,0.2-0.2,0.4-0.4,0.4s-0.4-0.2-0.4-0.4c0-0.2,0.2-0.4,0.4-0.4c0,0,0,0,0,0
	C76.7,51.9,76.9,52.1,76.9,52.3C76.9,52.3,76.9,52.3,76.9,52.3z M76.2,56.8v-3.6h0.6v3.5L76.2,56.8L76.2,56.8z"/>
<path class="st0" d="M77.9,54.3c0-0.4,0-0.7,0-1h0.6v0.6l0,0c0.2-0.4,0.7-0.7,1.2-0.7c0.7,0,1.3,0.6,1.3,1.3c0,0.1,0,0.2,0,0.3v2.1
	h-0.7v-2c0.1-0.5-0.3-0.9-0.7-1c0,0-0.1,0-0.1,0c-0.4,0-0.7,0.3-0.9,0.7c0,0.1,0,0.2,0,0.3v2.1h-0.7V54.3z"/>
<path class="st0" d="M83.9,56.8v-0.4l0,0c-0.3,0.3-0.7,0.5-1.1,0.5c-0.6,0-1-0.4-1.1-0.9c0,0,0-0.1,0-0.1c0-0.9,0.8-1.3,2.1-1.3
	v-0.1c0.1-0.4-0.2-0.8-0.6-0.8c-0.1,0-0.1,0-0.2,0c-0.3,0-0.6,0.1-0.9,0.3l-0.2-0.4c0.4-0.2,0.8-0.3,1.2-0.3
	c0.7-0.1,1.3,0.5,1.4,1.2c0,0.1,0,0.2,0,0.3V56c0,0.3,0,0.6,0.1,0.8H83.9z M83.8,55c-0.7,0-1.5,0.1-1.5,0.8c0,0.3,0.2,0.6,0.5,0.6
	c0,0,0.1,0,0.1,0c0.4,0,0.7-0.2,0.9-0.6c0-0.1,0-0.1,0-0.2L83.8,55L83.8,55z"/>
<path class="st0" d="M88,56.7c-0.3,0.1-0.7,0.2-1,0.2c-0.9,0.1-1.7-0.7-1.8-1.6c0-0.1,0-0.2,0-0.2c0-1,0.7-1.8,1.7-1.9
	c0.1,0,0.1,0,0.2,0c0.3,0,0.6,0.1,0.9,0.2l-0.2,0.5c-0.2-0.1-0.5-0.2-0.8-0.2c-0.7,0.1-1.3,0.7-1.2,1.5c0.1,0.6,0.6,1.2,1.2,1.2
	c0.3,0,0.5-0.1,0.8-0.2L88,56.7z"/>
<path class="st0" d="M89.5,52.3c0,0.2-0.2,0.4-0.4,0.4s-0.4-0.2-0.4-0.4c0-0.2,0.2-0.4,0.4-0.4c0,0,0,0,0,0
	C89.3,51.9,89.4,52.1,89.5,52.3C89.5,52.3,89.5,52.3,89.5,52.3z M88.7,56.8v-3.6h0.6v3.5C89.4,56.8,88.7,56.8,88.7,56.8z"/>
<path class="st0" d="M93.7,55c0.1,0.9-0.6,1.8-1.5,1.9c-0.1,0-0.2,0-0.3,0c-0.9,0-1.7-0.7-1.7-1.7c0,0,0-0.1,0-0.1
	c-0.1-1,0.6-1.8,1.6-1.9c0.1,0,0.1,0,0.2,0c0.9,0,1.7,0.7,1.7,1.6C93.7,54.9,93.7,55,93.7,55z M90.8,55c0.1,0.6,0.8,1,1.3,0.8
	s1-0.8,0.8-1.3c-0.1-0.5-0.6-0.8-1.1-0.8C91.3,53.7,90.8,54.3,90.8,55C90.9,55,90.9,55,90.8,55L90.8,55z M92.8,51.7l-0.9,1h-0.5
	l0.6-1H92.8L92.8,51.7z"/>
<path class="st0" d="M94.5,54.3c0-0.4,0-0.7,0-1H95v0.6l0,0c0.2-0.4,0.7-0.7,1.2-0.7c0.7,0,1.3,0.6,1.3,1.3c0,0.1,0,0.1,0,0.2v2.1
	h-0.6v-2c0.1-0.5-0.3-0.9-0.7-1c0,0-0.1,0-0.1,0c-0.4,0-0.7,0.3-0.9,0.7c0,0.1,0,0.2,0,0.3v2.1h-0.7V54.3z"/>
<path class="st0" d="M103.2,51.6v4.3c0,0.3,0,0.7,0,0.9h-0.6v-0.6l0,0c-0.2,0.4-0.7,0.7-1.2,0.7c-0.9,0-1.6-0.8-1.5-1.7
	c0,0,0-0.1,0-0.1c-0.1-0.9,0.5-1.8,1.5-1.9c0,0,0.1,0,0.1,0c0.4,0,0.8,0.2,1.1,0.5l0,0v-2.1H103.2L103.2,51.6z M102.5,54.7
	c0-0.1,0-0.2,0-0.3c-0.1-0.4-0.5-0.7-0.9-0.8c-0.6,0.1-1.1,0.6-1.1,1.3c0,0,0,0.1,0,0.1c-0.1,0.6,0.3,1.2,0.9,1.3c0,0,0,0,0.1,0
	c0.5,0,0.8-0.3,0.9-0.8c0-0.1,0-0.2,0-0.3L102.5,54.7L102.5,54.7z"/>
<path class="st0" d="M104.6,55.2c-0.1,0.6,0.4,1.2,1,1.2c0.1,0,0.1,0,0.2,0c0.3,0,0.7,0,1-0.2l0.1,0.5c-0.4,0.2-0.8,0.2-1.2,0.2
	c-0.9,0.1-1.7-0.6-1.7-1.6c0-0.1,0-0.2,0-0.2c-0.1-0.9,0.6-1.8,1.5-1.9c0,0,0.1,0,0.1,0c0.8,0,1.5,0.7,1.5,1.5c0,0.1,0,0.1,0,0.1
	c0,0.1,0,0.2,0,0.3L104.6,55.2L104.6,55.2z M106.5,54.7c0-0.5-0.3-1-0.8-1c0,0,0,0-0.1,0c-0.5,0-1,0.5-1,1H106.5L106.5,54.7z"/>
<path class="st0" d="M110.1,51.9v2.9c0,1.1,0.5,1.6,1.2,1.6s1.2-0.5,1.2-1.6v-2.9h0.6v2.9c0,1.5-0.8,2.1-1.9,2.1s-1.8-0.6-1.8-2.1
	v-2.9H110.1L110.1,51.9z"/>
<path class="st0" d="M114.2,54.3c0-0.4,0-0.7,0-1h0.6v0.6l0,0c0.2-0.4,0.7-0.7,1.2-0.7c0.7,0,1.3,0.6,1.3,1.3c0,0.1,0,0.1,0,0.2v2.1
	h-0.6v-2c0.1-0.5-0.3-0.9-0.7-1c0,0-0.1,0-0.1,0c-0.4,0-0.7,0.3-0.9,0.7c0,0.1,0,0.2,0,0.3v2.1h-0.6L114.2,54.3L114.2,54.3z"/>
<path class="st0" d="M119,52.3c0,0.2-0.2,0.4-0.4,0.4c-0.2,0-0.4-0.2-0.4-0.4c0-0.2,0.2-0.4,0.4-0.4c0,0,0,0,0,0
	C118.8,51.9,119,52.1,119,52.3C119,52.3,119,52.3,119,52.3z M118.3,56.8v-3.6h0.6v3.5L118.3,56.8L118.3,56.8z"/>
<path class="st0" d="M120.2,53.3l0.7,2c0.1,0.3,0.2,0.6,0.3,0.9l0,0c0.1-0.3,0.2-0.6,0.3-0.9l0.7-2h0.7l-1.4,3.5h-0.6l-1.4-3.5
	H120.2L120.2,53.3z"/>
<path class="st0" d="M123.8,55.2c-0.1,0.6,0.4,1.2,1,1.2c0.1,0,0.1,0,0.2,0c0.3,0,0.7,0,1-0.2l0.1,0.5c-0.4,0.2-0.8,0.2-1.2,0.2
	c-0.9,0.1-1.7-0.6-1.7-1.6c0-0.1,0-0.2,0-0.2c-0.1-0.9,0.6-1.8,1.5-1.9c0.1,0,0.1,0,0.2,0c0.8,0,1.5,0.7,1.5,1.5c0,0.1,0,0.1,0,0.1
	c0,0.1,0,0.2,0,0.3L123.8,55.2L123.8,55.2z M125.7,54.7c0-0.5-0.3-1-0.8-1c0,0,0,0-0.1,0c-0.5,0-1,0.5-1,1H125.7L125.7,54.7z"/>
<path class="st0" d="M127.1,54.4c0-0.4,0-0.8,0-1.1h0.6V54l0,0c0.1-0.5,0.5-0.8,1-0.8h0.2v0.6h-0.2c-0.5,0-0.8,0.4-0.9,0.8
	c0,0.1,0,0.2,0,0.3v1.9h-0.6L127.1,54.4L127.1,54.4z"/>
<path class="st0" d="M129.4,56.2c0.3,0.2,0.5,0.3,0.9,0.3c0.3,0.1,0.6-0.1,0.7-0.4c0,0,0-0.1,0-0.1c0-0.3-0.3-0.6-0.7-0.7
	c-0.5-0.1-0.9-0.5-0.9-1c0-0.6,0.6-1.1,1.2-1c0,0,0,0,0.1,0c0.3,0,0.6,0.1,0.9,0.2l-0.2,0.5c-0.2-0.1-0.5-0.2-0.7-0.2
	c-0.3,0-0.5,0.2-0.6,0.4c0,0,0,0,0,0c0,0.3,0.2,0.4,0.7,0.6c0.6,0,1,0.6,1,1.2c0,0.6-0.6,1-1.2,1c-0.1,0-0.2,0-0.2,0
	c-0.3,0-0.7-0.1-1-0.2L129.4,56.2z"/>
<path class="st0" d="M133.1,52.3c0,0.2-0.2,0.4-0.4,0.4c-0.2,0-0.4-0.2-0.4-0.4c0-0.2,0.2-0.4,0.4-0.4c0,0,0,0,0,0
	C132.9,51.9,133.1,52.1,133.1,52.3C133.1,52.3,133.1,52.3,133.1,52.3z M132.4,56.8v-3.6h0.6v3.5C133,56.8,132.4,56.8,132.4,56.8z"/>
<path class="st0" d="M137.2,51.6v4.3c0,0.3,0,0.7,0,0.9h-0.6v-0.6l0,0c-0.2,0.4-0.7,0.7-1.2,0.7c-0.9,0-1.6-0.8-1.5-1.7
	c0,0,0-0.1,0-0.1c-0.1-0.9,0.5-1.8,1.5-1.9c0,0,0.1,0,0.1,0c0.4,0,0.8,0.2,1.1,0.5l0,0v-2.1H137.2L137.2,51.6z M136.5,54.7
	c0-0.1,0-0.2,0-0.3c-0.1-0.4-0.5-0.7-0.9-0.8c-0.6,0.1-1.1,0.6-1.1,1.3c0,0,0,0.1,0,0.1c-0.1,0.6,0.3,1.2,0.9,1.3c0,0,0,0,0.1,0
	c0.5,0,0.8-0.3,0.9-0.8c0-0.1,0-0.2,0-0.3L136.5,54.7L136.5,54.7z"/>
<path class="st0" d="M140.2,56.8l-0.1-0.5l0,0c-0.3,0.3-0.7,0.5-1.1,0.5c-0.6,0-1-0.4-1.1-0.9c0,0,0-0.1,0-0.1
	c0-0.9,0.8-1.3,2.1-1.3v-0.1c0.1-0.4-0.2-0.8-0.6-0.8c-0.1,0-0.1,0-0.2,0c-0.3,0-0.6,0.1-0.9,0.3l-0.1-0.4c0.4-0.2,0.8-0.3,1.2-0.3
	c0.7-0.1,1.3,0.5,1.4,1.2c0,0.1,0,0.2,0,0.3V56c0,0.3,0,0.6,0.1,0.8H140.2L140.2,56.8z M140.1,55c-0.7,0-1.5,0.1-1.5,0.8
	c0,0.3,0.2,0.6,0.5,0.6c0,0,0.1,0,0.1,0c0.4,0,0.7-0.2,0.9-0.6c0-0.1,0-0.1,0-0.2L140.1,55L140.1,55z"/>
<path class="st0" d="M144.9,51.6v4.3c0,0.3,0,0.7,0,0.9h-0.6v-0.6l0,0c-0.2,0.4-0.7,0.7-1.2,0.7c-0.9,0-1.6-0.8-1.5-1.7
	c0,0,0-0.1,0-0.1c-0.1-0.9,0.5-1.8,1.5-1.9c0,0,0.1,0,0.1,0c0.4,0,0.8,0.2,1.1,0.5l0,0v-2.1H144.9z M144.2,54.7c0-0.1,0-0.2,0-0.3
	c-0.1-0.4-0.5-0.7-0.9-0.8c-0.6,0.1-1.1,0.6-1.1,1.3c0,0,0,0.1,0,0.1c-0.1,0.6,0.3,1.2,0.9,1.3c0,0,0,0,0.1,0c0.5,0,0.8-0.3,0.9-0.8
	c0-0.1,0-0.2,0-0.3L144.2,54.7L144.2,54.7z"/>
<path class="st0" d="M148.3,55.3l-0.5,1.5h-0.7l1.7-4.9h0.8l1.7,4.9h-0.7l-0.5-1.5H148.3L148.3,55.3z M149.9,54.8l-0.5-1.4
	c-0.1-0.3-0.2-0.6-0.3-0.9l0,0c-0.1,0.3-0.1,0.6-0.2,0.9l-0.5,1.4H149.9L149.9,54.8z"/>
<path class="st0" d="M151.9,56.8c0-0.2,0-0.6,0-0.9v-4.3h0.6v2.2l0,0c0.2-0.4,0.7-0.7,1.2-0.7c0.9,0,1.6,0.7,1.6,1.6
	c0,0.1,0,0.1,0,0.2c0.1,0.9-0.5,1.8-1.5,1.9c0,0-0.1,0-0.1,0c-0.5,0-1-0.2-1.2-0.7l0,0v0.6L151.9,56.8L151.9,56.8z M152.6,55.4
	c0,0.1,0,0.2,0,0.2c0.1,0.5,0.5,0.8,1,0.8c0.7-0.2,1.2-0.9,1-1.7c-0.1-0.5-0.5-0.9-1-1c-0.5,0-0.9,0.3-1,0.8c0,0.1,0,0.2,0,0.3V55.4
	L152.6,55.4z"/>
<path class="st0" d="M156.8,52.3c0,0.2-0.2,0.4-0.4,0.4c-0.2,0-0.4-0.2-0.4-0.4c0-0.2,0.2-0.4,0.4-0.4c0,0,0,0,0,0
	C156.6,51.9,156.8,52.1,156.8,52.3C156.8,52.3,156.8,52.3,156.8,52.3z M156.1,56.8v-3.6h0.6v3.5C156.8,56.8,156.1,56.8,156.1,56.8z"
	/>
<path class="st0" d="M158.2,55.2c-0.1,0.6,0.4,1.2,1,1.2c0.1,0,0.1,0,0.2,0c0.3,0,0.7,0,1-0.2l0.1,0.5c-0.4,0.2-0.8,0.2-1.2,0.2
	c-0.9,0.1-1.7-0.6-1.7-1.6c0-0.1,0-0.2,0-0.2c-0.1-0.9,0.6-1.8,1.5-1.9c0,0,0.1,0,0.1,0c0.8,0,1.5,0.7,1.5,1.5c0,0.1,0,0.1,0,0.1
	c0,0.1,0,0.2,0,0.3C160.7,55.2,158.2,55.2,158.2,55.2z M160.1,54.7c0-0.5-0.3-1-0.8-1c0,0,0,0-0.1,0c-0.5,0-1,0.5-1,1H160.1
	L160.1,54.7z"/>
<path class="st0" d="M161.5,54.4c0-0.4,0-0.8,0-1.1h0.6V54l0,0c0.1-0.5,0.5-0.8,1-0.8h0.2v0.6H163c-0.5,0-0.8,0.4-0.9,0.8
	c0,0.1,0,0.2,0,0.3v1.9h-0.6L161.5,54.4L161.5,54.4z"/>
<path class="st0" d="M164.9,52.3v1h0.9v0.5h-0.9v1.9c0,0.4,0.1,0.7,0.5,0.7c0.1,0,0.2,0,0.4,0v0.5c-0.2,0.1-0.4,0.1-0.6,0.1
	c-0.3,0-0.5-0.1-0.7-0.3c-0.2-0.3-0.3-0.6-0.2-0.9v-2h-0.6v-0.5h0.6v-0.8L164.9,52.3z"/>
<path class="st0" d="M168.5,56.8l-0.1-0.5l0,0c-0.3,0.3-0.7,0.5-1.1,0.5c-0.6,0-1-0.4-1.1-0.9c0,0,0-0.1,0-0.1
	c0-0.9,0.8-1.3,2.1-1.3v-0.1c0.1-0.4-0.2-0.8-0.6-0.8c-0.1,0-0.1,0-0.2,0c-0.3,0-0.6,0.1-0.9,0.3l-0.1-0.4c0.4-0.2,0.8-0.3,1.2-0.3
	c0.7-0.1,1.3,0.5,1.4,1.2c0,0.1,0,0.2,0,0.3V56c0,0.3,0,0.6,0.1,0.8H168.5L168.5,56.8z M168.4,55c-0.7,0-1.5,0.1-1.5,0.8
	c0,0.3,0.2,0.6,0.5,0.6c0,0,0.1,0,0.1,0c0.4,0,0.7-0.2,0.9-0.6c0-0.1,0-0.1,0-0.2L168.4,55L168.4,55z"/>
<path class="st0" d="M171.8,53.3l0.8,2.1c0.1,0.2,0.2,0.5,0.2,0.7l0,0c0.1-0.2,0.1-0.5,0.2-0.7l0.7-2.1h0.7l-1,2.5
	c-0.2,0.8-0.6,1.6-1.2,2.2c-0.2,0.2-0.5,0.4-0.8,0.4l-0.2-0.5c0.2-0.1,0.4-0.2,0.6-0.3c0.2-0.2,0.4-0.4,0.5-0.7c0,0,0-0.1,0.1-0.2
	c0-0.1,0-0.1,0-0.2l-1.3-3.3L171.8,53.3L171.8,53.3z"/>
<path class="st0" d="M85.7,63.3h-1.9v1.8h2.1v0.5h-2.7v-4.9h2.7v0.5h-2v1.6h1.9L85.7,63.3L85.7,63.3z"/>
<path class="st0" d="M89.8,60.4v4.3c0,0.3,0,0.7,0,0.9h-0.6V65l0,0c-0.2,0.4-0.7,0.7-1.2,0.7c-0.9,0-1.6-0.8-1.5-1.7
	c0,0,0-0.1,0-0.1C86.3,63,87,62.1,87.9,62c0,0,0.1,0,0.1,0c0.4,0,0.8,0.2,1.1,0.5l0,0v-2.1H89.8L89.8,60.4z M89.1,63.5
	c0-0.1,0-0.2,0-0.3c-0.1-0.4-0.5-0.7-0.9-0.8c-0.6,0.1-1.1,0.6-1.1,1.3c0,0,0,0.1,0,0.1c-0.1,0.6,0.3,1.2,0.9,1.3c0,0,0,0,0.1,0
	c0.5,0,0.8-0.3,0.9-0.8c0-0.1,0-0.2,0-0.3L89.1,63.5L89.1,63.5z"/>
<path class="st0" d="M93.8,64.7c0,0.4,0,0.7,0,1h-0.6v-0.6l0,0c-0.2,0.4-0.7,0.7-1.2,0.7c-0.6,0-1.2-0.3-1.2-1.6v-2.1h0.6v2
	c0,0.7,0.2,1.1,0.8,1.1c0.5,0,0.9-0.4,0.9-0.9c0,0,0,0,0,0v-2.2h0.6L93.8,64.7L93.8,64.7z"/>
<path class="st0" d="M97.4,65.5c-0.3,0.1-0.7,0.2-1,0.2c-0.9,0.1-1.7-0.7-1.8-1.6c0-0.1,0-0.2,0-0.2c-0.1-1,0.7-1.8,1.7-1.9
	c0.1,0,0.1,0,0.2,0c0.3,0,0.6,0.1,0.9,0.2l-0.2,0.5c-0.2-0.1-0.5-0.2-0.8-0.2c-0.7,0.1-1.3,0.7-1.2,1.5c0.1,0.6,0.6,1.2,1.2,1.2
	c0.3,0,0.5-0.1,0.8-0.2L97.4,65.5z"/>
<path class="st0" d="M100.1,65.6l-0.1-0.4l0,0c-0.3,0.3-0.7,0.5-1.1,0.5c-0.6,0-1-0.4-1.1-0.9c0,0,0-0.1,0-0.1
	c0-0.9,0.8-1.3,2.1-1.3v-0.1c0.1-0.4-0.2-0.8-0.6-0.8c-0.1,0-0.1,0-0.2,0c-0.3,0-0.6,0.1-0.9,0.3l-0.2-0.4c0.4-0.2,0.8-0.3,1.2-0.3
	c0.7-0.1,1.3,0.5,1.4,1.2c0,0.1,0,0.2,0,0.3v1.3c0,0.3,0,0.6,0.1,0.8H100.1L100.1,65.6z M100,63.8c-0.7,0-1.5,0.1-1.5,0.8
	c0,0.3,0.2,0.6,0.5,0.6c0,0,0.1,0,0.1,0c0.4,0,0.7-0.2,0.9-0.6c0-0.1,0-0.1,0-0.2L100,63.8L100,63.8z"/>
<path class="st0" d="M104.2,65.5c-0.3,0.1-0.7,0.2-1,0.2c-0.9,0.1-1.7-0.7-1.8-1.6c0-0.1,0-0.2,0-0.2c-0.1-1,0.7-1.8,1.7-1.9
	c0.1,0,0.1,0,0.2,0c0.3,0,0.6,0.1,0.9,0.2l-0.2,0.5c-0.2-0.1-0.5-0.2-0.8-0.2c-0.7,0.1-1.3,0.7-1.2,1.5c0.1,0.6,0.6,1.2,1.2,1.2
	c0.3,0,0.5-0.1,0.8-0.2L104.2,65.5z"/>
<path class="st0" d="M105.7,61.1c0,0.2-0.2,0.4-0.4,0.4s-0.4-0.2-0.4-0.4c0-0.2,0.2-0.4,0.4-0.4c0,0,0,0,0,0
	C105.5,60.7,105.7,60.8,105.7,61.1C105.7,61.1,105.7,61.1,105.7,61.1z M105,65.6v-3.5h0.6v3.6L105,65.6L105,65.6z"/>
<path class="st0" d="M109.9,63.8c0.1,1-0.6,1.8-1.6,1.9c-0.1,0-0.1,0-0.2,0c-0.9,0-1.7-0.7-1.7-1.7c0,0,0-0.1,0-0.1
	c-0.1-1,0.6-1.8,1.6-1.9c0.1,0,0.2,0,0.2,0c0.9,0,1.7,0.7,1.7,1.7C109.9,63.7,109.9,63.8,109.9,63.8z M107.1,63.8
	c0.1,0.6,0.8,1,1.3,0.8s1-0.8,0.8-1.3c-0.1-0.5-0.6-0.8-1.1-0.8C107.5,62.5,107,63.1,107.1,63.8C107.1,63.8,107.1,63.8,107.1,63.8
	L107.1,63.8z M109.1,60.5l-0.9,1h-0.5l0.6-1H109.1z"/>
<path class="st0" d="M110.7,63.1c0-0.4,0-0.7,0-1h0.6v0.6l0,0c0.2-0.4,0.7-0.7,1.2-0.7c0.7,0,1.3,0.6,1.3,1.3c0,0.1,0,0.1,0,0.2v2.1
	h-0.6v-2c0.1-0.5-0.3-0.9-0.7-1c0,0-0.1,0-0.1,0c-0.4,0-0.7,0.3-0.9,0.7c0,0.1,0,0.2,0,0.3v2.1h-0.6L110.7,63.1L110.7,63.1z"/>
<path class="st0" d="M118.3,65.6l-0.1-0.4l0,0c-0.3,0.3-0.7,0.5-1.1,0.5c-0.6,0-1-0.4-1.1-0.9c0,0,0-0.1,0-0.1
	c0-0.9,0.8-1.3,2.1-1.3v-0.1c0.1-0.4-0.2-0.8-0.6-0.8c-0.1,0-0.1,0-0.2,0c-0.3,0-0.6,0.1-0.9,0.3l-0.1-0.4c0.3-0.2,0.7-0.3,1.1-0.3
	c0.7-0.1,1.3,0.5,1.4,1.2c0,0.1,0,0.2,0,0.3v1.4c0,0.3,0,0.6,0.1,0.8H118.3L118.3,65.6z M118.2,63.8c-0.7,0-1.5,0.1-1.5,0.8
	c0,0.3,0.2,0.6,0.5,0.6c0,0,0.1,0,0.1,0c0.4,0,0.7-0.2,0.9-0.6c0-0.1,0-0.1,0-0.2L118.2,63.8L118.2,63.8z"/>
<path class="st0" d="M121.4,60.8c0.5-0.1,0.9-0.1,1.4-0.1c0.7-0.1,1.4,0.2,2,0.6c0.5,0.5,0.7,1.1,0.7,1.8c0,0.7-0.2,1.4-0.7,1.9
	c-0.6,0.5-1.4,0.8-2.2,0.7c-0.4,0-0.8,0-1.2-0.1V60.8z M122.1,65.1c0.2,0,0.4,0,0.6,0c1,0.1,2-0.6,2.1-1.7c0-0.1,0-0.3,0-0.4
	c0.1-1-0.6-1.8-1.6-1.9c-0.1,0-0.3,0-0.4,0c-0.3,0-0.5,0-0.8,0.1L122.1,65.1L122.1,65.1z"/>
<path class="st0" d="M127,61.1c0,0.2-0.2,0.4-0.4,0.4c-0.2,0-0.4-0.2-0.4-0.4c0-0.2,0.2-0.4,0.4-0.4c0,0,0,0,0,0
	C126.8,60.7,127,60.8,127,61.1C127,61.1,127,61.1,127,61.1z M126.3,65.6v-3.5h0.6v3.6L126.3,65.6L126.3,65.6z"/>
<path class="st0" d="M127.9,65c0.3,0.2,0.5,0.3,0.9,0.3c0.3,0.1,0.6-0.1,0.7-0.4c0,0,0-0.1,0-0.1c0-0.3-0.3-0.6-0.7-0.7
	c-0.5-0.1-0.9-0.5-0.9-1c0-0.6,0.6-1.1,1.2-1c0,0,0,0,0.1,0c0.3,0,0.6,0.1,0.9,0.2l-0.2,0.5c-0.2-0.1-0.5-0.2-0.7-0.2
	c-0.3,0-0.5,0.2-0.6,0.4c0,0,0,0,0,0c0,0.3,0.2,0.4,0.7,0.6c0.6,0,1,0.6,1,1.2c0,0.6-0.6,1-1.2,1c-0.1,0-0.2,0-0.2,0
	c-0.3,0-0.7-0.1-1-0.2L127.9,65z"/>
<path class="st0" d="M131.7,61.1v1h0.9v0.5h-0.9v1.9c0,0.4,0.1,0.7,0.5,0.7c0.1,0,0.2,0,0.4,0v0.5c-0.2,0.1-0.4,0.1-0.6,0.1
	c-0.3,0-0.5-0.1-0.7-0.3c-0.2-0.3-0.3-0.6-0.2-0.9v-2h-0.6v-0.5h0.6v-0.8L131.7,61.1z"/>
<path class="st0" d="M135.3,65.6l-0.1-0.4l0,0c-0.3,0.3-0.7,0.5-1.1,0.5c-0.6,0-1-0.4-1.1-0.9c0,0,0-0.1,0-0.1
	c0-0.9,0.8-1.3,2.1-1.3v-0.1c0.1-0.4-0.2-0.8-0.6-0.8c-0.1,0-0.1,0-0.2,0c-0.3,0-0.6,0.1-0.9,0.3l-0.1-0.4c0.4-0.2,0.8-0.3,1.2-0.3
	c0.7-0.1,1.3,0.4,1.4,1.1c0,0.1,0,0.2,0,0.3v1.3c0,0.3,0,0.6,0.1,0.8H135.3L135.3,65.6z M135.2,63.8c-0.7,0-1.5,0.1-1.5,0.8
	c0,0.3,0.2,0.6,0.5,0.6c0,0,0.1,0,0.1,0c0.4,0,0.7-0.2,0.9-0.6c0-0.1,0-0.1,0-0.2L135.2,63.8L135.2,63.8z"/>
<path class="st0" d="M136.9,63.1c0-0.4,0-0.7,0-1h0.6v0.6l0,0c0.2-0.4,0.7-0.7,1.2-0.7c0.7,0,1.3,0.6,1.3,1.3c0,0.1,0,0.2,0,0.3v2.1
	h-0.6v-2c0.1-0.5-0.3-0.9-0.7-1c0,0-0.1,0-0.1,0c-0.4,0-0.7,0.3-0.9,0.7c0,0.1,0,0.2,0,0.3v2.1h-0.7V63.1z"/>
<path class="st0" d="M143.5,65.5c-0.3,0.1-0.7,0.2-1,0.2c-0.9,0.1-1.7-0.7-1.8-1.6c0-0.1,0-0.2,0-0.2c-0.1-1,0.7-1.8,1.7-1.9
	c0.1,0,0.1,0,0.2,0c0.3,0,0.6,0.1,0.9,0.2l-0.1,0.5c-0.2-0.1-0.5-0.2-0.8-0.2c-0.7,0.1-1.3,0.7-1.2,1.5c0.1,0.6,0.6,1.2,1.2,1.2
	c0.3,0,0.5-0.1,0.8-0.2L143.5,65.5z"/>
<path class="st0" d="M145,61.1c0,0.2-0.2,0.4-0.4,0.4c-0.2,0-0.4-0.2-0.4-0.4c0-0.2,0.2-0.4,0.4-0.4c0,0,0,0,0,0
	C144.8,60.7,144.9,60.8,145,61.1C145,61.1,145,61.1,145,61.1z M144.2,65.6v-3.5h0.6v3.6L144.2,65.6L144.2,65.6z"/>
<path class="st0" d="M147.9,65.6v-0.5l0,0c-0.3,0.3-0.7,0.5-1.1,0.5c-0.6,0-1-0.4-1.1-0.9c0,0,0-0.1,0-0.1c0-0.9,0.8-1.3,2.1-1.3
	v-0.1c0.1-0.4-0.2-0.8-0.6-0.8c-0.1,0-0.1,0-0.2,0c-0.3,0-0.6,0.1-0.9,0.3l-0.2-0.4c0.4-0.2,0.8-0.3,1.2-0.3
	c0.7-0.1,1.3,0.5,1.4,1.2c0,0.1,0,0.2,0,0.3v1.3c0,0.3,0,0.6,0.1,0.8H147.9z M147.8,63.8c-0.7,0-1.5,0.1-1.5,0.8
	c0,0.3,0.2,0.6,0.5,0.6c0,0,0.1,0,0.1,0c0.4,0,0.7-0.2,0.9-0.6c0-0.1,0-0.1,0-0.2L147.8,63.8L147.8,63.8z"/>
</svg>
