<?xml version="1.0" encoding="utf-8"?>
<!-- Generator: Adobe Illustrator 22.0.1, SVG Export Plug-In . SVG Version: 6.00 Build 0)  -->
<svg version="1.1" id="Capa_1" xmlns="http://www.w3.org/2000/svg" xmlns:xlink="http://www.w3.org/1999/xlink" x="0px" y="0px"
	 viewBox="0 0 283.7 237.4" style="enable-background:new 0 0 283.7 237.4;" xml:space="preserve">
<style type="text/css">
	.st0{fill:#E4E4E3;}
	.st1{fill:#474A4B;}
	.st2{fill:#3D4146;}
</style>
<g>
	<g>
		<g>
			
				<image style="overflow:visible;" width="1182" height="989" xlink:href="EBB6F17A33032A54.png"  transform="matrix(0.24 0 0 0.24 0 0)">
			</image>
		</g>
		<path class="st0" d="M153.5,200.1c0,0,33-8.1,63.1-15.3c30.1-7.2,31.8-26,31.8-26V32H139.8H30.3v126.8c0,0,2.1,18.8,32.3,26
			c30.1,7.2,63.7,15.3,63.7,15.3S137.2,203.8,153.5,200.1z"/>
	</g>
	<polygon class="st1" points="248.1,32.2 267.3,52.3 248.1,52.3 	"/>
	<polygon class="st1" points="30.2,32.2 11,52.3 30.2,52.3 	"/>
</g>
<g>
	<g>
		<g>
			<path class="st2" d="M60.5,121.6v7.6c0,2.9,1.3,4.1,3,4.1c1.9,0,3.1-1.3,3.1-4.1v-7.6h1.7v7.5c0,3.9-2.1,5.5-4.8,5.5
				c-2.6,0-4.6-1.5-4.6-5.5v-7.5H60.5z"/>
			<path class="st2" d="M72.8,127.7c0-0.9,0-1.7-0.1-2.5h1.5l0.1,1.5h0c0.5-0.9,1.5-1.7,3-1.7c1.3,0,3.2,0.8,3.2,3.9v5.5H79v-5.3
				c0-1.5-0.6-2.7-2.1-2.7c-1.1,0-2,0.8-2.2,1.7c-0.1,0.2-0.1,0.5-0.1,0.8v5.5h-1.7V127.7z"/>
			<path class="st2" d="M87,122.6c0,0.6-0.4,1-1.1,1c-0.6,0-1-0.5-1-1c0-0.6,0.4-1,1-1C86.6,121.6,87,122,87,122.6z M85.1,134.4
				v-9.2h1.7v9.2H85.1z"/>
			<path class="st2" d="M99.3,120.9V132c0,0.8,0,1.7,0.1,2.4h-1.5l-0.1-1.6h0c-0.5,1-1.6,1.8-3.1,1.8c-2.2,0-3.9-1.9-3.9-4.7
				c0-3.1,1.9-4.9,4.1-4.9c1.4,0,2.4,0.7,2.8,1.4h0v-5.5H99.3z M97.6,128.9c0-0.2,0-0.5-0.1-0.7c-0.2-1.1-1.2-1.9-2.4-1.9
				c-1.7,0-2.7,1.5-2.7,3.5c0,1.9,0.9,3.4,2.7,3.4c1.1,0,2.1-0.7,2.4-2c0.1-0.2,0.1-0.5,0.1-0.7V128.9z"/>
			<path class="st2" d="M109,134.4l-0.1-1.2h-0.1c-0.5,0.7-1.5,1.4-2.8,1.4c-1.9,0-2.8-1.3-2.8-2.6c0-2.2,2-3.4,5.5-3.4v-0.2
				c0-0.8-0.2-2.1-2.1-2.1c-0.9,0-1.7,0.3-2.4,0.7l-0.4-1.1c0.8-0.5,1.9-0.8,3-0.8c2.8,0,3.5,1.9,3.5,3.8v3.4c0,0.8,0,1.6,0.2,2.2
				H109z M108.7,129.7c-1.8,0-3.9,0.3-3.9,2.1c0,1.1,0.7,1.6,1.6,1.6c1.2,0,2-0.8,2.2-1.5c0.1-0.2,0.1-0.4,0.1-0.5V129.7z"/>
			<path class="st2" d="M122.7,120.9V132c0,0.8,0,1.7,0.1,2.4h-1.5l-0.1-1.6h0c-0.5,1-1.6,1.8-3.1,1.8c-2.2,0-3.9-1.9-3.9-4.7
				c0-3.1,1.9-4.9,4.1-4.9c1.4,0,2.4,0.7,2.8,1.4h0v-5.5H122.7z M121.1,128.9c0-0.2,0-0.5-0.1-0.7c-0.2-1.1-1.2-1.9-2.4-1.9
				c-1.7,0-2.7,1.5-2.7,3.5c0,1.9,0.9,3.4,2.7,3.4c1.1,0,2.1-0.7,2.4-2c0.1-0.2,0.1-0.5,0.1-0.7V128.9z"/>
			<path class="st2" d="M141,120.9V132c0,0.8,0,1.7,0.1,2.4h-1.5l-0.1-1.6h0c-0.5,1-1.6,1.8-3.1,1.8c-2.2,0-3.9-1.9-3.9-4.7
				c0-3.1,1.9-4.9,4.1-4.9c1.4,0,2.4,0.7,2.8,1.4h0v-5.5H141z M139.4,128.9c0-0.2,0-0.5-0.1-0.7c-0.2-1.1-1.2-1.9-2.4-1.9
				c-1.7,0-2.7,1.5-2.7,3.5c0,1.9,0.9,3.4,2.7,3.4c1.1,0,2.1-0.7,2.4-2c0.1-0.2,0.1-0.5,0.1-0.7V128.9z"/>
			<path class="st2" d="M146.5,130.1c0,2.3,1.5,3.2,3.1,3.2c1.2,0,1.9-0.2,2.5-0.5l0.3,1.2c-0.6,0.3-1.6,0.6-3.1,0.6
				c-2.8,0-4.5-1.9-4.5-4.6c0-2.8,1.6-4.9,4.3-4.9c3,0,3.8,2.6,3.8,4.3c0,0.3,0,0.6-0.1,0.8H146.5z M151.4,128.9
				c0-1.1-0.4-2.7-2.3-2.7c-1.7,0-2.4,1.6-2.6,2.7H151.4z"/>
			<path class="st2" d="M164.9,130.4l-1.3,4h-1.7l4.3-12.8h2l4.4,12.8h-1.8l-1.4-4H164.9z M169,129.1l-1.3-3.7
				c-0.3-0.8-0.5-1.6-0.7-2.3h0c-0.2,0.8-0.4,1.5-0.6,2.3l-1.3,3.7H169z"/>
			<path class="st2" d="M176.1,128.2c0-1.2,0-2.1-0.1-3h1.5l0.1,1.6h0c0.7-1.1,1.8-1.8,3.3-1.8c2.2,0,3.9,1.9,3.9,4.7
				c0,3.3-2,4.9-4.2,4.9c-1.2,0-2.3-0.5-2.8-1.4h0v5h-1.7V128.2z M177.7,130.6c0,0.2,0,0.5,0.1,0.7c0.3,1.2,1.3,2,2.5,2
				c1.8,0,2.8-1.4,2.8-3.5c0-1.8-1-3.4-2.7-3.4c-1.1,0-2.2,0.8-2.5,2.1c-0.1,0.2-0.1,0.5-0.1,0.7V130.6z"/>
			<path class="st2" d="M197,129.7c0,3.4-2.4,4.9-4.6,4.9c-2.5,0-4.4-1.8-4.4-4.7c0-3.1,2-4.9,4.6-4.9
				C195.2,125,197,126.9,197,129.7z M189.7,129.8c0,2,1.2,3.5,2.8,3.5c1.6,0,2.8-1.5,2.8-3.6c0-1.6-0.8-3.5-2.7-3.5
				C190.5,126.3,189.7,128.1,189.7,129.8z"/>
			<path class="st2" d="M201.4,125.2l2,5.4c0.2,0.6,0.4,1.3,0.6,1.9h0c0.2-0.6,0.4-1.3,0.6-1.9l1.8-5.4h1.8l-2.5,6.5
				c-1.2,3.1-2,4.8-3.1,5.7c-0.8,0.7-1.6,1-2,1.1l-0.4-1.4c0.4-0.1,1-0.4,1.5-0.8c0.5-0.4,1-1,1.4-1.9c0.1-0.2,0.1-0.3,0.1-0.4
				c0-0.1,0-0.2-0.1-0.4l-3.4-8.5H201.4z"/>
			<path class="st2" d="M219.6,129.7c0,3.4-2.4,4.9-4.6,4.9c-2.5,0-4.4-1.8-4.4-4.7c0-3.1,2-4.9,4.6-4.9
				C217.8,125,219.6,126.9,219.6,129.7z M212.3,129.8c0,2,1.2,3.5,2.8,3.5c1.6,0,2.8-1.5,2.8-3.6c0-1.6-0.8-3.5-2.7-3.5
				C213.2,126.3,212.3,128.1,212.3,129.8z"/>
		</g>
		<g>
			<path class="st2" d="M58.3,150.7c0-1,0-1.9-0.1-2.7h1.3l0.1,1.4h0c0.6-1,1.6-1.6,2.9-1.6c2,0,3.4,1.7,3.4,4.1
				c0,2.9-1.8,4.4-3.7,4.4c-1.1,0-2-0.5-2.5-1.3h0v4.4h-1.5V150.7z M59.8,152.8c0,0.2,0,0.4,0.1,0.6c0.3,1,1.2,1.7,2.2,1.7
				c1.6,0,2.5-1.3,2.5-3.1c0-1.6-0.9-3-2.4-3c-1,0-2,0.7-2.2,1.8c-0.1,0.2-0.1,0.4-0.1,0.6V152.8z"/>
			<path class="st2" d="M74,156.2l-0.1-1h-0.1c-0.5,0.6-1.3,1.2-2.5,1.2c-1.6,0-2.5-1.2-2.5-2.3c0-2,1.7-3,4.9-3v-0.2
				c0-0.7-0.2-1.9-1.8-1.9c-0.8,0-1.5,0.2-2.1,0.6l-0.3-1c0.7-0.4,1.6-0.7,2.7-0.7c2.5,0,3.1,1.7,3.1,3.3v3c0,0.7,0,1.4,0.1,2H74z
				 M73.8,152c-1.6,0-3.4,0.3-3.4,1.8c0,1,0.6,1.4,1.4,1.4c1.1,0,1.7-0.7,2-1.4c0-0.2,0.1-0.3,0.1-0.5V152z"/>
			<path class="st2" d="M79.2,150.6c0-1,0-1.8-0.1-2.5h1.3l0.1,1.6h0.1c0.4-1.1,1.3-1.8,2.3-1.8c0.2,0,0.3,0,0.4,0.1v1.4
				c-0.2,0-0.3-0.1-0.5-0.1c-1,0-1.8,0.8-2,1.9c0,0.2-0.1,0.4-0.1,0.7v4.3h-1.5V150.6z"/>
			<path class="st2" d="M90.7,156.2l-0.1-1h-0.1c-0.5,0.6-1.3,1.2-2.5,1.2c-1.6,0-2.5-1.2-2.5-2.3c0-2,1.7-3,4.9-3v-0.2
				c0-0.7-0.2-1.9-1.8-1.9c-0.8,0-1.5,0.2-2.1,0.6l-0.3-1c0.7-0.4,1.6-0.7,2.7-0.7c2.5,0,3.1,1.7,3.1,3.3v3c0,0.7,0,1.4,0.1,2H90.7z
				 M90.5,152c-1.6,0-3.4,0.3-3.4,1.8c0,1,0.6,1.4,1.4,1.4c1.1,0,1.7-0.7,2-1.4c0-0.2,0.1-0.3,0.1-0.5V152z"/>
			<path class="st2" d="M101.9,152.4c0,2,1.3,2.8,2.8,2.8c1.1,0,1.7-0.2,2.3-0.4l0.3,1.1c-0.5,0.2-1.4,0.5-2.7,0.5
				c-2.5,0-4-1.6-4-4.1c0-2.5,1.4-4.4,3.8-4.4c2.7,0,3.4,2.3,3.4,3.8c0,0.3,0,0.5-0.1,0.7H101.9z M106.2,151.3
				c0-0.9-0.4-2.4-2.1-2.4c-1.5,0-2.2,1.4-2.3,2.4H106.2z"/>
			<path class="st2" d="M111.1,144.2h1.5v11.9h-1.5V144.2z"/>
			<path class="st2" d="M123.7,152.6l-1.2,3.6H121l3.9-11.3h1.8l3.9,11.3h-1.6l-1.2-3.6H123.7z M127.4,151.4l-1.1-3.3
				c-0.3-0.7-0.4-1.4-0.6-2.1h0c-0.2,0.7-0.4,1.4-0.6,2.1l-1.1,3.3H127.4z"/>
			<path class="st2" d="M133.7,150.7c0-1,0-1.9-0.1-2.7h1.3l0.1,1.4h0c0.6-1,1.6-1.6,2.9-1.6c2,0,3.4,1.7,3.4,4.1
				c0,2.9-1.8,4.4-3.7,4.4c-1.1,0-2-0.5-2.5-1.3h0v4.4h-1.5V150.7z M135.1,152.8c0,0.2,0,0.4,0.1,0.6c0.3,1,1.2,1.7,2.2,1.7
				c1.6,0,2.5-1.3,2.5-3.1c0-1.6-0.9-3-2.4-3c-1,0-2,0.7-2.2,1.8c-0.1,0.2-0.1,0.4-0.1,0.6V152.8z"/>
			<path class="st2" d="M144.8,150.6c0-1,0-1.8-0.1-2.5h1.3l0.1,1.6h0.1c0.4-1.1,1.3-1.8,2.3-1.8c0.2,0,0.3,0,0.4,0.1v1.4
				c-0.2,0-0.3-0.1-0.5-0.1c-1,0-1.8,0.8-2,1.9c0,0.2-0.1,0.4-0.1,0.7v4.3h-1.5V150.6z"/>
			<path class="st2" d="M152.6,152.4c0,2,1.3,2.8,2.8,2.8c1.1,0,1.7-0.2,2.3-0.4l0.3,1.1c-0.5,0.2-1.4,0.5-2.7,0.5
				c-2.5,0-4-1.6-4-4.1c0-2.5,1.4-4.4,3.8-4.4c2.7,0,3.4,2.3,3.4,3.8c0,0.3,0,0.5-0.1,0.7H152.6z M156.9,151.3
				c0-0.9-0.4-2.4-2.1-2.4c-1.5,0-2.2,1.4-2.3,2.4H156.9z"/>
			<path class="st2" d="M161.8,150.2c0-0.8,0-1.5-0.1-2.2h1.3l0.1,1.3h0c0.4-0.8,1.3-1.5,2.7-1.5c1.1,0,2.9,0.7,2.9,3.5v4.9h-1.5
				v-4.7c0-1.3-0.5-2.4-1.9-2.4c-1,0-1.7,0.7-2,1.5c-0.1,0.2-0.1,0.4-0.1,0.7v4.9h-1.5V150.2z"/>
			<path class="st2" d="M179.8,144.2v9.8c0,0.7,0,1.5,0.1,2.1h-1.3l-0.1-1.4h0c-0.5,0.9-1.4,1.6-2.8,1.6c-2,0-3.5-1.7-3.5-4.1
				c0-2.7,1.7-4.4,3.7-4.4c1.2,0,2.1,0.6,2.5,1.2h0v-4.9H179.8z M178.3,151.3c0-0.2,0-0.4-0.1-0.6c-0.2-0.9-1-1.7-2.1-1.7
				c-1.5,0-2.4,1.3-2.4,3.1c0,1.6,0.8,3,2.4,3c1,0,1.9-0.7,2.2-1.8c0-0.2,0.1-0.4,0.1-0.6V151.3z"/>
			<path class="st2" d="M185.5,145.7c0,0.5-0.4,0.9-0.9,0.9c-0.5,0-0.9-0.4-0.9-0.9c0-0.5,0.4-0.9,0.9-0.9
				C185.1,144.8,185.5,145.2,185.5,145.7z M183.8,156.2V148h1.5v8.1H183.8z"/>
			<path class="st2" d="M188.4,155.3l3.7-4.8c0.4-0.4,0.7-0.8,1.1-1.3v0h-4.4V148h6.2l0,0.9l-3.6,4.7c-0.3,0.5-0.7,0.9-1,1.3v0h4.8
				v1.2h-6.6V155.3z"/>
			<path class="st2" d="M202.7,156.2l-0.1-1h-0.1c-0.5,0.6-1.3,1.2-2.5,1.2c-1.6,0-2.5-1.2-2.5-2.3c0-2,1.7-3,4.9-3v-0.2
				c0-0.7-0.2-1.9-1.8-1.9c-0.8,0-1.5,0.2-2.1,0.6l-0.3-1c0.7-0.4,1.6-0.7,2.7-0.7c2.5,0,3.1,1.7,3.1,3.3v3c0,0.7,0,1.4,0.1,2H202.7
				z M202.4,152c-1.6,0-3.4,0.3-3.4,1.8c0,1,0.6,1.4,1.4,1.4c1.1,0,1.7-0.7,2-1.4c0-0.2,0.1-0.3,0.1-0.5V152z"/>
			<path class="st2" d="M205.9,158.5c0.7-0.1,1.3-0.2,1.6-0.6c0.4-0.5,0.6-1.1,0.6-3.1V148h1.5v7.4c0,1.6-0.3,2.6-1,3.3
				c-0.7,0.7-1.7,0.9-2.5,0.9L205.9,158.5z M209.7,145.7c0,0.5-0.3,0.9-0.9,0.9c-0.6,0-0.9-0.4-0.9-0.9c0-0.5,0.4-0.9,0.9-0.9
				C209.3,144.8,209.7,145.2,209.7,145.7z"/>
			<path class="st2" d="M214.4,152.4c0,2,1.3,2.8,2.8,2.8c1.1,0,1.7-0.2,2.3-0.4l0.3,1.1c-0.5,0.2-1.4,0.5-2.7,0.5
				c-2.5,0-4-1.6-4-4.1c0-2.5,1.4-4.4,3.8-4.4c2.7,0,3.4,2.3,3.4,3.8c0,0.3,0,0.5-0.1,0.7H214.4z M218.7,151.3
				c0-0.9-0.4-2.4-2.1-2.4c-1.5,0-2.2,1.4-2.3,2.4H218.7z"/>
		</g>
	</g>
	<g>
		<g>
			<path class="st2" d="M129.2,106c-7.6-0.1-13.8-6.3-13.8-14l0-15.3c0-5.6-4.6-10.1-10.2-9.9c-5.4,0.2-9.6,4.7-9.6,10.1v10.4
				c0,10.1-8,18.5-18.1,18.7c-10.3,0.2-18.7-8.2-18.7-18.4V63.6c0-2.3,1.9-4.2,4.2-4.2h0c2.3,0,4.2,1.9,4.2,4.2v23.7
				c0,5.4,4.2,10,9.6,10.1c5.6,0.2,10.2-4.3,10.2-9.9V76.9c0-10.1,8-18.5,18.1-18.7c10.3-0.2,18.7,8.2,18.7,18.4l0,15.3
				c0,3,2.4,5.5,5.4,5.5c3.1,0,5.6-2.6,5.6-5.7V76.5c0-10.1,8.2-18.3,18.3-18.3h0.2c10.1,0,18.3,8.2,18.3,18.3v6.7h-8.5v-6.7
				c0-5.4-4.4-9.8-9.8-9.8h-0.2c-5.4,0-9.8,4.4-9.8,9.8v15.2C143.4,99.5,137,106.1,129.2,106z"/>
		</g>
		<g>
			<path class="st2" d="M215.3,104.7L215.3,104.7c-2.3,0-4.2-1.9-4.2-4.2V76.5c0-5.4-4.4-9.8-9.8-9.8h-0.2c-5.4,0-9.8,4.4-9.8,9.8
				v7.1h-8.5v-7.1c0-10.1,8.2-18.3,18.3-18.3h0.2c10.1,0,18.3,8.2,18.3,18.3v23.9C219.6,102.8,217.7,104.7,215.3,104.7z"/>
		</g>
		<g>
			<path class="st2" d="M187,104.7L187,104.7c-2.3,0-4.2-1.9-4.2-4.2V84.4h8.5v16.1C191.3,102.8,189.4,104.7,187,104.7z"/>
		</g>
		<g>
			<path class="st2" d="M200.9,87.1h-47.8c-2.2,0-3.9-1.7-3.9-3.9v0c0-2.2,1.7-3.9,3.9-3.9h47.8c2.2,0,3.9,1.7,3.9,3.9v0
				C204.8,85.4,203,87.1,200.9,87.1z"/>
		</g>
		<g>
			<path class="st2" d="M105.9,87.5H91.4v-7.8h14.5c2.2,0,3.9,1.7,3.9,3.9v0C109.8,85.7,108,87.5,105.9,87.5z"/>
		</g>
	</g>
	<rect x="58.1" y="112.5" class="st2" width="162" height="1"/>
</g>
</svg>
