<?xml version="1.0" encoding="utf-8"?>
<!-- Generator: Adobe Illustrator 22.0.1, SVG Export Plug-In . SVG Version: 6.00 Build 0)  -->
<svg version="1.1" id="Capa_1" xmlns="http://www.w3.org/2000/svg" xmlns:xlink="http://www.w3.org/1999/xlink" x="0px" y="0px"
	 viewBox="0 0 25 25" style="enable-background:new 0 0 25 25;" xml:space="preserve">
<style type="text/css">
	.st0{fill:#FFFFFF;}
	.st1{opacity:0.32;clip-path:url(#SVGID_3_);}
	.st2{fill:#E1B7D3;}
</style>
<g>
	<g>
		<rect id="SVGID_1_" class="st0" width="25" height="25"/>
	</g>
	<g>
		<defs>
			<rect id="SVGID_2_" width="25" height="25"/>
		</defs>
		<clipPath id="SVGID_3_">
			<use xlink:href="#SVGID_2_"  style="overflow:visible;"/>
		</clipPath>
		<g class="st1">
			<circle class="st2" cx="-0.2" cy="-0.5" r="0.2"/>
			<circle class="st2" cx="0.8" cy="-0.5" r="0.2"/>
			<circle class="st2" cx="1.7" cy="-0.5" r="0.2"/>
			<circle class="st2" cx="2.7" cy="-0.5" r="0.2"/>
			<circle class="st2" cx="3.7" cy="-0.5" r="0.2"/>
			<circle class="st2" cx="4.6" cy="-0.5" r="0.2"/>
			<circle class="st2" cx="5.6" cy="-0.5" r="0.2"/>
			<circle class="st2" cx="6.6" cy="-0.5" r="0.2"/>
			<circle class="st2" cx="7.5" cy="-0.5" r="0.2"/>
			<circle class="st2" cx="8.5" cy="-0.5" r="0.2"/>
			<circle class="st2" cx="9.4" cy="-0.5" r="0.2"/>
			<circle class="st2" cx="10.4" cy="-0.5" r="0.2"/>
			<circle class="st2" cx="11.4" cy="-0.5" r="0.2"/>
			<circle class="st2" cx="12.3" cy="-0.5" r="0.2"/>
			<circle class="st2" cx="13.3" cy="-0.5" r="0.2"/>
			<circle class="st2" cx="14.2" cy="-0.5" r="0.2"/>
			<circle class="st2" cx="15.2" cy="-0.5" r="0.2"/>
			<circle class="st2" cx="16.2" cy="-0.5" r="0.2"/>
			<circle class="st2" cx="17.1" cy="-0.5" r="0.2"/>
			<circle class="st2" cx="18.1" cy="-0.5" r="0.2"/>
			<circle class="st2" cx="19" cy="-0.5" r="0.2"/>
			<circle class="st2" cx="20" cy="-0.5" r="0.2"/>
			<circle class="st2" cx="21" cy="-0.5" r="0.2"/>
			<circle class="st2" cx="21.9" cy="-0.5" r="0.2"/>
			<circle class="st2" cx="22.9" cy="-0.5" r="0.2"/>
			<circle class="st2" cx="23.8" cy="-0.5" r="0.2"/>
			<circle class="st2" cx="24.8" cy="-0.5" r="0.2"/>
			<circle class="st2" cx="25.8" cy="-0.5" r="0.2"/>
			<circle class="st2" cx="-0.7" cy="0.5" r="0.2"/>
			<circle class="st2" cx="0.3" cy="0.5" r="0.2"/>
			<circle class="st2" cx="1.3" cy="0.5" r="0.2"/>
			<circle class="st2" cx="2.2" cy="0.5" r="0.2"/>
			<circle class="st2" cx="3.2" cy="0.5" r="0.2"/>
			<circle class="st2" cx="4.2" cy="0.5" r="0.2"/>
			<circle class="st2" cx="5.1" cy="0.5" r="0.2"/>
			<circle class="st2" cx="6.1" cy="0.5" r="0.2"/>
			<circle class="st2" cx="7" cy="0.5" r="0.2"/>
			<circle class="st2" cx="8" cy="0.5" r="0.2"/>
			<circle class="st2" cx="9" cy="0.5" r="0.2"/>
			<circle class="st2" cx="9.9" cy="0.5" r="0.2"/>
			<circle class="st2" cx="10.9" cy="0.5" r="0.2"/>
			<circle class="st2" cx="11.8" cy="0.5" r="0.2"/>
			<circle class="st2" cx="12.8" cy="0.5" r="0.2"/>
			<circle class="st2" cx="13.8" cy="0.5" r="0.2"/>
			<circle class="st2" cx="14.7" cy="0.5" r="0.2"/>
			<circle class="st2" cx="15.7" cy="0.5" r="0.2"/>
			<circle class="st2" cx="16.6" cy="0.5" r="0.2"/>
			<circle class="st2" cx="17.6" cy="0.5" r="0.2"/>
			<circle class="st2" cx="18.6" cy="0.5" r="0.2"/>
			<circle class="st2" cx="19.5" cy="0.5" r="0.2"/>
			<circle class="st2" cx="20.5" cy="0.5" r="0.2"/>
			<circle class="st2" cx="21.4" cy="0.5" r="0.2"/>
			<circle class="st2" cx="22.4" cy="0.5" r="0.2"/>
			<circle class="st2" cx="23.4" cy="0.5" r="0.2"/>
			<circle class="st2" cx="24.3" cy="0.5" r="0.2"/>
			<circle class="st2" cx="25.3" cy="0.5" r="0.2"/>
			<circle class="st2" cx="-0.2" cy="1.5" r="0.2"/>
			<circle class="st2" cx="0.8" cy="1.5" r="0.2"/>
			<circle class="st2" cx="1.7" cy="1.5" r="0.2"/>
			<circle class="st2" cx="2.7" cy="1.5" r="0.2"/>
			<circle class="st2" cx="3.7" cy="1.5" r="0.2"/>
			<circle class="st2" cx="4.6" cy="1.5" r="0.2"/>
			<circle class="st2" cx="5.6" cy="1.5" r="0.2"/>
			<circle class="st2" cx="6.6" cy="1.5" r="0.2"/>
			<circle class="st2" cx="7.5" cy="1.5" r="0.2"/>
			<circle class="st2" cx="8.5" cy="1.5" r="0.2"/>
			<circle class="st2" cx="9.4" cy="1.5" r="0.2"/>
			<circle class="st2" cx="10.4" cy="1.5" r="0.2"/>
			<circle class="st2" cx="11.4" cy="1.5" r="0.2"/>
			<circle class="st2" cx="12.3" cy="1.5" r="0.2"/>
			<circle class="st2" cx="13.3" cy="1.5" r="0.2"/>
			<circle class="st2" cx="14.2" cy="1.5" r="0.2"/>
			<circle class="st2" cx="15.2" cy="1.5" r="0.2"/>
			<circle class="st2" cx="16.2" cy="1.5" r="0.2"/>
			<circle class="st2" cx="17.1" cy="1.5" r="0.2"/>
			<circle class="st2" cx="18.1" cy="1.5" r="0.2"/>
			<circle class="st2" cx="19" cy="1.5" r="0.2"/>
			<circle class="st2" cx="20" cy="1.5" r="0.2"/>
			<circle class="st2" cx="21" cy="1.5" r="0.2"/>
			<circle class="st2" cx="21.9" cy="1.5" r="0.2"/>
			<circle class="st2" cx="22.9" cy="1.5" r="0.2"/>
			<circle class="st2" cx="23.8" cy="1.5" r="0.2"/>
			<circle class="st2" cx="24.8" cy="1.5" r="0.2"/>
			<circle class="st2" cx="25.8" cy="1.5" r="0.2"/>
			<circle class="st2" cx="-0.7" cy="2.4" r="0.2"/>
			<circle class="st2" cx="0.3" cy="2.4" r="0.2"/>
			<circle class="st2" cx="1.3" cy="2.4" r="0.2"/>
			<circle class="st2" cx="2.2" cy="2.4" r="0.2"/>
			<circle class="st2" cx="3.2" cy="2.4" r="0.2"/>
			<circle class="st2" cx="4.2" cy="2.4" r="0.2"/>
			<circle class="st2" cx="5.1" cy="2.4" r="0.2"/>
			<circle class="st2" cx="6.1" cy="2.4" r="0.2"/>
			<circle class="st2" cx="7" cy="2.4" r="0.2"/>
			<circle class="st2" cx="8" cy="2.4" r="0.2"/>
			<circle class="st2" cx="9" cy="2.4" r="0.2"/>
			<circle class="st2" cx="9.9" cy="2.4" r="0.2"/>
			<circle class="st2" cx="10.9" cy="2.4" r="0.2"/>
			<circle class="st2" cx="11.8" cy="2.4" r="0.2"/>
			<circle class="st2" cx="12.8" cy="2.4" r="0.2"/>
			<circle class="st2" cx="13.8" cy="2.4" r="0.2"/>
			<circle class="st2" cx="14.7" cy="2.4" r="0.2"/>
			<circle class="st2" cx="15.7" cy="2.4" r="0.2"/>
			<circle class="st2" cx="16.6" cy="2.4" r="0.2"/>
			<circle class="st2" cx="17.6" cy="2.4" r="0.2"/>
			<circle class="st2" cx="18.6" cy="2.4" r="0.2"/>
			<circle class="st2" cx="19.5" cy="2.4" r="0.2"/>
			<circle class="st2" cx="20.5" cy="2.4" r="0.2"/>
			<circle class="st2" cx="21.4" cy="2.4" r="0.2"/>
			<circle class="st2" cx="22.4" cy="2.4" r="0.2"/>
			<circle class="st2" cx="23.4" cy="2.4" r="0.2"/>
			<circle class="st2" cx="24.3" cy="2.4" r="0.2"/>
			<circle class="st2" cx="25.3" cy="2.4" r="0.2"/>
			<circle class="st2" cx="-0.2" cy="3.4" r="0.2"/>
			<circle class="st2" cx="0.8" cy="3.4" r="0.2"/>
			<circle class="st2" cx="1.7" cy="3.4" r="0.2"/>
			<circle class="st2" cx="2.7" cy="3.4" r="0.2"/>
			<circle class="st2" cx="3.7" cy="3.4" r="0.2"/>
			<circle class="st2" cx="4.6" cy="3.4" r="0.2"/>
			<circle class="st2" cx="5.6" cy="3.4" r="0.2"/>
			<circle class="st2" cx="6.6" cy="3.4" r="0.2"/>
			<circle class="st2" cx="7.5" cy="3.4" r="0.2"/>
			<circle class="st2" cx="8.5" cy="3.4" r="0.2"/>
			<circle class="st2" cx="9.4" cy="3.4" r="0.2"/>
			<circle class="st2" cx="10.4" cy="3.4" r="0.2"/>
			<circle class="st2" cx="11.4" cy="3.4" r="0.2"/>
			<circle class="st2" cx="12.3" cy="3.4" r="0.2"/>
			<circle class="st2" cx="13.3" cy="3.4" r="0.2"/>
			<circle class="st2" cx="14.2" cy="3.4" r="0.2"/>
			<circle class="st2" cx="15.2" cy="3.4" r="0.2"/>
			<circle class="st2" cx="16.2" cy="3.4" r="0.2"/>
			<circle class="st2" cx="17.1" cy="3.4" r="0.2"/>
			<circle class="st2" cx="18.1" cy="3.4" r="0.2"/>
			<circle class="st2" cx="19" cy="3.4" r="0.2"/>
			<circle class="st2" cx="20" cy="3.4" r="0.2"/>
			<circle class="st2" cx="21" cy="3.4" r="0.2"/>
			<circle class="st2" cx="21.9" cy="3.4" r="0.2"/>
			<circle class="st2" cx="22.9" cy="3.4" r="0.2"/>
			<circle class="st2" cx="23.8" cy="3.4" r="0.2"/>
			<circle class="st2" cx="24.8" cy="3.4" r="0.2"/>
			<circle class="st2" cx="25.8" cy="3.4" r="0.2"/>
			<circle class="st2" cx="-0.7" cy="4.3" r="0.2"/>
			<circle class="st2" cx="0.3" cy="4.3" r="0.2"/>
			<circle class="st2" cx="1.3" cy="4.3" r="0.2"/>
			<circle class="st2" cx="2.2" cy="4.3" r="0.2"/>
			<circle class="st2" cx="3.2" cy="4.3" r="0.2"/>
			<circle class="st2" cx="4.2" cy="4.3" r="0.2"/>
			<circle class="st2" cx="5.1" cy="4.3" r="0.2"/>
			<circle class="st2" cx="6.1" cy="4.3" r="0.2"/>
			<circle class="st2" cx="7" cy="4.3" r="0.2"/>
			<circle class="st2" cx="8" cy="4.3" r="0.2"/>
			<circle class="st2" cx="9" cy="4.3" r="0.2"/>
			<circle class="st2" cx="9.9" cy="4.3" r="0.2"/>
			<circle class="st2" cx="10.9" cy="4.3" r="0.2"/>
			<circle class="st2" cx="11.8" cy="4.3" r="0.2"/>
			<circle class="st2" cx="12.8" cy="4.3" r="0.2"/>
			<circle class="st2" cx="13.8" cy="4.3" r="0.2"/>
			<circle class="st2" cx="14.7" cy="4.3" r="0.2"/>
			<circle class="st2" cx="15.7" cy="4.3" r="0.2"/>
			<circle class="st2" cx="16.6" cy="4.3" r="0.2"/>
			<circle class="st2" cx="17.6" cy="4.3" r="0.2"/>
			<circle class="st2" cx="18.6" cy="4.3" r="0.2"/>
			<circle class="st2" cx="19.5" cy="4.3" r="0.2"/>
			<circle class="st2" cx="20.5" cy="4.3" r="0.2"/>
			<circle class="st2" cx="21.4" cy="4.3" r="0.2"/>
			<circle class="st2" cx="22.4" cy="4.3" r="0.2"/>
			<circle class="st2" cx="23.4" cy="4.3" r="0.2"/>
			<circle class="st2" cx="24.3" cy="4.3" r="0.2"/>
			<circle class="st2" cx="25.3" cy="4.3" r="0.2"/>
			<circle class="st2" cx="-0.2" cy="5.3" r="0.2"/>
			<circle class="st2" cx="0.8" cy="5.3" r="0.2"/>
			<circle class="st2" cx="1.7" cy="5.3" r="0.2"/>
			<circle class="st2" cx="2.7" cy="5.3" r="0.2"/>
			<circle class="st2" cx="3.7" cy="5.3" r="0.2"/>
			<circle class="st2" cx="4.6" cy="5.3" r="0.2"/>
			<circle class="st2" cx="5.6" cy="5.3" r="0.2"/>
			<circle class="st2" cx="6.6" cy="5.3" r="0.2"/>
			<circle class="st2" cx="7.5" cy="5.3" r="0.2"/>
			<circle class="st2" cx="8.5" cy="5.3" r="0.2"/>
			<circle class="st2" cx="9.4" cy="5.3" r="0.2"/>
			<circle class="st2" cx="10.4" cy="5.3" r="0.2"/>
			<circle class="st2" cx="11.4" cy="5.3" r="0.2"/>
			<circle class="st2" cx="12.3" cy="5.3" r="0.2"/>
			<circle class="st2" cx="13.3" cy="5.3" r="0.2"/>
			<circle class="st2" cx="14.2" cy="5.3" r="0.2"/>
			<circle class="st2" cx="15.2" cy="5.3" r="0.2"/>
			<circle class="st2" cx="16.2" cy="5.3" r="0.2"/>
			<circle class="st2" cx="17.1" cy="5.3" r="0.2"/>
			<circle class="st2" cx="18.1" cy="5.3" r="0.2"/>
			<circle class="st2" cx="19" cy="5.3" r="0.2"/>
			<circle class="st2" cx="20" cy="5.3" r="0.2"/>
			<circle class="st2" cx="21" cy="5.3" r="0.2"/>
			<circle class="st2" cx="21.9" cy="5.3" r="0.2"/>
			<circle class="st2" cx="22.9" cy="5.3" r="0.2"/>
			<circle class="st2" cx="23.8" cy="5.3" r="0.2"/>
			<circle class="st2" cx="24.8" cy="5.3" r="0.2"/>
			<circle class="st2" cx="25.8" cy="5.3" r="0.2"/>
			<circle class="st2" cx="-0.7" cy="6.3" r="0.2"/>
			<circle class="st2" cx="0.3" cy="6.3" r="0.2"/>
			<circle class="st2" cx="1.3" cy="6.3" r="0.2"/>
			<circle class="st2" cx="2.2" cy="6.3" r="0.2"/>
			<circle class="st2" cx="3.2" cy="6.3" r="0.2"/>
			<circle class="st2" cx="4.2" cy="6.3" r="0.2"/>
			<circle class="st2" cx="5.1" cy="6.3" r="0.2"/>
			<circle class="st2" cx="6.1" cy="6.3" r="0.2"/>
			<circle class="st2" cx="7" cy="6.3" r="0.2"/>
			<circle class="st2" cx="8" cy="6.3" r="0.2"/>
			<circle class="st2" cx="9" cy="6.3" r="0.2"/>
			<circle class="st2" cx="9.9" cy="6.3" r="0.2"/>
			<circle class="st2" cx="10.9" cy="6.3" r="0.2"/>
			<circle class="st2" cx="11.8" cy="6.3" r="0.2"/>
			<circle class="st2" cx="12.8" cy="6.3" r="0.2"/>
			<circle class="st2" cx="13.8" cy="6.3" r="0.2"/>
			<circle class="st2" cx="14.7" cy="6.3" r="0.2"/>
			<circle class="st2" cx="15.7" cy="6.3" r="0.2"/>
			<circle class="st2" cx="16.6" cy="6.3" r="0.2"/>
			<circle class="st2" cx="17.6" cy="6.3" r="0.2"/>
			<circle class="st2" cx="18.6" cy="6.3" r="0.2"/>
			<circle class="st2" cx="19.5" cy="6.3" r="0.2"/>
			<circle class="st2" cx="20.5" cy="6.3" r="0.2"/>
			<circle class="st2" cx="21.4" cy="6.3" r="0.2"/>
			<circle class="st2" cx="22.4" cy="6.3" r="0.2"/>
			<circle class="st2" cx="23.4" cy="6.3" r="0.2"/>
			<circle class="st2" cx="24.3" cy="6.3" r="0.2"/>
			<circle class="st2" cx="25.3" cy="6.3" r="0.2"/>
			<circle class="st2" cx="-0.2" cy="7.2" r="0.2"/>
			<circle class="st2" cx="0.8" cy="7.2" r="0.2"/>
			<circle class="st2" cx="1.7" cy="7.2" r="0.2"/>
			<circle class="st2" cx="2.7" cy="7.2" r="0.2"/>
			<circle class="st2" cx="3.7" cy="7.2" r="0.2"/>
			<circle class="st2" cx="4.6" cy="7.2" r="0.2"/>
			<circle class="st2" cx="5.6" cy="7.2" r="0.2"/>
			<circle class="st2" cx="6.6" cy="7.2" r="0.2"/>
			<circle class="st2" cx="7.5" cy="7.2" r="0.2"/>
			<circle class="st2" cx="8.5" cy="7.2" r="0.2"/>
			<circle class="st2" cx="9.4" cy="7.2" r="0.2"/>
			<circle class="st2" cx="10.4" cy="7.2" r="0.2"/>
			<circle class="st2" cx="11.4" cy="7.2" r="0.2"/>
			<circle class="st2" cx="12.3" cy="7.2" r="0.2"/>
			<circle class="st2" cx="13.3" cy="7.2" r="0.2"/>
			<circle class="st2" cx="14.2" cy="7.2" r="0.2"/>
			<circle class="st2" cx="15.2" cy="7.2" r="0.2"/>
			<circle class="st2" cx="16.2" cy="7.2" r="0.2"/>
			<circle class="st2" cx="17.1" cy="7.2" r="0.2"/>
			<circle class="st2" cx="18.1" cy="7.2" r="0.2"/>
			<circle class="st2" cx="19" cy="7.2" r="0.2"/>
			<circle class="st2" cx="20" cy="7.2" r="0.2"/>
			<circle class="st2" cx="21" cy="7.2" r="0.2"/>
			<circle class="st2" cx="21.9" cy="7.2" r="0.2"/>
			<circle class="st2" cx="22.9" cy="7.2" r="0.2"/>
			<circle class="st2" cx="23.8" cy="7.2" r="0.2"/>
			<circle class="st2" cx="24.8" cy="7.2" r="0.2"/>
			<circle class="st2" cx="25.8" cy="7.2" r="0.2"/>
			<circle class="st2" cx="-0.7" cy="8.2" r="0.2"/>
			<circle class="st2" cx="0.3" cy="8.2" r="0.2"/>
			<circle class="st2" cx="1.3" cy="8.2" r="0.2"/>
			<circle class="st2" cx="2.2" cy="8.2" r="0.2"/>
			<circle class="st2" cx="3.2" cy="8.2" r="0.2"/>
			<circle class="st2" cx="4.2" cy="8.2" r="0.2"/>
			<circle class="st2" cx="5.1" cy="8.2" r="0.2"/>
			<circle class="st2" cx="6.1" cy="8.2" r="0.2"/>
			<circle class="st2" cx="7" cy="8.2" r="0.2"/>
			<circle class="st2" cx="8" cy="8.2" r="0.2"/>
			<circle class="st2" cx="9" cy="8.2" r="0.2"/>
			<circle class="st2" cx="9.9" cy="8.2" r="0.2"/>
			<circle class="st2" cx="10.9" cy="8.2" r="0.2"/>
			<circle class="st2" cx="11.8" cy="8.2" r="0.2"/>
			<circle class="st2" cx="12.8" cy="8.2" r="0.2"/>
			<circle class="st2" cx="13.8" cy="8.2" r="0.2"/>
			<circle class="st2" cx="14.7" cy="8.2" r="0.2"/>
			<circle class="st2" cx="15.7" cy="8.2" r="0.2"/>
			<circle class="st2" cx="16.6" cy="8.2" r="0.2"/>
			<circle class="st2" cx="17.6" cy="8.2" r="0.2"/>
			<circle class="st2" cx="18.6" cy="8.2" r="0.2"/>
			<circle class="st2" cx="19.5" cy="8.2" r="0.2"/>
			<circle class="st2" cx="20.5" cy="8.2" r="0.2"/>
			<circle class="st2" cx="21.4" cy="8.2" r="0.2"/>
			<circle class="st2" cx="22.4" cy="8.2" r="0.2"/>
			<circle class="st2" cx="23.4" cy="8.2" r="0.2"/>
			<circle class="st2" cx="24.3" cy="8.2" r="0.2"/>
			<circle class="st2" cx="25.3" cy="8.2" r="0.2"/>
			<circle class="st2" cx="-0.2" cy="9.1" r="0.2"/>
			<circle class="st2" cx="0.8" cy="9.1" r="0.2"/>
			<circle class="st2" cx="1.7" cy="9.1" r="0.2"/>
			<circle class="st2" cx="2.7" cy="9.1" r="0.2"/>
			<circle class="st2" cx="3.7" cy="9.1" r="0.2"/>
			<circle class="st2" cx="4.6" cy="9.1" r="0.2"/>
			<circle class="st2" cx="5.6" cy="9.1" r="0.2"/>
			<circle class="st2" cx="6.6" cy="9.1" r="0.2"/>
			<circle class="st2" cx="7.5" cy="9.1" r="0.2"/>
			<circle class="st2" cx="8.5" cy="9.1" r="0.2"/>
			<circle class="st2" cx="9.4" cy="9.1" r="0.2"/>
			<circle class="st2" cx="10.4" cy="9.1" r="0.2"/>
			<circle class="st2" cx="11.4" cy="9.1" r="0.2"/>
			<circle class="st2" cx="12.3" cy="9.1" r="0.2"/>
			<circle class="st2" cx="13.3" cy="9.1" r="0.2"/>
			<circle class="st2" cx="14.2" cy="9.1" r="0.2"/>
			<circle class="st2" cx="15.2" cy="9.1" r="0.2"/>
			<circle class="st2" cx="16.2" cy="9.1" r="0.2"/>
			<circle class="st2" cx="17.1" cy="9.1" r="0.2"/>
			<circle class="st2" cx="18.1" cy="9.1" r="0.2"/>
			<circle class="st2" cx="19" cy="9.1" r="0.2"/>
			<circle class="st2" cx="20" cy="9.1" r="0.2"/>
			<circle class="st2" cx="21" cy="9.1" r="0.2"/>
			<circle class="st2" cx="21.9" cy="9.1" r="0.2"/>
			<circle class="st2" cx="22.9" cy="9.1" r="0.2"/>
			<circle class="st2" cx="23.8" cy="9.1" r="0.2"/>
			<circle class="st2" cx="24.8" cy="9.1" r="0.2"/>
			<circle class="st2" cx="25.8" cy="9.1" r="0.2"/>
			<circle class="st2" cx="-0.7" cy="10.1" r="0.2"/>
			<circle class="st2" cx="0.3" cy="10.1" r="0.2"/>
			<circle class="st2" cx="1.3" cy="10.1" r="0.2"/>
			<circle class="st2" cx="2.2" cy="10.1" r="0.2"/>
			<circle class="st2" cx="3.2" cy="10.1" r="0.2"/>
			<circle class="st2" cx="4.2" cy="10.1" r="0.2"/>
			<circle class="st2" cx="5.1" cy="10.1" r="0.2"/>
			<circle class="st2" cx="6.1" cy="10.1" r="0.2"/>
			<circle class="st2" cx="7" cy="10.1" r="0.2"/>
			<circle class="st2" cx="8" cy="10.1" r="0.2"/>
			<circle class="st2" cx="9" cy="10.1" r="0.2"/>
			<circle class="st2" cx="9.9" cy="10.1" r="0.2"/>
			<circle class="st2" cx="10.9" cy="10.1" r="0.2"/>
			<circle class="st2" cx="11.8" cy="10.1" r="0.2"/>
			<circle class="st2" cx="12.8" cy="10.1" r="0.2"/>
			<circle class="st2" cx="13.8" cy="10.1" r="0.2"/>
			<circle class="st2" cx="14.7" cy="10.1" r="0.2"/>
			<circle class="st2" cx="15.7" cy="10.1" r="0.2"/>
			<circle class="st2" cx="16.6" cy="10.1" r="0.2"/>
			<circle class="st2" cx="17.6" cy="10.1" r="0.2"/>
			<circle class="st2" cx="18.6" cy="10.1" r="0.2"/>
			<circle class="st2" cx="19.5" cy="10.1" r="0.2"/>
			<circle class="st2" cx="20.5" cy="10.1" r="0.2"/>
			<circle class="st2" cx="21.4" cy="10.1" r="0.2"/>
			<circle class="st2" cx="22.4" cy="10.1" r="0.2"/>
			<circle class="st2" cx="23.4" cy="10.1" r="0.2"/>
			<circle class="st2" cx="24.3" cy="10.1" r="0.2"/>
			<circle class="st2" cx="25.3" cy="10.1" r="0.2"/>
			<circle class="st2" cx="-0.2" cy="11.1" r="0.2"/>
			<circle class="st2" cx="0.8" cy="11.1" r="0.2"/>
			<circle class="st2" cx="1.7" cy="11.1" r="0.2"/>
			<circle class="st2" cx="2.7" cy="11.1" r="0.2"/>
			<circle class="st2" cx="3.7" cy="11.1" r="0.2"/>
			<circle class="st2" cx="4.6" cy="11.1" r="0.2"/>
			<circle class="st2" cx="5.6" cy="11.1" r="0.2"/>
			<circle class="st2" cx="6.6" cy="11.1" r="0.2"/>
			<circle class="st2" cx="7.5" cy="11.1" r="0.2"/>
			<circle class="st2" cx="8.5" cy="11.1" r="0.2"/>
			<circle class="st2" cx="9.4" cy="11.1" r="0.2"/>
			<circle class="st2" cx="10.4" cy="11.1" r="0.2"/>
			<circle class="st2" cx="11.4" cy="11.1" r="0.2"/>
			<circle class="st2" cx="12.3" cy="11.1" r="0.2"/>
			<circle class="st2" cx="13.3" cy="11.1" r="0.2"/>
			<circle class="st2" cx="14.2" cy="11.1" r="0.2"/>
			<circle class="st2" cx="15.2" cy="11.1" r="0.2"/>
			<circle class="st2" cx="16.2" cy="11.1" r="0.2"/>
			<circle class="st2" cx="17.1" cy="11.1" r="0.2"/>
			<circle class="st2" cx="18.1" cy="11.1" r="0.2"/>
			<circle class="st2" cx="19" cy="11.1" r="0.2"/>
			<circle class="st2" cx="20" cy="11.1" r="0.2"/>
			<circle class="st2" cx="21" cy="11.1" r="0.2"/>
			<circle class="st2" cx="21.9" cy="11.1" r="0.2"/>
			<circle class="st2" cx="22.9" cy="11.1" r="0.2"/>
			<circle class="st2" cx="23.8" cy="11.1" r="0.2"/>
			<circle class="st2" cx="24.8" cy="11.1" r="0.2"/>
			<circle class="st2" cx="25.8" cy="11.1" r="0.2"/>
			<circle class="st2" cx="-0.7" cy="12" r="0.2"/>
			<circle class="st2" cx="0.3" cy="12" r="0.2"/>
			<circle class="st2" cx="1.3" cy="12" r="0.2"/>
			<circle class="st2" cx="2.2" cy="12" r="0.2"/>
			<circle class="st2" cx="3.2" cy="12" r="0.2"/>
			<circle class="st2" cx="4.2" cy="12" r="0.2"/>
			<circle class="st2" cx="5.1" cy="12" r="0.2"/>
			<circle class="st2" cx="6.1" cy="12" r="0.2"/>
			<circle class="st2" cx="7" cy="12" r="0.2"/>
			<circle class="st2" cx="8" cy="12" r="0.2"/>
			<circle class="st2" cx="9" cy="12" r="0.2"/>
			<circle class="st2" cx="9.9" cy="12" r="0.2"/>
			<circle class="st2" cx="10.9" cy="12" r="0.2"/>
			<circle class="st2" cx="11.8" cy="12" r="0.2"/>
			<circle class="st2" cx="12.8" cy="12" r="0.2"/>
			<circle class="st2" cx="13.8" cy="12" r="0.2"/>
			<circle class="st2" cx="14.7" cy="12" r="0.2"/>
			<circle class="st2" cx="15.7" cy="12" r="0.2"/>
			<circle class="st2" cx="16.6" cy="12" r="0.2"/>
			<circle class="st2" cx="17.6" cy="12" r="0.2"/>
			<circle class="st2" cx="18.6" cy="12" r="0.2"/>
			<circle class="st2" cx="19.5" cy="12" r="0.2"/>
			<circle class="st2" cx="20.5" cy="12" r="0.2"/>
			<circle class="st2" cx="21.4" cy="12" r="0.2"/>
			<circle class="st2" cx="22.4" cy="12" r="0.2"/>
			<circle class="st2" cx="23.4" cy="12" r="0.2"/>
			<circle class="st2" cx="24.3" cy="12" r="0.2"/>
			<circle class="st2" cx="25.3" cy="12" r="0.2"/>
			<circle class="st2" cx="-0.2" cy="13" r="0.2"/>
			<circle class="st2" cx="0.8" cy="13" r="0.2"/>
			<circle class="st2" cx="1.7" cy="13" r="0.2"/>
			<circle class="st2" cx="2.7" cy="13" r="0.2"/>
			<circle class="st2" cx="3.7" cy="13" r="0.2"/>
			<circle class="st2" cx="4.6" cy="13" r="0.2"/>
			<circle class="st2" cx="5.6" cy="13" r="0.2"/>
			<circle class="st2" cx="6.6" cy="13" r="0.2"/>
			<circle class="st2" cx="7.5" cy="13" r="0.2"/>
			<circle class="st2" cx="8.5" cy="13" r="0.2"/>
			<circle class="st2" cx="9.4" cy="13" r="0.2"/>
			<circle class="st2" cx="10.4" cy="13" r="0.2"/>
			<circle class="st2" cx="11.4" cy="13" r="0.2"/>
			<circle class="st2" cx="12.3" cy="13" r="0.2"/>
			<circle class="st2" cx="13.3" cy="13" r="0.2"/>
			<circle class="st2" cx="14.2" cy="13" r="0.2"/>
			<circle class="st2" cx="15.2" cy="13" r="0.2"/>
			<circle class="st2" cx="16.2" cy="13" r="0.2"/>
			<circle class="st2" cx="17.1" cy="13" r="0.2"/>
			<circle class="st2" cx="18.1" cy="13" r="0.2"/>
			<circle class="st2" cx="19" cy="13" r="0.2"/>
			<circle class="st2" cx="20" cy="13" r="0.2"/>
			<circle class="st2" cx="21" cy="13" r="0.2"/>
			<circle class="st2" cx="21.9" cy="13" r="0.2"/>
			<circle class="st2" cx="22.9" cy="13" r="0.2"/>
			<circle class="st2" cx="23.8" cy="13" r="0.2"/>
			<circle class="st2" cx="24.8" cy="13" r="0.2"/>
			<circle class="st2" cx="25.8" cy="13" r="0.2"/>
			<circle class="st2" cx="-0.7" cy="14" r="0.2"/>
			<circle class="st2" cx="0.3" cy="14" r="0.2"/>
			<circle class="st2" cx="1.3" cy="14" r="0.2"/>
			<circle class="st2" cx="2.2" cy="14" r="0.2"/>
			<circle class="st2" cx="3.2" cy="14" r="0.2"/>
			<circle class="st2" cx="4.2" cy="14" r="0.2"/>
			<circle class="st2" cx="5.1" cy="14" r="0.2"/>
			<circle class="st2" cx="6.1" cy="14" r="0.2"/>
			<circle class="st2" cx="7" cy="14" r="0.2"/>
			<circle class="st2" cx="8" cy="14" r="0.2"/>
			<circle class="st2" cx="9" cy="14" r="0.2"/>
			<circle class="st2" cx="9.9" cy="14" r="0.2"/>
			<circle class="st2" cx="10.9" cy="14" r="0.2"/>
			<circle class="st2" cx="11.8" cy="14" r="0.2"/>
			<circle class="st2" cx="12.8" cy="14" r="0.2"/>
			<circle class="st2" cx="13.8" cy="14" r="0.2"/>
			<circle class="st2" cx="14.7" cy="14" r="0.2"/>
			<circle class="st2" cx="15.7" cy="14" r="0.2"/>
			<circle class="st2" cx="16.6" cy="14" r="0.2"/>
			<circle class="st2" cx="17.6" cy="14" r="0.2"/>
			<circle class="st2" cx="18.6" cy="14" r="0.2"/>
			<circle class="st2" cx="19.5" cy="14" r="0.2"/>
			<circle class="st2" cx="20.5" cy="14" r="0.2"/>
			<circle class="st2" cx="21.4" cy="14" r="0.2"/>
			<circle class="st2" cx="22.4" cy="14" r="0.2"/>
			<circle class="st2" cx="23.4" cy="14" r="0.2"/>
			<circle class="st2" cx="24.3" cy="14" r="0.2"/>
			<circle class="st2" cx="25.3" cy="14" r="0.2"/>
			<circle class="st2" cx="-0.2" cy="14.9" r="0.2"/>
			<circle class="st2" cx="0.8" cy="14.9" r="0.2"/>
			<circle class="st2" cx="1.7" cy="14.9" r="0.2"/>
			<circle class="st2" cx="2.7" cy="14.9" r="0.2"/>
			<circle class="st2" cx="3.7" cy="14.9" r="0.2"/>
			<circle class="st2" cx="4.6" cy="14.9" r="0.2"/>
			<circle class="st2" cx="5.6" cy="14.9" r="0.2"/>
			<circle class="st2" cx="6.6" cy="14.9" r="0.2"/>
			<circle class="st2" cx="7.5" cy="14.9" r="0.2"/>
			<circle class="st2" cx="8.5" cy="14.9" r="0.2"/>
			<circle class="st2" cx="9.4" cy="14.9" r="0.2"/>
			<circle class="st2" cx="10.4" cy="14.9" r="0.2"/>
			<circle class="st2" cx="11.4" cy="14.9" r="0.2"/>
			<circle class="st2" cx="12.3" cy="14.9" r="0.2"/>
			<circle class="st2" cx="13.3" cy="14.9" r="0.2"/>
			<circle class="st2" cx="14.2" cy="14.9" r="0.2"/>
			<circle class="st2" cx="15.2" cy="14.9" r="0.2"/>
			<circle class="st2" cx="16.2" cy="14.9" r="0.2"/>
			<circle class="st2" cx="17.1" cy="14.9" r="0.2"/>
			<circle class="st2" cx="18.1" cy="14.9" r="0.2"/>
			<circle class="st2" cx="19" cy="14.9" r="0.2"/>
			<circle class="st2" cx="20" cy="14.9" r="0.2"/>
			<circle class="st2" cx="21" cy="14.9" r="0.2"/>
			<circle class="st2" cx="21.9" cy="14.9" r="0.2"/>
			<circle class="st2" cx="22.9" cy="14.9" r="0.2"/>
			<circle class="st2" cx="23.8" cy="14.9" r="0.2"/>
			<circle class="st2" cx="24.8" cy="14.9" r="0.2"/>
			<circle class="st2" cx="25.8" cy="14.9" r="0.2"/>
			<circle class="st2" cx="-0.7" cy="15.9" r="0.2"/>
			<circle class="st2" cx="0.3" cy="15.9" r="0.2"/>
			<circle class="st2" cx="1.3" cy="15.9" r="0.2"/>
			<circle class="st2" cx="2.2" cy="15.9" r="0.2"/>
			<circle class="st2" cx="3.2" cy="15.9" r="0.2"/>
			<circle class="st2" cx="4.2" cy="15.9" r="0.2"/>
			<circle class="st2" cx="5.1" cy="15.9" r="0.2"/>
			<circle class="st2" cx="6.1" cy="15.9" r="0.2"/>
			<circle class="st2" cx="7" cy="15.9" r="0.2"/>
			<circle class="st2" cx="8" cy="15.9" r="0.2"/>
			<circle class="st2" cx="9" cy="15.9" r="0.2"/>
			<circle class="st2" cx="9.9" cy="15.9" r="0.2"/>
			<circle class="st2" cx="10.9" cy="15.9" r="0.2"/>
			<circle class="st2" cx="11.8" cy="15.9" r="0.2"/>
			<circle class="st2" cx="12.8" cy="15.9" r="0.2"/>
			<circle class="st2" cx="13.8" cy="15.9" r="0.2"/>
			<circle class="st2" cx="14.7" cy="15.9" r="0.2"/>
			<circle class="st2" cx="15.7" cy="15.9" r="0.2"/>
			<circle class="st2" cx="16.6" cy="15.9" r="0.2"/>
			<circle class="st2" cx="17.6" cy="15.9" r="0.2"/>
			<circle class="st2" cx="18.6" cy="15.9" r="0.2"/>
			<circle class="st2" cx="19.5" cy="15.9" r="0.2"/>
			<circle class="st2" cx="20.5" cy="15.9" r="0.2"/>
			<circle class="st2" cx="21.4" cy="15.9" r="0.2"/>
			<circle class="st2" cx="22.4" cy="15.9" r="0.2"/>
			<circle class="st2" cx="23.4" cy="15.9" r="0.2"/>
			<circle class="st2" cx="24.3" cy="15.9" r="0.2"/>
			<circle class="st2" cx="25.3" cy="15.9" r="0.2"/>
			<circle class="st2" cx="-0.2" cy="16.8" r="0.2"/>
			<circle class="st2" cx="0.8" cy="16.8" r="0.2"/>
			<circle class="st2" cx="1.7" cy="16.8" r="0.2"/>
			<circle class="st2" cx="2.7" cy="16.8" r="0.2"/>
			<circle class="st2" cx="3.7" cy="16.8" r="0.2"/>
			<circle class="st2" cx="4.6" cy="16.8" r="0.2"/>
			<circle class="st2" cx="5.6" cy="16.8" r="0.2"/>
			<circle class="st2" cx="6.6" cy="16.8" r="0.2"/>
			<circle class="st2" cx="7.5" cy="16.8" r="0.2"/>
			<circle class="st2" cx="8.5" cy="16.8" r="0.2"/>
			<circle class="st2" cx="9.4" cy="16.8" r="0.2"/>
			<circle class="st2" cx="10.4" cy="16.8" r="0.2"/>
			<circle class="st2" cx="11.4" cy="16.8" r="0.2"/>
			<circle class="st2" cx="12.3" cy="16.8" r="0.2"/>
			<circle class="st2" cx="13.3" cy="16.8" r="0.2"/>
			<circle class="st2" cx="14.2" cy="16.8" r="0.2"/>
			<circle class="st2" cx="15.2" cy="16.8" r="0.2"/>
			<circle class="st2" cx="16.2" cy="16.8" r="0.2"/>
			<circle class="st2" cx="17.1" cy="16.8" r="0.2"/>
			<circle class="st2" cx="18.1" cy="16.8" r="0.2"/>
			<circle class="st2" cx="19" cy="16.8" r="0.2"/>
			<circle class="st2" cx="20" cy="16.8" r="0.2"/>
			<circle class="st2" cx="21" cy="16.8" r="0.2"/>
			<circle class="st2" cx="21.9" cy="16.8" r="0.2"/>
			<circle class="st2" cx="22.9" cy="16.8" r="0.2"/>
			<circle class="st2" cx="23.8" cy="16.8" r="0.2"/>
			<circle class="st2" cx="24.8" cy="16.8" r="0.2"/>
			<circle class="st2" cx="25.8" cy="16.8" r="0.2"/>
			<circle class="st2" cx="-0.7" cy="17.8" r="0.2"/>
			<circle class="st2" cx="0.3" cy="17.8" r="0.2"/>
			<circle class="st2" cx="1.3" cy="17.8" r="0.2"/>
			<circle class="st2" cx="2.2" cy="17.8" r="0.2"/>
			<circle class="st2" cx="3.2" cy="17.8" r="0.2"/>
			<circle class="st2" cx="4.2" cy="17.8" r="0.2"/>
			<circle class="st2" cx="5.1" cy="17.8" r="0.2"/>
			<circle class="st2" cx="6.1" cy="17.8" r="0.2"/>
			<circle class="st2" cx="7" cy="17.8" r="0.2"/>
			<circle class="st2" cx="8" cy="17.8" r="0.2"/>
			<circle class="st2" cx="9" cy="17.8" r="0.2"/>
			<circle class="st2" cx="9.9" cy="17.8" r="0.2"/>
			<circle class="st2" cx="10.9" cy="17.8" r="0.2"/>
			<circle class="st2" cx="11.8" cy="17.8" r="0.2"/>
			<circle class="st2" cx="12.8" cy="17.8" r="0.2"/>
			<circle class="st2" cx="13.8" cy="17.8" r="0.2"/>
			<circle class="st2" cx="14.7" cy="17.8" r="0.2"/>
			<circle class="st2" cx="15.7" cy="17.8" r="0.2"/>
			<circle class="st2" cx="16.6" cy="17.8" r="0.2"/>
			<circle class="st2" cx="17.6" cy="17.8" r="0.2"/>
			<circle class="st2" cx="18.6" cy="17.8" r="0.2"/>
			<circle class="st2" cx="19.5" cy="17.8" r="0.2"/>
			<circle class="st2" cx="20.5" cy="17.8" r="0.2"/>
			<circle class="st2" cx="21.4" cy="17.8" r="0.2"/>
			<circle class="st2" cx="22.4" cy="17.8" r="0.2"/>
			<circle class="st2" cx="23.4" cy="17.8" r="0.2"/>
			<circle class="st2" cx="24.3" cy="17.8" r="0.2"/>
			<circle class="st2" cx="25.3" cy="17.8" r="0.2"/>
			<circle class="st2" cx="-0.2" cy="18.8" r="0.2"/>
			<circle class="st2" cx="0.8" cy="18.8" r="0.2"/>
			<circle class="st2" cx="1.7" cy="18.8" r="0.2"/>
			<circle class="st2" cx="2.7" cy="18.8" r="0.2"/>
			<circle class="st2" cx="3.7" cy="18.8" r="0.2"/>
			<circle class="st2" cx="4.6" cy="18.8" r="0.2"/>
			<circle class="st2" cx="5.6" cy="18.8" r="0.2"/>
			<circle class="st2" cx="6.6" cy="18.8" r="0.2"/>
			<circle class="st2" cx="7.5" cy="18.8" r="0.2"/>
			<circle class="st2" cx="8.5" cy="18.8" r="0.2"/>
			<circle class="st2" cx="9.4" cy="18.8" r="0.2"/>
			<circle class="st2" cx="10.4" cy="18.8" r="0.2"/>
			<circle class="st2" cx="11.4" cy="18.8" r="0.2"/>
			<circle class="st2" cx="12.3" cy="18.8" r="0.2"/>
			<circle class="st2" cx="13.3" cy="18.8" r="0.2"/>
			<circle class="st2" cx="14.2" cy="18.8" r="0.2"/>
			<circle class="st2" cx="15.2" cy="18.8" r="0.2"/>
			<circle class="st2" cx="16.2" cy="18.8" r="0.2"/>
			<circle class="st2" cx="17.1" cy="18.8" r="0.2"/>
			<circle class="st2" cx="18.1" cy="18.8" r="0.2"/>
			<circle class="st2" cx="19" cy="18.8" r="0.2"/>
			<circle class="st2" cx="20" cy="18.8" r="0.2"/>
			<circle class="st2" cx="21" cy="18.8" r="0.2"/>
			<circle class="st2" cx="21.9" cy="18.8" r="0.2"/>
			<circle class="st2" cx="22.9" cy="18.8" r="0.2"/>
			<circle class="st2" cx="23.8" cy="18.8" r="0.2"/>
			<circle class="st2" cx="24.8" cy="18.8" r="0.2"/>
			<circle class="st2" cx="25.8" cy="18.8" r="0.2"/>
			<circle class="st2" cx="-0.7" cy="19.7" r="0.2"/>
			<circle class="st2" cx="0.3" cy="19.7" r="0.2"/>
			<circle class="st2" cx="1.3" cy="19.7" r="0.2"/>
			<circle class="st2" cx="2.2" cy="19.7" r="0.2"/>
			<circle class="st2" cx="3.2" cy="19.7" r="0.2"/>
			<circle class="st2" cx="4.2" cy="19.7" r="0.2"/>
			<circle class="st2" cx="5.1" cy="19.7" r="0.2"/>
			<circle class="st2" cx="6.1" cy="19.7" r="0.2"/>
			<circle class="st2" cx="7" cy="19.7" r="0.2"/>
			<circle class="st2" cx="8" cy="19.7" r="0.2"/>
			<circle class="st2" cx="9" cy="19.7" r="0.2"/>
			<circle class="st2" cx="9.9" cy="19.7" r="0.2"/>
			<circle class="st2" cx="10.9" cy="19.7" r="0.2"/>
			<circle class="st2" cx="11.8" cy="19.7" r="0.2"/>
			<circle class="st2" cx="12.8" cy="19.7" r="0.2"/>
			<circle class="st2" cx="13.8" cy="19.7" r="0.2"/>
			<circle class="st2" cx="14.7" cy="19.7" r="0.2"/>
			<circle class="st2" cx="15.7" cy="19.7" r="0.2"/>
			<circle class="st2" cx="16.6" cy="19.7" r="0.2"/>
			<circle class="st2" cx="17.6" cy="19.7" r="0.2"/>
			<circle class="st2" cx="18.6" cy="19.7" r="0.2"/>
			<circle class="st2" cx="19.5" cy="19.7" r="0.2"/>
			<circle class="st2" cx="20.5" cy="19.7" r="0.2"/>
			<circle class="st2" cx="21.4" cy="19.7" r="0.2"/>
			<circle class="st2" cx="22.4" cy="19.7" r="0.2"/>
			<circle class="st2" cx="23.4" cy="19.7" r="0.2"/>
			<circle class="st2" cx="24.3" cy="19.7" r="0.2"/>
			<circle class="st2" cx="25.3" cy="19.7" r="0.2"/>
			<circle class="st2" cx="-0.2" cy="20.7" r="0.2"/>
			<circle class="st2" cx="0.8" cy="20.7" r="0.2"/>
			<circle class="st2" cx="1.7" cy="20.7" r="0.2"/>
			<circle class="st2" cx="2.7" cy="20.7" r="0.2"/>
			<circle class="st2" cx="3.7" cy="20.7" r="0.2"/>
			<circle class="st2" cx="4.6" cy="20.7" r="0.2"/>
			<circle class="st2" cx="5.6" cy="20.7" r="0.2"/>
			<circle class="st2" cx="6.6" cy="20.7" r="0.2"/>
			<circle class="st2" cx="7.5" cy="20.7" r="0.2"/>
			<circle class="st2" cx="8.5" cy="20.7" r="0.2"/>
			<circle class="st2" cx="9.4" cy="20.7" r="0.2"/>
			<circle class="st2" cx="10.4" cy="20.7" r="0.2"/>
			<circle class="st2" cx="11.4" cy="20.7" r="0.2"/>
			<circle class="st2" cx="12.3" cy="20.7" r="0.2"/>
			<circle class="st2" cx="13.3" cy="20.7" r="0.2"/>
			<circle class="st2" cx="14.2" cy="20.7" r="0.2"/>
			<circle class="st2" cx="15.2" cy="20.7" r="0.2"/>
			<circle class="st2" cx="16.2" cy="20.7" r="0.2"/>
			<circle class="st2" cx="17.1" cy="20.7" r="0.2"/>
			<circle class="st2" cx="18.1" cy="20.7" r="0.2"/>
			<circle class="st2" cx="19" cy="20.7" r="0.2"/>
			<circle class="st2" cx="20" cy="20.7" r="0.2"/>
			<circle class="st2" cx="21" cy="20.7" r="0.2"/>
			<circle class="st2" cx="21.9" cy="20.7" r="0.2"/>
			<circle class="st2" cx="22.9" cy="20.7" r="0.2"/>
			<circle class="st2" cx="23.8" cy="20.7" r="0.2"/>
			<circle class="st2" cx="24.8" cy="20.7" r="0.2"/>
			<circle class="st2" cx="25.8" cy="20.7" r="0.2"/>
			<circle class="st2" cx="-0.7" cy="21.6" r="0.2"/>
			<circle class="st2" cx="0.3" cy="21.6" r="0.2"/>
			<circle class="st2" cx="1.3" cy="21.6" r="0.2"/>
			<circle class="st2" cx="2.2" cy="21.6" r="0.2"/>
			<circle class="st2" cx="3.2" cy="21.6" r="0.2"/>
			<circle class="st2" cx="4.2" cy="21.6" r="0.2"/>
			<circle class="st2" cx="5.1" cy="21.6" r="0.2"/>
			<circle class="st2" cx="6.1" cy="21.6" r="0.2"/>
			<circle class="st2" cx="7" cy="21.6" r="0.2"/>
			<circle class="st2" cx="8" cy="21.6" r="0.2"/>
			<circle class="st2" cx="9" cy="21.6" r="0.2"/>
			<circle class="st2" cx="9.9" cy="21.6" r="0.2"/>
			<circle class="st2" cx="10.9" cy="21.6" r="0.2"/>
			<circle class="st2" cx="11.8" cy="21.6" r="0.2"/>
			<circle class="st2" cx="12.8" cy="21.6" r="0.2"/>
			<circle class="st2" cx="13.8" cy="21.6" r="0.2"/>
			<circle class="st2" cx="14.7" cy="21.6" r="0.2"/>
			<circle class="st2" cx="15.7" cy="21.6" r="0.2"/>
			<circle class="st2" cx="16.6" cy="21.6" r="0.2"/>
			<circle class="st2" cx="17.6" cy="21.6" r="0.2"/>
			<circle class="st2" cx="18.6" cy="21.6" r="0.2"/>
			<circle class="st2" cx="19.5" cy="21.6" r="0.2"/>
			<circle class="st2" cx="20.5" cy="21.6" r="0.2"/>
			<circle class="st2" cx="21.4" cy="21.6" r="0.2"/>
			<circle class="st2" cx="22.4" cy="21.6" r="0.2"/>
			<circle class="st2" cx="23.4" cy="21.6" r="0.2"/>
			<circle class="st2" cx="24.3" cy="21.6" r="0.2"/>
			<circle class="st2" cx="25.3" cy="21.6" r="0.2"/>
			<circle class="st2" cx="-0.2" cy="22.6" r="0.2"/>
			<circle class="st2" cx="0.8" cy="22.6" r="0.2"/>
			<circle class="st2" cx="1.7" cy="22.6" r="0.2"/>
			<circle class="st2" cx="2.7" cy="22.6" r="0.2"/>
			<circle class="st2" cx="3.7" cy="22.6" r="0.2"/>
			<circle class="st2" cx="4.6" cy="22.6" r="0.2"/>
			<circle class="st2" cx="5.6" cy="22.6" r="0.2"/>
			<circle class="st2" cx="6.6" cy="22.6" r="0.2"/>
			<circle class="st2" cx="7.5" cy="22.6" r="0.2"/>
			<circle class="st2" cx="8.5" cy="22.6" r="0.2"/>
			<circle class="st2" cx="9.4" cy="22.6" r="0.2"/>
			<circle class="st2" cx="10.4" cy="22.6" r="0.2"/>
			<circle class="st2" cx="11.4" cy="22.6" r="0.2"/>
			<circle class="st2" cx="12.3" cy="22.6" r="0.2"/>
			<circle class="st2" cx="13.3" cy="22.6" r="0.2"/>
			<circle class="st2" cx="14.2" cy="22.6" r="0.2"/>
			<circle class="st2" cx="15.2" cy="22.6" r="0.2"/>
			<circle class="st2" cx="16.2" cy="22.6" r="0.2"/>
			<circle class="st2" cx="17.1" cy="22.6" r="0.2"/>
			<circle class="st2" cx="18.1" cy="22.6" r="0.2"/>
			<circle class="st2" cx="19" cy="22.6" r="0.2"/>
			<circle class="st2" cx="20" cy="22.6" r="0.2"/>
			<circle class="st2" cx="21" cy="22.6" r="0.2"/>
			<circle class="st2" cx="21.9" cy="22.6" r="0.2"/>
			<circle class="st2" cx="22.9" cy="22.6" r="0.2"/>
			<circle class="st2" cx="23.8" cy="22.6" r="0.2"/>
			<circle class="st2" cx="24.8" cy="22.6" r="0.2"/>
			<circle class="st2" cx="25.8" cy="22.6" r="0.2"/>
			<circle class="st2" cx="-0.7" cy="23.6" r="0.2"/>
			<circle class="st2" cx="0.3" cy="23.6" r="0.2"/>
			<circle class="st2" cx="1.3" cy="23.6" r="0.2"/>
			<circle class="st2" cx="2.2" cy="23.6" r="0.2"/>
			<circle class="st2" cx="3.2" cy="23.6" r="0.2"/>
			<circle class="st2" cx="4.2" cy="23.6" r="0.2"/>
			<circle class="st2" cx="5.1" cy="23.6" r="0.2"/>
			<circle class="st2" cx="6.1" cy="23.6" r="0.2"/>
			<circle class="st2" cx="7" cy="23.6" r="0.2"/>
			<circle class="st2" cx="8" cy="23.6" r="0.2"/>
			<circle class="st2" cx="9" cy="23.6" r="0.2"/>
			<circle class="st2" cx="9.9" cy="23.6" r="0.2"/>
			<circle class="st2" cx="10.9" cy="23.6" r="0.2"/>
			<circle class="st2" cx="11.8" cy="23.6" r="0.2"/>
			<circle class="st2" cx="12.8" cy="23.6" r="0.2"/>
			<circle class="st2" cx="13.8" cy="23.6" r="0.2"/>
			<circle class="st2" cx="14.7" cy="23.6" r="0.2"/>
			<circle class="st2" cx="15.7" cy="23.6" r="0.2"/>
			<circle class="st2" cx="16.6" cy="23.6" r="0.2"/>
			<circle class="st2" cx="17.6" cy="23.6" r="0.2"/>
			<circle class="st2" cx="18.6" cy="23.6" r="0.2"/>
			<circle class="st2" cx="19.5" cy="23.6" r="0.2"/>
			<circle class="st2" cx="20.5" cy="23.6" r="0.2"/>
			<circle class="st2" cx="21.4" cy="23.6" r="0.2"/>
			<circle class="st2" cx="22.4" cy="23.6" r="0.2"/>
			<circle class="st2" cx="23.4" cy="23.6" r="0.2"/>
			<circle class="st2" cx="24.3" cy="23.6" r="0.2"/>
			<circle class="st2" cx="25.3" cy="23.6" r="0.2"/>
			<circle class="st2" cx="-0.2" cy="24.5" r="0.2"/>
			<circle class="st2" cx="0.8" cy="24.5" r="0.2"/>
			<circle class="st2" cx="1.7" cy="24.5" r="0.2"/>
			<circle class="st2" cx="2.7" cy="24.5" r="0.2"/>
			<circle class="st2" cx="3.7" cy="24.5" r="0.2"/>
			<circle class="st2" cx="4.6" cy="24.5" r="0.2"/>
			<circle class="st2" cx="5.6" cy="24.5" r="0.2"/>
			<circle class="st2" cx="6.6" cy="24.5" r="0.2"/>
			<circle class="st2" cx="7.5" cy="24.5" r="0.2"/>
			<circle class="st2" cx="8.5" cy="24.5" r="0.2"/>
			<circle class="st2" cx="9.4" cy="24.5" r="0.2"/>
			<circle class="st2" cx="10.4" cy="24.5" r="0.2"/>
			<circle class="st2" cx="11.4" cy="24.5" r="0.2"/>
			<circle class="st2" cx="12.3" cy="24.5" r="0.2"/>
			<circle class="st2" cx="13.3" cy="24.5" r="0.2"/>
			<circle class="st2" cx="14.2" cy="24.5" r="0.2"/>
			<circle class="st2" cx="15.2" cy="24.5" r="0.2"/>
			<circle class="st2" cx="16.2" cy="24.5" r="0.2"/>
			<circle class="st2" cx="17.1" cy="24.5" r="0.2"/>
			<circle class="st2" cx="18.1" cy="24.5" r="0.2"/>
			<circle class="st2" cx="19" cy="24.5" r="0.2"/>
			<circle class="st2" cx="20" cy="24.5" r="0.2"/>
			<circle class="st2" cx="21" cy="24.5" r="0.2"/>
			<circle class="st2" cx="21.9" cy="24.5" r="0.2"/>
			<circle class="st2" cx="22.9" cy="24.5" r="0.2"/>
			<circle class="st2" cx="23.8" cy="24.5" r="0.2"/>
			<circle class="st2" cx="24.8" cy="24.5" r="0.2"/>
			<circle class="st2" cx="25.8" cy="24.5" r="0.2"/>
			<circle class="st2" cx="-0.7" cy="25.5" r="0.2"/>
			<circle class="st2" cx="0.3" cy="25.5" r="0.2"/>
			<circle class="st2" cx="1.3" cy="25.5" r="0.2"/>
			<circle class="st2" cx="2.2" cy="25.5" r="0.2"/>
			<circle class="st2" cx="3.2" cy="25.5" r="0.2"/>
			<circle class="st2" cx="4.2" cy="25.5" r="0.2"/>
			<circle class="st2" cx="5.1" cy="25.5" r="0.2"/>
			<circle class="st2" cx="6.1" cy="25.5" r="0.2"/>
			<circle class="st2" cx="7" cy="25.5" r="0.2"/>
			<circle class="st2" cx="8" cy="25.5" r="0.2"/>
			<circle class="st2" cx="9" cy="25.5" r="0.2"/>
			<circle class="st2" cx="9.9" cy="25.5" r="0.2"/>
			<circle class="st2" cx="10.9" cy="25.5" r="0.2"/>
			<circle class="st2" cx="11.8" cy="25.5" r="0.2"/>
			<circle class="st2" cx="12.8" cy="25.5" r="0.2"/>
			<circle class="st2" cx="13.8" cy="25.5" r="0.2"/>
			<circle class="st2" cx="14.7" cy="25.5" r="0.2"/>
			<circle class="st2" cx="15.7" cy="25.5" r="0.2"/>
			<circle class="st2" cx="16.6" cy="25.5" r="0.2"/>
			<circle class="st2" cx="17.6" cy="25.5" r="0.2"/>
			<circle class="st2" cx="18.6" cy="25.5" r="0.2"/>
			<circle class="st2" cx="19.5" cy="25.5" r="0.2"/>
			<circle class="st2" cx="20.5" cy="25.5" r="0.2"/>
			<circle class="st2" cx="21.4" cy="25.5" r="0.2"/>
			<circle class="st2" cx="22.4" cy="25.5" r="0.2"/>
			<circle class="st2" cx="23.4" cy="25.5" r="0.2"/>
			<circle class="st2" cx="24.3" cy="25.5" r="0.2"/>
			<circle class="st2" cx="25.3" cy="25.5" r="0.2"/>
			<circle class="st2" cx="-0.2" cy="26.4" r="0.2"/>
			<circle class="st2" cx="0.8" cy="26.4" r="0.2"/>
			<circle class="st2" cx="1.7" cy="26.4" r="0.2"/>
			<circle class="st2" cx="2.7" cy="26.4" r="0.2"/>
			<circle class="st2" cx="3.7" cy="26.4" r="0.2"/>
			<circle class="st2" cx="4.6" cy="26.4" r="0.2"/>
			<circle class="st2" cx="5.6" cy="26.4" r="0.2"/>
			<circle class="st2" cx="6.6" cy="26.4" r="0.2"/>
			<circle class="st2" cx="7.5" cy="26.4" r="0.2"/>
			<circle class="st2" cx="8.5" cy="26.4" r="0.2"/>
			<circle class="st2" cx="9.4" cy="26.4" r="0.2"/>
			<circle class="st2" cx="10.4" cy="26.4" r="0.2"/>
			<circle class="st2" cx="11.4" cy="26.4" r="0.2"/>
			<circle class="st2" cx="12.3" cy="26.4" r="0.2"/>
			<circle class="st2" cx="13.3" cy="26.4" r="0.2"/>
			<circle class="st2" cx="14.2" cy="26.4" r="0.2"/>
			<circle class="st2" cx="15.2" cy="26.4" r="0.2"/>
			<circle class="st2" cx="16.2" cy="26.4" r="0.2"/>
			<circle class="st2" cx="17.1" cy="26.4" r="0.2"/>
			<circle class="st2" cx="18.1" cy="26.4" r="0.2"/>
			<circle class="st2" cx="19" cy="26.4" r="0.2"/>
			<circle class="st2" cx="20" cy="26.4" r="0.2"/>
			<circle class="st2" cx="21" cy="26.4" r="0.2"/>
			<circle class="st2" cx="21.9" cy="26.4" r="0.2"/>
			<circle class="st2" cx="22.9" cy="26.4" r="0.2"/>
			<circle class="st2" cx="23.8" cy="26.4" r="0.2"/>
			<circle class="st2" cx="24.8" cy="26.4" r="0.2"/>
			<circle class="st2" cx="25.8" cy="26.4" r="0.2"/>
		</g>
	</g>
</g>
</svg>
