<?xml version="1.0" encoding="utf-8"?>
<!-- Generator: Adobe Illustrator 19.2.1, SVG Export Plug-In . SVG Version: 6.00 Build 0)  -->
<svg version="1.1" xmlns="http://www.w3.org/2000/svg" xmlns:xlink="http://www.w3.org/1999/xlink" x="0px" y="0px"
	 viewBox="0 0 1200 1200" style="enable-background:new 0 0 1200 1200;" xml:space="preserve">
<style type="text/css">
	.st0{opacity:0.5;fill:#222222;}
	.st1{opacity:0.5;fill:#6D7993;}
	.st2{opacity:0.5;fill:#D5D5D6;}
	.st3{opacity:0.5;fill:#8F99A2;}
</style>
<g id="_x2014_ÎÓÈ_x5F_3">
	<g>
		<polygon class="st0" points="717.9,0 659,0 600,50 541,0 482.1,0 600,100 		"/>
		<polygon class="st0" points="1017.9,0 959,0 900,50 841,0 782.1,0 900,100 		"/>
		<polygon class="st0" points="59,0 0,50 0,100 117.9,0 		"/>
		<polygon class="st0" points="417.9,0 359,0 300,50 241,0 182.1,0 300,100 		"/>
		<polygon class="st0" points="1082.1,0 1200,100 1200,50 1141,0 		"/>
		<polygon class="st1" points="900,150 750,22.8 600,150 450,22.8 300,150 150,22.8 0,150 0,200 150,72.8 300,200 450,72.8 600,200 
			750,72.8 900,200 1050,72.8 1200,200 1200,150 1050,22.8 		"/>
		<polygon class="st2" points="900,250 750,122.8 600,250 450,122.8 300,250 150,122.8 0,250 0,300 150,172.8 300,300 450,172.8 
			600,300 750,172.8 900,300 1050,172.8 1200,300 1200,250 1050,122.8 		"/>
		<polygon class="st3" points="900,350 750,222.8 600,350 450,222.8 300,350 150,222.8 0,350 0,400 150,272.8 300,400 450,272.8 
			600,400 750,272.8 900,400 1050,272.8 1200,400 1200,350 1050,222.8 		"/>
		<polygon class="st1" points="900,450 750,322.8 600,450 450,322.8 300,450 150,322.8 0,450 0,500 150,372.8 300,500 450,372.8 
			600,500 750,372.8 900,500 1050,372.8 1200,500 1200,450 1050,322.8 		"/>
		<polygon class="st3" points="900,550 750,422.8 600,550 450,422.8 300,550 150,422.8 0,550 0,600 150,472.8 300,600 450,472.8 
			600,600 750,472.8 900,600 1050,472.8 1200,600 1200,550 1050,422.8 		"/>
		<polygon class="st2" points="900,650 750,522.8 600,650 450,522.8 300,650 150,522.8 0,650 0,700 150,572.8 300,700 450,572.8 
			600,700 750,572.8 900,700 1050,572.8 1200,700 1200,650 1050,522.8 		"/>
		<polygon class="st2" points="900,750 750,622.8 600,750 450,622.8 300,750 150,622.8 0,750 0,800 150,672.8 300,800 450,672.8 
			600,800 750,672.8 900,800 1050,672.8 1200,800 1200,750 1050,622.8 		"/>
		<polygon class="st1" points="900,850 750,722.8 600,850 450,722.8 300,850 150,722.8 0,850 0,900 150,772.8 300,900 450,772.8 
			600,900 750,772.8 900,900 1050,772.8 1200,900 1200,850 1050,722.8 		"/>
		<polygon class="st1" points="900,950 750,822.8 600,950 450,822.8 300,950 150,822.8 0,950 0,1000 150,872.8 300,1000 450,872.8 
			600,1000 750,872.8 900,1000 1050,872.8 1200,1000 1200,950 1050,822.8 		"/>
		<polygon class="st2" points="900,1050 750,922.8 600,1050 450,922.8 300,1050 150,922.8 0,1050 0,1100 150,972.8 300,1100 
			450,972.8 600,1100 750,972.8 900,1100 1050,972.8 1200,1100 1200,1050 1050,922.8 		"/>
		<polygon class="st3" points="900,1150 750,1022.8 600,1150 450,1022.8 300,1150 150,1022.8 0,1150 0,1200 150,1072.8 300,1200 
			450,1072.8 600,1200 750,1072.8 900,1200 1050,1072.8 1200,1200 1200,1150 1050,1022.8 		"/>
		<polygon class="st0" points="959,1200 1017.9,1200 1050,1172.8 1082.1,1200 1141,1200 1050,1122.8 		"/>
		<polygon class="st0" points="359,1200 417.9,1200 450,1172.8 482.1,1200 541,1200 450,1122.8 		"/>
		<polygon class="st0" points="59,1200 117.9,1200 150,1172.8 182.1,1200 241,1200 150,1122.8 		"/>
		<polygon class="st0" points="659,1200 717.9,1200 750,1172.8 782.1,1200 841,1200 750,1122.8 		"/>
	</g>
</g>
<g id="_x2014_ÎÓÈ_x5F_4">
</g>
</svg>
